<?xml version="1.0" standalone="no"?>
 <!DOCTYPE svg PUBLIC "-//W3C//DTD SVG 1.1//EN" 
 "http://www.w3.org/Graphics/SVG/1.1/DTD/svg11.dtd"> 
<svg xmlns="http://www.w3.org/2000/svg" version="1.1" 
    width="29.7002cm" height="21.0007cm" viewBox="0 0 116930 82680 ">
<title>SVG Picture created as cargaelectronica_ce3-F_SilkS.svg date 2019/07/01 08:26:22 </title>
  <desc>Picture generated by PCBNEW </desc>
<g style="fill:#000000; fill-opacity:1;stroke:#000000; stroke-opacity:1;
stroke-linecap:round; stroke-linejoin:round; "
 transform="translate(0 0) scale(1 1)">
</g>
<g style="fill:#000000; fill-opacity:0.0; 
stroke:#000000; stroke-width:-0.000393701; stroke-opacity:1; 
stroke-linecap:round; stroke-linejoin:round;">
</g>
<g style="fill:#000000; fill-opacity:0.0; 
stroke:#000000; stroke-width:196.85; stroke-opacity:1; 
stroke-linecap:round; stroke-linejoin:round;">
<path d="M21800 34200
L21800 14400
" />
<path d="M44600 34200
L21800 34200
" />
<path d="M44600 14400
L44600 34200
" />
<path d="M21800 14400
L44600 14400
" />
</g>
<g style="fill:#000000; fill-opacity:0.0; 
stroke:#000000; stroke-width:250; stroke-opacity:1; 
stroke-linecap:round; stroke-linejoin:round;">
<path d="M41757 30333
L41804 30380
L41852 30523
L41852 30619
L41804 30761
L41709 30857
L41614 30904
L41423 30952
L41280 30952
L41090 30904
L40995 30857
L40900 30761
L40852 30619
L40852 30523
L40900 30380
L40947 30333
" />
<path d="M41328 29904
L41328 29571
" />
<path d="M41852 29428
L41852 29904
L40852 29904
L40852 29428
" />
<path d="M41852 28476
L41852 29047
" />
<path d="M41852 28761
L40852 28761
L40995 28857
L41090 28952
L41138 29047
" />
<path d="M41757 28047
L41804 28000
L41852 28047
L41804 28095
L41757 28047
L41852 28047
" />
<path d="M41185 27142
L41852 27142
" />
<path d="M40804 27380
L41519 27619
L41519 27000
" />
</g>
<g style="fill:#000000; fill-opacity:0.0; 
stroke:#000000; stroke-width:47.2441; stroke-opacity:1; 
stroke-linecap:round; stroke-linejoin:round;">
<path d="M28926 31769
L29473 31769
" />
<path d="M28926 31769
L28926 31720
" />
<path d="M29473 31769
L29473 31720
" />
<path d="M28926 31769
L28960 31769
" />
<path d="M29439 31769
L29473 31769
" />
<path d="M28926 31500
L28926 31230
" />
<path d="M28926 31230
L29200 31230
" />
<path d="M36072.4 21417.3 A1031.5 1031.5 0.0 0 0 37959.1 21417.3 " />
<path d="M37959.1 20582.7 A1031.5 1031.5 0.0 0 0 36072.4 20582.7 " />
<path d="M38119 21580
L37923 21580
" />
<path d="M38021 21679
L38021 21482
" />
<path d="M34460.5 25217.3 A1228.35 1228.35 0.0 0 0 36771 25217.3 " />
<path d="M36771 24382.7 A1228.35 1228.35 0.0 0 0 34460.5 24382.7 " />
<path d="M36930 25490
L36694 25490
" />
<path d="M36812 25609
L36812 25372
" />
<path d="M24226 19769
L24773 19769
" />
<path d="M24226 19769
L24226 19720
" />
<path d="M24773 19769
L24773 19720
" />
<path d="M24226 19769
L24260 19769
" />
<path d="M24739 19769
L24773 19769
" />
<path d="M24226 19500
L24226 19230
" />
<path d="M24226 19230
L24500 19230
" />
<path d="M24226 21230
L24500 21230
" />
<path d="M24226 21500
L24226 21230
" />
<path d="M24739 21769
L24773 21769
" />
<path d="M24226 21769
L24260 21769
" />
<path d="M24773 21769
L24773 21720
" />
<path d="M24226 21769
L24226 21720
" />
<path d="M24226 21769
L24773 21769
" />
<path d="M24226 23769
L24773 23769
" />
<path d="M24226 23769
L24226 23720
" />
<path d="M24773 23769
L24773 23720
" />
<path d="M24226 23769
L24260 23769
" />
<path d="M24739 23769
L24773 23769
" />
<path d="M24226 23500
L24226 23230
" />
<path d="M24226 23230
L24500 23230
" />
<path d="M24226 25230
L24500 25230
" />
<path d="M24226 25500
L24226 25230
" />
<path d="M24739 25769
L24773 25769
" />
<path d="M24226 25769
L24260 25769
" />
<path d="M24773 25769
L24773 25720
" />
<path d="M24226 25769
L24226 25720
" />
<path d="M24226 25769
L24773 25769
" />
<path d="M24226 26730
L24500 26730
" />
<path d="M24226 27000
L24226 26730
" />
<path d="M24739 27269
L24773 27269
" />
<path d="M24226 27269
L24260 27269
" />
<path d="M24773 27269
L24773 27220
" />
<path d="M24226 27269
L24226 27220
" />
<path d="M24226 27269
L24773 27269
" />
<path d="M28226 15730
L28500 15730
" />
<path d="M28226 16000
L28226 15730
" />
<path d="M28739 16269
L28773 16269
" />
<path d="M28226 16269
L28260 16269
" />
<path d="M28773 16269
L28773 16220
" />
<path d="M28226 16269
L28226 16220
" />
<path d="M28226 16269
L28773 16269
" />
<path d="M25526 29269
L26073 29269
" />
<path d="M25526 29269
L25526 29220
" />
<path d="M26073 29269
L26073 29220
" />
<path d="M25526 29269
L25560 29269
" />
<path d="M26039 29269
L26073 29269
" />
<path d="M25526 29000
L25526 28730
" />
<path d="M25526 28730
L25800 28730
" />
<path d="M25426 31230
L25700 31230
" />
<path d="M25426 31500
L25426 31230
" />
<path d="M25939 31769
L25973 31769
" />
<path d="M25426 31769
L25460 31769
" />
<path d="M25973 31769
L25973 31720
" />
<path d="M25426 31769
L25426 31720
" />
<path d="M25426 31769
L25973 31769
" />
<path d="M31926 31230
L32200 31230
" />
<path d="M31926 31500
L31926 31230
" />
<path d="M32439 31769
L32473 31769
" />
<path d="M31926 31769
L31960 31769
" />
<path d="M32473 31769
L32473 31720
" />
<path d="M31926 31769
L31926 31720
" />
<path d="M31926 31769
L32473 31769
" />
<path d="M36426 31769
L36973 31769
" />
<path d="M36426 31769
L36426 31720
" />
<path d="M36973 31769
L36973 31720
" />
<path d="M36426 31769
L36460 31769
" />
<path d="M36939 31769
L36973 31769
" />
<path d="M36426 31500
L36426 31230
" />
<path d="M36426 31230
L36700 31230
" />
<path d="M39426 31230
L39700 31230
" />
<path d="M39426 31500
L39426 31230
" />
<path d="M39939 31769
L39973 31769
" />
<path d="M39426 31769
L39460 31769
" />
<path d="M39973 31769
L39973 31720
" />
<path d="M39426 31769
L39426 31720
" />
<path d="M39426 31769
L39973 31769
" />
<path d="M41926 31769
L42473 31769
" />
<path d="M41926 31769
L41926 31720
" />
<path d="M42473 31769
L42473 31720
" />
<path d="M41926 31769
L41960 31769
" />
<path d="M42439 31769
L42473 31769
" />
<path d="M41926 31500
L41926 31230
" />
<path d="M41926 31230
L42200 31230
" />
<path d="M41726 23669
L42273 23669
" />
<path d="M41726 23669
L41726 23620
" />
<path d="M42273 23669
L42273 23620
" />
<path d="M41726 23669
L41760 23669
" />
<path d="M42239 23669
L42273 23669
" />
<path d="M41726 23400
L41726 23130
" />
<path d="M41726 23130
L42000 23130
" />
<path d="M41726 24930
L42000 24930
" />
<path d="M41726 25200
L41726 24930
" />
<path d="M42239 25469
L42273 25469
" />
<path d="M41726 25469
L41760 25469
" />
<path d="M42273 25469
L42273 25420
" />
<path d="M41726 25469
L41726 25420
" />
<path d="M41726 25469
L42273 25469
" />
<path d="M41726 19769
L42273 19769
" />
<path d="M41726 19769
L41726 19720
" />
<path d="M42273 19769
L42273 19720
" />
<path d="M41726 19769
L41760 19769
" />
<path d="M42239 19769
L42273 19769
" />
<path d="M41726 19500
L41726 19230
" />
<path d="M41726 19230
L42000 19230
" />
<path d="M41226 17730
L41500 17730
" />
<path d="M41226 18000
L41226 17730
" />
<path d="M41739 18269
L41773 18269
" />
<path d="M41226 18269
L41260 18269
" />
<path d="M41773 18269
L41773 18220
" />
<path d="M41226 18269
L41226 18220
" />
<path d="M41226 18269
L41773 18269
" />
<path d="M40526 23669
L41073 23669
" />
<path d="M40526 23669
L40526 23620
" />
<path d="M41073 23669
L41073 23620
" />
<path d="M40526 23669
L40560 23669
" />
<path d="M41039 23669
L41073 23669
" />
<path d="M40526 23400
L40526 23130
" />
<path d="M40526 23130
L40800 23130
" />
<path d="M40526 26069
L41073 26069
" />
<path d="M40526 26069
L40526 26020
" />
<path d="M41073 26069
L41073 26020
" />
<path d="M40526 26069
L40560 26069
" />
<path d="M41039 26069
L41073 26069
" />
<path d="M40526 25800
L40526 25530
" />
<path d="M40526 25530
L40800 25530
" />
<path d="M28339 19912
L27260 19912
" />
<path d="M27260 19912
L27260 22487
" />
<path d="M27260 22487
L28339 22487
" />
<path d="M28339 22487
L28339 19912
" />
<path d="M27800 19609
L27800 19912
" />
<path d="M27800 22790
L27800 22487
" />
</g>
<g style="fill:#000000; fill-opacity:0.0; 
stroke:#000000; stroke-width:60; stroke-opacity:1; 
stroke-linecap:round; stroke-linejoin:round;">
<path d="M34150 22850
L34150 20150
" />
<path d="M34150 20150
L33971 20150
" />
<path d="M30050 20150
L30050 22850
" />
<path d="M30050 22850
L30199 22850
" />
<path d="M31001 22850
L31228 22850
" />
<path d="M31971 22850
L32228 22850
" />
<path d="M32971 22850
L33228 22850
" />
<path d="M33971 22850
L34150 22850
" />
<path d="M33228 20150
L32971 20150
" />
<path d="M32228 20150
L31971 20150
" />
<path d="M31228 20150
L30971 20150
" />
<path d="M30228 20150
L30050 20150
" />
</g>
<g style="fill:#000000; fill-opacity:0.0; 
stroke:#000000; stroke-width:47.2441; stroke-opacity:1; 
stroke-linecap:round; stroke-linejoin:round;">
<path d="M32584 14712
L36615 14712
" />
<path d="M32584 16539
L36615 16539
" />
<path d="M32584 14712
L32584 16539
" />
<path d="M36615 14712
L36615 16539
" />
<path d="M32584 15307
L36615 15307
" />
<path d="M33871 14712
L33871 15307
" />
<path d="M35328 14712
L35328 15307
" />
<g >
</g>
<g style="fill:#000000; fill-opacity:0.0; 
stroke:#000000; stroke-width:393.701; stroke-opacity:1; 
stroke-linecap:round; stroke-linejoin:round;">
<circle cx="23200" cy="32800" r="433.071" /> 
</g>
<g >
</g>
<g >
</g>
<g >
</g>
<g >
</g>
<g >
</g>
<g >
</g>
<g >
</g>
<g >
</g>
<g >
</g>
<g >
</g>
<g >
</g>
<g >
</g>
<g >
</g>
<g >
</g>
<g >
</g>
<g >
</g>
<g >
</g>
<g >
</g>
<g >
</g>
<g >
</g>
<g >
</g>
<g >
</g>
<g >
</g>
<g >
</g>
<g >
</g>
</g>
<g style="fill:#000000; fill-opacity:0.0; 
stroke:#000000; stroke-width:59.0551; stroke-opacity:1; 
stroke-linecap:round; stroke-linejoin:round;">
<path d="M22675 31324
L22543 31137
" />
<path d="M22450 31324
L22450 30930
L22600 30930
L22637 30949
L22656 30968
L22675 31005
L22675 31062
L22656 31099
L22637 31118
L22600 31137
L22450 31137
" />
<path d="M22843 31118
L22975 31118
" />
<path d="M23031 31324
L22843 31324
L22843 30930
L23031 30930
" />
<path d="M23331 31118
L23200 31118
" />
<path d="M23200 31324
L23200 30930
L23387 30930
" />
<path d="M23593 30930
L23593 31024
" />
<path d="M23499 30987
L23593 31024
L23687 30987
" />
<path d="M23537 31099
L23593 31024
L23649 31099
" />
<path d="M23893 30930
L23893 31024
" />
<path d="M23799 30987
L23893 31024
L23987 30987
" />
<path d="M23837 31099
L23893 31024
L23949 31099
" />
<path d="M28068 30384
L28068 30665
L28050 30721
L28012 30759
L27956 30778
L27918 30778
" />
<path d="M28274 30778
L28349 30778
L28387 30759
L28406 30740
L28443 30684
L28462 30609
L28462 30459
L28443 30421
L28424 30403
L28387 30384
L28312 30384
L28274 30403
L28256 30421
L28237 30459
L28237 30553
L28256 30590
L28274 30609
L28312 30628
L28387 30628
L28424 30609
L28443 30590
L28462 30553
" />
<path d="M27559 32821
L27578 32803
L27615 32784
L27709 32784
L27747 32803
L27765 32821
L27784 32859
L27784 32896
L27765 32953
L27540 33178
L27784 33178
" />
<path d="M27953 33028
L28253 33028
" />
<path d="M28440 32915
L28440 33309
" />
<path d="M28440 32934
L28478 32915
L28553 32915
L28590 32934
L28609 32953
L28628 32990
L28628 33103
L28609 33140
L28590 33159
L28553 33178
L28478 33178
L28440 33159
" />
<path d="M28853 33178
L28815 33159
L28796 33140
L28778 33103
L28778 32990
L28796 32953
L28815 32934
L28853 32915
L28909 32915
L28946 32934
L28965 32953
L28984 32990
L28984 33103
L28965 33140
L28946 33159
L28909 33178
L28853 33178
" />
<path d="M29096 32915
L29246 32915
" />
<path d="M29153 32784
L29153 33121
L29171 33159
L29209 33178
L29246 33178
" />
<path d="M29378 33028
L29678 33028
" />
<path d="M30071 33178
L29846 33178
" />
<path d="M29959 33178
L29959 32784
L29921 32840
L29884 32878
L29846 32896
" />
<path d="M30315 32784
L30352 32784
L30390 32803
L30409 32821
L30427 32859
L30446 32934
L30446 33028
L30427 33103
L30409 33140
L30390 33159
L30352 33178
L30315 33178
L30277 33159
L30259 33140
L30240 33103
L30221 33028
L30221 32934
L30240 32859
L30259 32821
L30277 32803
L30315 32784
" />
<path d="M30615 33178
L30615 32784
" />
<path d="M30840 33178
L30671 32953
" />
<path d="M30840 32784
L30615 33009
" />
<path d="M39134 21140
L39115 21159
L39059 21178
L39021 21178
L38965 21159
L38928 21121
L38909 21084
L38890 21009
L38890 20953
L38909 20878
L38928 20840
L38965 20803
L39021 20784
L39059 20784
L39115 20803
L39134 20821
" />
<path d="M39509 21178
L39284 21178
" />
<path d="M39396 21178
L39396 20784
L39359 20840
L39321 20878
L39284 20896
" />
<path d="M38565 19778
L38340 19778
" />
<path d="M38453 19778
L38453 19384
L38415 19440
L38378 19478
L38340 19496
" />
<path d="M38903 19515
L38903 19778
" />
<path d="M38734 19515
L38734 19721
L38753 19759
L38790 19778
L38846 19778
L38884 19759
L38903 19740
" />
<path d="M39221 19571
L39090 19571
" />
<path d="M39090 19778
L39090 19384
L39278 19384
" />
<path d="M36734 26740
L36715 26759
L36659 26778
L36621 26778
L36565 26759
L36528 26721
L36509 26684
L36490 26609
L36490 26553
L36509 26478
L36528 26440
L36565 26403
L36621 26384
L36659 26384
L36715 26403
L36734 26421
" />
<path d="M36884 26421
L36903 26403
L36940 26384
L37034 26384
L37071 26403
L37090 26421
L37109 26459
L37109 26496
L37090 26553
L36865 26778
L37109 26778
" />
<path d="M37190 23578
L36965 23578
" />
<path d="M37078 23578
L37078 23184
L37040 23240
L37003 23278
L36965 23296
" />
<path d="M37434 23184
L37471 23184
L37509 23203
L37528 23221
L37546 23259
L37565 23334
L37565 23428
L37546 23503
L37528 23540
L37509 23559
L37471 23578
L37434 23578
L37396 23559
L37378 23540
L37359 23503
L37340 23428
L37340 23334
L37359 23259
L37378 23221
L37396 23203
L37434 23184
" />
<path d="M37809 23184
L37846 23184
L37884 23203
L37903 23221
L37921 23259
L37940 23334
L37940 23428
L37921 23503
L37903 23540
L37884 23559
L37846 23578
L37809 23578
L37771 23559
L37753 23540
L37734 23503
L37715 23428
L37715 23334
L37734 23259
L37753 23221
L37771 23203
L37809 23184
" />
<path d="M38109 23315
L38109 23578
" />
<path d="M38109 23353
L38128 23334
L38165 23315
L38221 23315
L38259 23334
L38278 23371
L38278 23578
" />
<path d="M38596 23371
L38465 23371
" />
<path d="M38465 23578
L38465 23184
L38653 23184
" />
<path d="M23743 18134
L23743 18415
L23725 18471
L23687 18509
L23631 18528
L23593 18528
" />
<path d="M24137 18528
L23912 18528
" />
<path d="M24024 18528
L24024 18134
L23987 18190
L23949 18228
L23912 18246
" />
<path d="M22996 19384
L23128 19778
L23259 19384
" />
<path d="M23390 19778
L23390 19515
" />
<path d="M23390 19384
L23371 19403
L23390 19421
L23409 19403
L23390 19384
L23390 19421
" />
<path d="M23578 19515
L23578 19778
" />
<path d="M23578 19553
L23596 19534
L23634 19515
L23690 19515
L23728 19534
L23746 19571
L23746 19778
" />
<path d="M23968 20359
L23968 20640
L23950 20696
L23912 20734
L23856 20753
L23818 20753
" />
<path d="M24137 20396
L24156 20378
L24193 20359
L24287 20359
L24324 20378
L24343 20396
L24362 20434
L24362 20471
L24343 20528
L24118 20753
L24362 20753
" />
<path d="M22931 21184
L23062 21578
L23193 21184
" />
<path d="M23493 21559
L23456 21578
L23381 21578
L23343 21559
L23325 21540
L23306 21503
L23306 21390
L23325 21353
L23343 21334
L23381 21315
L23456 21315
L23493 21334
" />
<path d="M23831 21559
L23793 21578
L23718 21578
L23681 21559
L23662 21540
L23643 21503
L23643 21390
L23662 21353
L23681 21334
L23718 21315
L23793 21315
L23831 21334
" />
<path d="M25268 23984
L25268 24265
L25250 24321
L25212 24359
L25156 24378
L25118 24378
" />
<path d="M25418 23984
L25662 23984
L25531 24134
L25587 24134
L25624 24153
L25643 24171
L25662 24209
L25662 24303
L25643 24340
L25624 24359
L25587 24378
L25474 24378
L25437 24359
L25418 24340
" />
<path d="M25400 23103
L25362 23084
L25306 23084
L25250 23103
L25212 23140
L25193 23178
L25175 23253
L25175 23309
L25193 23384
L25212 23421
L25250 23459
L25306 23478
L25343 23478
L25400 23459
L25418 23440
L25418 23309
L25343 23309
" />
<path d="M25587 23478
L25587 23084
L25812 23478
L25812 23084
" />
<path d="M25999 23478
L25999 23084
L26093 23084
L26149 23103
L26187 23140
L26206 23178
L26224 23253
L26224 23309
L26206 23384
L26187 23421
L26149 23459
L26093 23478
L25999 23478
" />
<path d="M25368 24784
L25368 25065
L25350 25121
L25312 25159
L25256 25178
L25218 25178
" />
<path d="M25724 24915
L25724 25178
" />
<path d="M25631 24765
L25537 25046
L25781 25046
" />
<path d="M25606 26078
L25606 25684
" />
<path d="M26093 25928
L26393 25928
" />
<path d="M26243 26078
L26243 25778
" />
<path d="M25368 26284
L25368 26565
L25350 26621
L25312 26659
L25256 26678
L25218 26678
" />
<path d="M25743 26284
L25556 26284
L25537 26471
L25556 26453
L25593 26434
L25687 26434
L25724 26453
L25743 26471
L25762 26509
L25762 26603
L25743 26640
L25724 26659
L25687 26678
L25593 26678
L25556 26659
L25537 26640
" />
<path d="M25606 27378
L25606 26984
" />
<path d="M26093 27228
L26393 27228
" />
<path d="M28793 14859
L28793 15140
L28775 15196
L28737 15234
L28681 15253
L28643 15253
" />
<path d="M29149 14859
L29074 14859
L29037 14878
L29018 14896
L28981 14953
L28962 15028
L28962 15178
L28981 15215
L28999 15234
L29037 15253
L29112 15253
L29149 15234
L29168 15215
L29187 15178
L29187 15084
L29168 15046
L29149 15028
L29112 15009
L29037 15009
L28999 15028
L28981 15046
L28962 15084
" />
<path d="M25778 14971
L25834 14990
L25853 15009
L25871 15046
L25871 15103
L25853 15140
L25834 15159
L25797 15178
L25647 15178
L25647 14784
L25778 14784
L25815 14803
L25834 14821
L25853 14859
L25853 14896
L25834 14934
L25815 14953
L25778 14971
L25647 14971
" />
<path d="M26096 15178
L26059 15159
L26040 15140
L26021 15103
L26021 14990
L26040 14953
L26059 14934
L26096 14915
L26153 14915
L26190 14934
L26209 14953
L26228 14990
L26228 15103
L26209 15140
L26190 15159
L26153 15178
L26096 15178
" />
<path d="M26396 15178
L26396 14915
" />
<path d="M26396 14990
L26415 14953
L26434 14934
L26471 14915
L26509 14915
" />
<path d="M26640 14915
L26640 15178
" />
<path d="M26640 14953
L26659 14934
L26696 14915
L26753 14915
L26790 14934
L26809 14971
L26809 15178
" />
<path d="M27165 15178
L27165 14971
L27146 14934
L27109 14915
L27034 14915
L26996 14934
" />
<path d="M27165 15159
L27128 15178
L27034 15178
L26996 15159
L26978 15121
L26978 15084
L26996 15046
L27034 15028
L27128 15028
L27165 15009
" />
<path d="M27653 15028
L27952 15028
" />
<path d="M27802 15178
L27802 14878
" />
<path d="M25868 27784
L25868 28065
L25850 28121
L25812 28159
L25756 28178
L25718 28178
" />
<path d="M26018 27784
L26281 27784
L26112 28178
" />
<path d="M26978 28171
L27034 28190
L27053 28209
L27071 28246
L27071 28303
L27053 28340
L27034 28359
L26997 28378
L26847 28378
L26847 27984
L26978 27984
L27015 28003
L27034 28021
L27053 28059
L27053 28096
L27034 28134
L27015 28153
L26978 28171
L26847 28171
" />
<path d="M27296 28378
L27259 28359
L27240 28340
L27221 28303
L27221 28190
L27240 28153
L27259 28134
L27296 28115
L27353 28115
L27390 28134
L27409 28153
L27428 28190
L27428 28303
L27409 28340
L27390 28359
L27353 28378
L27296 28378
" />
<path d="M27596 28378
L27596 28115
" />
<path d="M27596 28190
L27615 28153
L27634 28134
L27671 28115
L27709 28115
" />
<path d="M27840 28115
L27840 28378
" />
<path d="M27840 28153
L27859 28134
L27896 28115
L27953 28115
L27990 28134
L28009 28171
L28009 28378
" />
<path d="M28365 28378
L28365 28171
L28346 28134
L28309 28115
L28234 28115
L28196 28134
" />
<path d="M28365 28359
L28328 28378
L28234 28378
L28196 28359
L28178 28321
L28178 28284
L28196 28246
L28234 28228
L28328 28228
L28365 28209
" />
<path d="M28853 28228
L29152 28228
" />
<path d="M26468 30184
L26468 30465
L26450 30521
L26412 30559
L26356 30578
L26318 30578
" />
<path d="M26712 30353
L26674 30334
L26656 30315
L26637 30278
L26637 30259
L26656 30221
L26674 30203
L26712 30184
L26787 30184
L26824 30203
L26843 30221
L26862 30259
L26862 30278
L26843 30315
L26824 30334
L26787 30353
L26712 30353
L26674 30371
L26656 30390
L26637 30428
L26637 30503
L26656 30540
L26674 30559
L26712 30578
L26787 30578
L26824 30559
L26843 30540
L26862 30503
L26862 30428
L26843 30390
L26824 30371
L26787 30353
" />
<path d="M24984 32578
L24759 32578
" />
<path d="M24872 32578
L24872 32184
L24834 32240
L24797 32278
L24759 32296
" />
<path d="M25153 32428
L25453 32428
" />
<path d="M25640 32315
L25640 32709
" />
<path d="M25640 32334
L25678 32315
L25753 32315
L25790 32334
L25809 32353
L25828 32390
L25828 32503
L25809 32540
L25790 32559
L25753 32578
L25678 32578
L25640 32559
" />
<path d="M26053 32578
L26015 32559
L25996 32540
L25978 32503
L25978 32390
L25996 32353
L26015 32334
L26053 32315
L26109 32315
L26146 32334
L26165 32353
L26184 32390
L26184 32503
L26165 32540
L26146 32559
L26109 32578
L26053 32578
" />
<path d="M26296 32315
L26446 32315
" />
<path d="M26353 32184
L26353 32521
L26371 32559
L26409 32578
L26446 32578
" />
<path d="M26578 32428
L26878 32428
" />
<path d="M27271 32578
L27046 32578
" />
<path d="M27159 32578
L27159 32184
L27121 32240
L27084 32278
L27046 32296
" />
<path d="M27515 32184
L27552 32184
L27590 32203
L27609 32221
L27627 32259
L27646 32334
L27646 32428
L27627 32503
L27609 32540
L27590 32559
L27552 32578
L27515 32578
L27477 32559
L27459 32540
L27440 32503
L27421 32428
L27421 32334
L27440 32259
L27459 32221
L27477 32203
L27515 32184
" />
<path d="M27815 32578
L27815 32184
" />
<path d="M28040 32578
L27871 32353
" />
<path d="M28040 32184
L27815 32409
" />
<path d="M32581 30184
L32581 30465
L32562 30521
L32525 30559
L32468 30578
L32431 30578
" />
<path d="M32974 30578
L32750 30578
" />
<path d="M32862 30578
L32862 30184
L32825 30240
L32787 30278
L32750 30296
" />
<path d="M33218 30184
L33256 30184
L33293 30203
L33312 30221
L33331 30259
L33349 30334
L33349 30428
L33331 30503
L33312 30540
L33293 30559
L33256 30578
L33218 30578
L33181 30559
L33162 30540
L33143 30503
L33124 30428
L33124 30334
L33143 30259
L33162 30221
L33181 30203
L33218 30184
" />
<path d="M31140 32184
L31384 32184
L31253 32334
L31309 32334
L31347 32353
L31365 32371
L31384 32409
L31384 32503
L31365 32540
L31347 32559
L31309 32578
L31197 32578
L31159 32559
L31140 32540
" />
<path d="M31553 32428
L31853 32428
" />
<path d="M32040 32315
L32040 32709
" />
<path d="M32040 32334
L32078 32315
L32153 32315
L32190 32334
L32209 32353
L32228 32390
L32228 32503
L32209 32540
L32190 32559
L32153 32578
L32078 32578
L32040 32559
" />
<path d="M32453 32578
L32415 32559
L32396 32540
L32378 32503
L32378 32390
L32396 32353
L32415 32334
L32453 32315
L32509 32315
L32546 32334
L32565 32353
L32584 32390
L32584 32503
L32565 32540
L32546 32559
L32509 32578
L32453 32578
" />
<path d="M32696 32315
L32846 32315
" />
<path d="M32753 32184
L32753 32521
L32771 32559
L32809 32578
L32846 32578
" />
<path d="M32978 32428
L33278 32428
" />
<path d="M33671 32578
L33446 32578
" />
<path d="M33559 32578
L33559 32184
L33521 32240
L33484 32278
L33446 32296
" />
<path d="M33915 32184
L33952 32184
L33990 32203
L34009 32221
L34027 32259
L34046 32334
L34046 32428
L34027 32503
L34009 32540
L33990 32559
L33952 32578
L33915 32578
L33877 32559
L33859 32540
L33840 32503
L33821 32428
L33821 32334
L33840 32259
L33859 32221
L33877 32203
L33915 32184
" />
<path d="M34215 32578
L34215 32184
" />
<path d="M34440 32578
L34271 32353
" />
<path d="M34440 32184
L34215 32409
" />
<path d="M36781 30184
L36781 30465
L36762 30521
L36725 30559
L36668 30578
L36631 30578
" />
<path d="M37174 30578
L36950 30578
" />
<path d="M37062 30578
L37062 30184
L37025 30240
L36987 30278
L36950 30296
" />
<path d="M37549 30578
L37324 30578
" />
<path d="M37437 30578
L37437 30184
L37399 30240
L37362 30278
L37324 30296
" />
<path d="M35572 32578
L35347 32578
" />
<path d="M35459 32578
L35459 32184
L35422 32240
L35384 32278
L35347 32296
" />
<path d="M35740 32428
L36040 32428
" />
<path d="M36228 32315
L36228 32709
" />
<path d="M36228 32334
L36265 32315
L36340 32315
L36378 32334
L36396 32353
L36415 32390
L36415 32503
L36396 32540
L36378 32559
L36340 32578
L36265 32578
L36228 32559
" />
<path d="M36640 32578
L36603 32559
L36584 32540
L36565 32503
L36565 32390
L36584 32353
L36603 32334
L36640 32315
L36696 32315
L36734 32334
L36753 32353
L36771 32390
L36771 32503
L36753 32540
L36734 32559
L36696 32578
L36640 32578
" />
<path d="M36884 32315
L37034 32315
" />
<path d="M36940 32184
L36940 32521
L36959 32559
L36996 32578
L37034 32578
" />
<path d="M37165 32428
L37465 32428
" />
<path d="M37859 32578
L37634 32578
" />
<path d="M37746 32578
L37746 32184
L37709 32240
L37671 32278
L37634 32296
" />
<path d="M38027 32578
L38027 32184
" />
<path d="M38252 32578
L38084 32353
" />
<path d="M38252 32184
L38027 32409
" />
<path d="M39081 30084
L39081 30365
L39062 30421
L39025 30459
L38968 30478
L38931 30478
" />
<path d="M39474 30478
L39250 30478
" />
<path d="M39362 30478
L39362 30084
L39325 30140
L39287 30178
L39250 30196
" />
<path d="M39624 30121
L39643 30103
L39681 30084
L39774 30084
L39812 30103
L39831 30121
L39849 30159
L39849 30196
L39831 30253
L39606 30478
L39849 30478
" />
<path d="M38047 32821
L38065 32803
L38103 32784
L38197 32784
L38234 32803
L38253 32821
L38272 32859
L38272 32896
L38253 32953
L38028 33178
L38272 33178
" />
<path d="M38440 33028
L38740 33028
" />
<path d="M38928 32915
L38928 33309
" />
<path d="M38928 32934
L38965 32915
L39040 32915
L39078 32934
L39096 32953
L39115 32990
L39115 33103
L39096 33140
L39078 33159
L39040 33178
L38965 33178
L38928 33159
" />
<path d="M39340 33178
L39303 33159
L39284 33140
L39265 33103
L39265 32990
L39284 32953
L39303 32934
L39340 32915
L39396 32915
L39434 32934
L39453 32953
L39471 32990
L39471 33103
L39453 33140
L39434 33159
L39396 33178
L39340 33178
" />
<path d="M39584 32915
L39734 32915
" />
<path d="M39640 32784
L39640 33121
L39659 33159
L39696 33178
L39734 33178
" />
<path d="M39865 33028
L40165 33028
" />
<path d="M40559 33178
L40334 33178
" />
<path d="M40446 33178
L40446 32784
L40409 32840
L40371 32878
L40334 32896
" />
<path d="M40727 33178
L40727 32784
" />
<path d="M40952 33178
L40784 32953
" />
<path d="M40952 32784
L40727 33009
" />
<path d="M41881 30670
L41881 30951
L41862 31007
L41825 31045
L41768 31063
L41731 31063
" />
<path d="M42274 31063
L42050 31063
" />
<path d="M42162 31063
L42162 30670
L42125 30726
L42087 30763
L42050 30782
" />
<path d="M42406 30670
L42649 30670
L42518 30820
L42574 30820
L42612 30838
L42631 30857
L42649 30895
L42649 30988
L42631 31026
L42612 31045
L42574 31063
L42462 31063
L42424 31045
L42406 31026
" />
<path d="M40528 32184
L40772 32184
L40640 32334
L40697 32334
L40734 32353
L40753 32371
L40772 32409
L40772 32503
L40753 32540
L40734 32559
L40697 32578
L40584 32578
L40547 32559
L40528 32540
" />
<path d="M40940 32428
L41240 32428
" />
<path d="M41428 32315
L41428 32709
" />
<path d="M41428 32334
L41465 32315
L41540 32315
L41578 32334
L41596 32353
L41615 32390
L41615 32503
L41596 32540
L41578 32559
L41540 32578
L41465 32578
L41428 32559
" />
<path d="M41840 32578
L41803 32559
L41784 32540
L41765 32503
L41765 32390
L41784 32353
L41803 32334
L41840 32315
L41896 32315
L41934 32334
L41953 32353
L41971 32390
L41971 32503
L41953 32540
L41934 32559
L41896 32578
L41840 32578
" />
<path d="M42084 32315
L42234 32315
" />
<path d="M42140 32184
L42140 32521
L42159 32559
L42196 32578
L42234 32578
" />
<path d="M42365 32428
L42665 32428
" />
<path d="M43059 32578
L42834 32578
" />
<path d="M42946 32578
L42946 32184
L42909 32240
L42871 32278
L42834 32296
" />
<path d="M43227 32578
L43227 32184
" />
<path d="M43452 32578
L43284 32353
" />
<path d="M43452 32184
L43227 32409
" />
<path d="M42881 22684
L42881 22965
L42862 23021
L42825 23059
L42768 23078
L42731 23078
" />
<path d="M43274 23078
L43050 23078
" />
<path d="M43162 23078
L43162 22684
L43125 22740
L43087 22778
L43050 22796
" />
<path d="M43612 22815
L43612 23078
" />
<path d="M43518 22665
L43424 22946
L43668 22946
" />
<path d="M42706 24271
L42575 24271
" />
<path d="M42575 24478
L42575 24084
L42762 24084
" />
<path d="M43081 24478
L43081 24271
L43062 24234
L43025 24215
L42950 24215
L42912 24234
" />
<path d="M43081 24459
L43043 24478
L42950 24478
L42912 24459
L42893 24421
L42893 24384
L42912 24346
L42950 24328
L43043 24328
L43081 24309
" />
<path d="M43268 24215
L43268 24478
" />
<path d="M43268 24253
L43287 24234
L43325 24215
L43381 24215
L43418 24234
L43437 24271
L43437 24478
" />
<path d="M43924 24328
L44224 24328
" />
<path d="M44074 24478
L44074 24178
" />
<path d="M41681 24370
L41681 24651
L41662 24707
L41625 24745
L41568 24763
L41531 24763
" />
<path d="M42074 24763
L41850 24763
" />
<path d="M41962 24763
L41962 24370
L41925 24426
L41887 24463
L41850 24482
" />
<path d="M42431 24370
L42243 24370
L42224 24557
L42243 24538
L42281 24520
L42374 24520
L42412 24538
L42431 24557
L42449 24595
L42449 24688
L42431 24726
L42412 24745
L42374 24763
L42281 24763
L42243 24745
L42224 24726
" />
<path d="M42406 26171
L42275 26171
" />
<path d="M42275 26378
L42275 25984
L42462 25984
" />
<path d="M42781 26378
L42781 26171
L42762 26134
L42725 26115
L42650 26115
L42612 26134
" />
<path d="M42781 26359
L42743 26378
L42650 26378
L42612 26359
L42593 26321
L42593 26284
L42612 26246
L42650 26228
L42743 26228
L42781 26209
" />
<path d="M42968 26115
L42968 26378
" />
<path d="M42968 26153
L42987 26134
L43025 26115
L43081 26115
L43118 26134
L43137 26171
L43137 26378
" />
<path d="M43624 26228
L43924 26228
" />
<path d="M41681 18670
L41681 18951
L41662 19007
L41625 19045
L41568 19063
L41531 19063
" />
<path d="M42074 19063
L41850 19063
" />
<path d="M41962 19063
L41962 18670
L41925 18726
L41887 18763
L41850 18782
" />
<path d="M42412 18670
L42337 18670
L42299 18688
L42281 18707
L42243 18763
L42224 18838
L42224 18988
L42243 19026
L42262 19045
L42299 19063
L42374 19063
L42412 19045
L42431 19026
L42449 18988
L42449 18895
L42431 18857
L42412 18838
L42374 18820
L42299 18820
L42262 18838
L42243 18857
L42224 18895
" />
<path d="M40250 19178
L40250 18915
" />
<path d="M40250 18990
L40268 18953
L40287 18934
L40325 18915
L40362 18915
" />
<path d="M40643 19159
L40606 19178
L40531 19178
L40493 19159
L40475 19121
L40475 18971
L40493 18934
L40531 18915
L40606 18915
L40643 18934
L40662 18971
L40662 19009
L40475 19046
" />
<path d="M40812 19159
L40850 19178
L40925 19178
L40962 19159
L40981 19121
L40981 19103
L40962 19065
L40925 19046
L40868 19046
L40831 19028
L40812 18990
L40812 18971
L40831 18934
L40868 18915
L40925 18915
L40962 18934
" />
<path d="M41449 19028
L41749 19028
" />
<path d="M41181 17170
L41181 17451
L41162 17507
L41125 17545
L41068 17563
L41031 17563
" />
<path d="M41574 17563
L41350 17563
" />
<path d="M41462 17563
L41462 17170
L41425 17226
L41387 17263
L41350 17282
" />
<path d="M41706 17170
L41968 17170
L41799 17563
" />
<path d="M39250 17678
L39250 17415
" />
<path d="M39250 17490
L39268 17453
L39287 17434
L39325 17415
L39362 17415
" />
<path d="M39643 17659
L39606 17678
L39531 17678
L39493 17659
L39475 17621
L39475 17471
L39493 17434
L39531 17415
L39606 17415
L39643 17434
L39662 17471
L39662 17509
L39475 17546
" />
<path d="M39812 17659
L39850 17678
L39925 17678
L39962 17659
L39981 17621
L39981 17603
L39962 17565
L39925 17546
L39868 17546
L39831 17528
L39812 17490
L39812 17471
L39831 17434
L39868 17415
L39925 17415
L39962 17434
" />
<path d="M40449 17528
L40749 17528
" />
<path d="M40599 17678
L40599 17378
" />
<path d="M40081 22184
L40081 22465
L40062 22521
L40025 22559
L39968 22578
L39931 22578
" />
<path d="M40474 22578
L40250 22578
" />
<path d="M40362 22578
L40362 22184
L40325 22240
L40287 22278
L40250 22296
" />
<path d="M40699 22353
L40662 22334
L40643 22315
L40624 22278
L40624 22259
L40643 22221
L40662 22203
L40699 22184
L40774 22184
L40812 22203
L40831 22221
L40849 22259
L40849 22278
L40831 22315
L40812 22334
L40774 22353
L40699 22353
L40662 22371
L40643 22390
L40624 22428
L40624 22503
L40643 22540
L40662 22559
L40699 22578
L40774 22578
L40812 22559
L40831 22540
L40849 22503
L40849 22428
L40831 22390
L40812 22371
L40774 22353
" />
<path d="M39675 24315
L39768 24578
L39862 24315
" />
<path d="M40181 24559
L40143 24578
L40068 24578
L40031 24559
L40012 24540
L39993 24503
L39993 24390
L40012 24353
L40031 24334
L40068 24315
L40143 24315
L40181 24334
" />
<path d="M40518 24559
L40481 24578
L40406 24578
L40368 24559
L40350 24540
L40331 24503
L40331 24390
L40350 24353
L40368 24334
L40406 24315
L40481 24315
L40518 24334
" />
<path d="M40987 24428
L41287 24428
" />
<path d="M41137 24578
L41137 24278
" />
<path d="M40481 24970
L40481 25251
L40462 25307
L40425 25345
L40368 25363
L40331 25363
" />
<path d="M40874 25363
L40650 25363
" />
<path d="M40762 25363
L40762 24970
L40725 25026
L40687 25063
L40650 25082
" />
<path d="M41062 25363
L41137 25363
L41174 25345
L41193 25326
L41231 25270
L41249 25195
L41249 25045
L41231 25007
L41212 24988
L41174 24970
L41099 24970
L41062 24988
L41043 25007
L41024 25045
L41024 25138
L41043 25176
L41062 25195
L41099 25213
L41174 25213
L41212 25195
L41231 25176
L41249 25138
" />
<path d="M39375 26615
L39468 26878
L39562 26615
" />
<path d="M39881 26859
L39843 26878
L39768 26878
L39731 26859
L39712 26840
L39693 26803
L39693 26690
L39712 26653
L39731 26634
L39768 26615
L39843 26615
L39881 26634
" />
<path d="M40218 26859
L40181 26878
L40106 26878
L40068 26859
L40050 26840
L40031 26803
L40031 26690
L40050 26653
L40068 26634
L40106 26615
L40181 26615
L40218 26634
" />
<path d="M40687 26728
L40987 26728
" />
<path d="M28911 21265
L28723 21396
" />
<path d="M28911 21490
L28517 21490
L28517 21340
L28536 21303
L28554 21284
L28592 21265
L28648 21265
L28686 21284
L28704 21303
L28723 21340
L28723 21490
" />
<path d="M28911 20890
L28911 21115
" />
<path d="M28911 21003
L28517 21003
L28573 21040
L28611 21078
L28629 21115
" />
<path d="M26715 21909
L26978 21909
" />
<path d="M26565 22003
L26846 22096
L26846 21853
" />
<path d="M26978 21703
L26584 21703
" />
<path d="M26978 21478
L26753 21646
" />
<path d="M26584 21478
L26809 21703
" />
<path d="M26584 21346
L26584 21084
L26978 21253
" />
<path d="M31884 21799
L32203 21799
L32240 21781
L32259 21762
L32278 21724
L32278 21649
L32259 21612
L32240 21593
L32203 21574
L31884 21574
" />
<path d="M32278 21181
L32278 21406
" />
<path d="M32278 21293
L31884 21293
L31940 21331
L31978 21368
L31996 21406
" />
<path d="M34384 22924
L34384 22699
" />
<path d="M34778 22812
L34384 22812
" />
<path d="M34778 22381
L34778 22568
L34384 22568
" />
<path d="M34740 22024
L34759 22043
L34778 22099
L34778 22137
L34759 22193
L34721 22231
L34684 22249
L34609 22268
L34553 22268
L34478 22249
L34440 22231
L34403 22193
L34384 22137
L34384 22099
L34403 22043
L34421 22024
" />
<path d="M34421 21874
L34403 21856
L34384 21818
L34384 21724
L34403 21687
L34421 21668
L34459 21649
L34496 21649
L34553 21668
L34778 21893
L34778 21649
" />
<path d="M34384 21518
L34384 21256
L34778 21425
" />
<path d="M34421 21125
L34403 21106
L34384 21068
L34384 20975
L34403 20937
L34421 20918
L34459 20900
L34496 20900
L34553 20918
L34778 21143
L34778 20900
" />
<path d="M34740 20506
L34759 20525
L34778 20581
L34778 20618
L34759 20675
L34721 20712
L34684 20731
L34609 20750
L34553 20750
L34478 20731
L34440 20712
L34403 20675
L34384 20618
L34384 20581
L34403 20525
L34421 20506
" />
<path d="M34778 20337
L34384 20337
L34384 20187
L34403 20150
L34421 20131
L34459 20112
L34515 20112
L34553 20131
L34571 20150
L34590 20187
L34590 20337
" />
<path d="M29814 23000
L29908 23000
" />
<path d="M29870 23093
L29908 23000
L29870 22906
" />
<path d="M29983 23056
L29908 23000
L29983 22943
" />
<path d="M37050 14784
L37050 15103
L37068 15140
L37087 15159
L37125 15178
L37200 15178
L37237 15159
L37256 15140
L37275 15103
L37275 14784
" />
<path d="M37443 14821
L37462 14803
L37499 14784
L37593 14784
L37631 14803
L37649 14821
L37668 14859
L37668 14896
L37649 14953
L37424 15178
L37668 15178
" />
<path d="M32003 17162
L32003 16768
L32134 17049
L32265 16768
L32265 17162
" />
<path d="M32397 16768
L32622 16768
" />
<path d="M32509 17162
L32509 16768
" />
<path d="M32753 17162
L32753 16768
L32903 16768
L32940 16787
L32959 16806
L32978 16843
L32978 16899
L32959 16937
L32940 16956
L32903 16974
L32753 16974
" />
<path d="M33353 17162
L33128 17162
" />
<path d="M33240 17162
L33240 16768
L33203 16824
L33165 16862
L33128 16881
" />
<path d="M33709 16768
L33522 16768
L33503 16956
L33522 16937
L33559 16918
L33653 16918
L33690 16937
L33709 16956
L33728 16993
L33728 17087
L33709 17124
L33690 17143
L33653 17162
L33559 17162
L33522 17143
L33503 17124
" />
<path d="M33896 17162
L33896 16768
L34121 17162
L34121 16768
" />
<path d="M34384 16768
L34421 16768
L34459 16787
L34478 16806
L34496 16843
L34515 16918
L34515 17012
L34496 17087
L34478 17124
L34459 17143
L34421 17162
L34384 17162
L34346 17143
L34328 17124
L34309 17087
L34290 17012
L34290 16918
L34309 16843
L34328 16806
L34346 16787
L34384 16768
" />
<path d="M34853 16768
L34778 16768
L34740 16787
L34721 16806
L34684 16862
L34665 16937
L34665 17087
L34684 17124
L34703 17143
L34740 17162
L34815 17162
L34853 17143
L34871 17124
L34890 17087
L34890 16993
L34871 16956
L34853 16937
L34815 16918
L34740 16918
L34703 16937
L34684 16956
L34665 16993
" />
<path d="M35059 17012
L35359 17012
" />
<path d="M35490 16768
L35715 16768
" />
<path d="M35602 17162
L35602 16768
" />
<path d="M35921 16768
L35996 16768
L36034 16787
L36071 16824
L36090 16899
L36090 17031
L36071 17106
L36034 17143
L35996 17162
L35921 17162
L35884 17143
L35846 17106
L35827 17031
L35827 16899
L35846 16824
L35884 16787
L35921 16768
" />
<path d="M36240 16806
L36259 16787
L36296 16768
L36390 16768
L36427 16787
L36446 16806
L36465 16843
L36465 16881
L36446 16937
L36221 17162
L36465 17162
" />
<path d="M36615 16806
L36634 16787
L36671 16768
L36765 16768
L36802 16787
L36821 16806
L36840 16843
L36840 16881
L36821 16937
L36596 17162
L36840 17162
" />
<path d="M37084 16768
L37121 16768
L37159 16787
L37177 16806
L37196 16843
L37215 16918
L37215 17012
L37196 17087
L37177 17124
L37159 17143
L37121 17162
L37084 17162
L37046 17143
L37027 17124
L37009 17087
L36990 17012
L36990 16918
L37009 16843
L37027 16806
L37046 16787
L37084 16768
" />
<g >
</g>
</g> 
</svg>
