<?xml version="1.0" standalone="no"?>
 <!DOCTYPE svg PUBLIC "-//W3C//DTD SVG 1.1//EN" 
 "http://www.w3.org/Graphics/SVG/1.1/DTD/svg11.dtd"> 
<svg xmlns="http://www.w3.org/2000/svg" version="1.1" 
    width="29.7002cm" height="21.0007cm" viewBox="0 0 116930 82680 ">
<title>SVG Picture created as cargaelectronica_ce3-B_Cu.svg date 2019/07/01 08:26:22 </title>
  <desc>Picture generated by PCBNEW </desc>
<g style="fill:#000000; fill-opacity:1;stroke:#000000; stroke-opacity:1;
stroke-linecap:round; stroke-linejoin:round; "
 transform="translate(0 0) scale(1 1)">
</g>
<g style="fill:#000000; fill-opacity:0.0; 
stroke:#000000; stroke-width:-0.000393701; stroke-opacity:1; 
stroke-linecap:round; stroke-linejoin:round;">
<g >
</g>
<g >
</g>
<g >
</g>
<g style="fill:#000000; fill-opacity:0.0; 
stroke:#000000; stroke-width:0; stroke-opacity:1; 
stroke-linecap:round; stroke-linejoin:round;">
</g>
<g style="fill:#000000; fill-opacity:1.0; 
stroke:#000000; stroke-width:0; stroke-opacity:1; 
stroke-linecap:round; stroke-linejoin:round;">
<path style="fill:#000000; fill-opacity:1.0; 
stroke:#000000; stroke-width:0; stroke-opacity:1; 
stroke-linecap:round; stroke-linejoin:round;fill-rule:evenodd;"
d="M 29032,31667
29032,31332
29367,31332
29367,31667
29032,31667
Z" /> 
</g>
<g >
<path style="fill:#000000; fill-opacity:1.0; 
stroke:#000000; stroke-width:0; stroke-opacity:1; 
stroke-linecap:round; stroke-linejoin:round;fill-rule:evenodd;"
d="M 38314,20685
38314,21314
37685,21314
37685,20685
38314,20685
Z" /> 
<circle cx="36031.5" cy="21000" r="314.961" /> 
</g>
<g style="fill:#000000; fill-opacity:1.0; 
stroke:#000000; stroke-width:393.701; stroke-opacity:1; 
stroke-linecap:round; stroke-linejoin:round;">
</g>
<g >
</g>
<g style="fill:#000000; fill-opacity:1.0; 
stroke:#000000; stroke-width:0; stroke-opacity:1; 
stroke-linecap:round; stroke-linejoin:round;">
<path style="fill:#000000; fill-opacity:1.0; 
stroke:#000000; stroke-width:0; stroke-opacity:1; 
stroke-linecap:round; stroke-linejoin:round;fill-rule:evenodd;"
d="M 36914,24485
36914,25114
36285,25114
36285,24485
36914,24485
Z" /> 
<circle cx="34631.5" cy="24800" r="314.961" /> 
</g>
<g style="fill:#000000; fill-opacity:1.0; 
stroke:#000000; stroke-width:393.701; stroke-opacity:1; 
stroke-linecap:round; stroke-linejoin:round;">
</g>
<g >
</g>
<g style="fill:#000000; fill-opacity:1.0; 
stroke:#000000; stroke-width:0; stroke-opacity:1; 
stroke-linecap:round; stroke-linejoin:round;">
<path style="fill:#000000; fill-opacity:1.0; 
stroke:#000000; stroke-width:0; stroke-opacity:1; 
stroke-linecap:round; stroke-linejoin:round;fill-rule:evenodd;"
d="M 24332,19667
24332,19332
24667,19332
24667,19667
24332,19667
Z" /> 
</g>
<g >
<path style="fill:#000000; fill-opacity:1.0; 
stroke:#000000; stroke-width:0; stroke-opacity:1; 
stroke-linecap:round; stroke-linejoin:round;fill-rule:evenodd;"
d="M 24332,21667
24332,21332
24667,21332
24667,21667
24332,21667
Z" /> 
</g>
<g >
<path style="fill:#000000; fill-opacity:1.0; 
stroke:#000000; stroke-width:0; stroke-opacity:1; 
stroke-linecap:round; stroke-linejoin:round;fill-rule:evenodd;"
d="M 24332,23667
24332,23332
24667,23332
24667,23667
24332,23667
Z" /> 
</g>
<g >
<path style="fill:#000000; fill-opacity:1.0; 
stroke:#000000; stroke-width:0; stroke-opacity:1; 
stroke-linecap:round; stroke-linejoin:round;fill-rule:evenodd;"
d="M 24332,25667
24332,25332
24667,25332
24667,25667
24332,25667
Z" /> 
</g>
<g >
<path style="fill:#000000; fill-opacity:1.0; 
stroke:#000000; stroke-width:0; stroke-opacity:1; 
stroke-linecap:round; stroke-linejoin:round;fill-rule:evenodd;"
d="M 24332,27167
24332,26832
24667,26832
24667,27167
24332,27167
Z" /> 
</g>
<g >
<path style="fill:#000000; fill-opacity:1.0; 
stroke:#000000; stroke-width:0; stroke-opacity:1; 
stroke-linecap:round; stroke-linejoin:round;fill-rule:evenodd;"
d="M 28332,16167
28332,15832
28667,15832
28667,16167
28332,16167
Z" /> 
</g>
<g >
<path style="fill:#000000; fill-opacity:1.0; 
stroke:#000000; stroke-width:0; stroke-opacity:1; 
stroke-linecap:round; stroke-linejoin:round;fill-rule:evenodd;"
d="M 25632,29167
25632,28832
25967,28832
25967,29167
25632,29167
Z" /> 
</g>
<g >
<path style="fill:#000000; fill-opacity:1.0; 
stroke:#000000; stroke-width:0; stroke-opacity:1; 
stroke-linecap:round; stroke-linejoin:round;fill-rule:evenodd;"
d="M 25532,31667
25532,31332
25867,31332
25867,31667
25532,31667
Z" /> 
</g>
<g >
<path style="fill:#000000; fill-opacity:1.0; 
stroke:#000000; stroke-width:0; stroke-opacity:1; 
stroke-linecap:round; stroke-linejoin:round;fill-rule:evenodd;"
d="M 32032,31667
32032,31332
32367,31332
32367,31667
32032,31667
Z" /> 
</g>
<g >
<path style="fill:#000000; fill-opacity:1.0; 
stroke:#000000; stroke-width:0; stroke-opacity:1; 
stroke-linecap:round; stroke-linejoin:round;fill-rule:evenodd;"
d="M 36532,31667
36532,31332
36867,31332
36867,31667
36532,31667
Z" /> 
</g>
<g >
<path style="fill:#000000; fill-opacity:1.0; 
stroke:#000000; stroke-width:0; stroke-opacity:1; 
stroke-linecap:round; stroke-linejoin:round;fill-rule:evenodd;"
d="M 39532,31667
39532,31332
39867,31332
39867,31667
39532,31667
Z" /> 
</g>
<g >
<path style="fill:#000000; fill-opacity:1.0; 
stroke:#000000; stroke-width:0; stroke-opacity:1; 
stroke-linecap:round; stroke-linejoin:round;fill-rule:evenodd;"
d="M 42032,31667
42032,31332
42367,31332
42367,31667
42032,31667
Z" /> 
</g>
<g >
<path style="fill:#000000; fill-opacity:1.0; 
stroke:#000000; stroke-width:0; stroke-opacity:1; 
stroke-linecap:round; stroke-linejoin:round;fill-rule:evenodd;"
d="M 41832,23567
41832,23232
42167,23232
42167,23567
41832,23567
Z" /> 
</g>
<g >
<path style="fill:#000000; fill-opacity:1.0; 
stroke:#000000; stroke-width:0; stroke-opacity:1; 
stroke-linecap:round; stroke-linejoin:round;fill-rule:evenodd;"
d="M 41832,25367
41832,25032
42167,25032
42167,25367
41832,25367
Z" /> 
</g>
<g >
<path style="fill:#000000; fill-opacity:1.0; 
stroke:#000000; stroke-width:0; stroke-opacity:1; 
stroke-linecap:round; stroke-linejoin:round;fill-rule:evenodd;"
d="M 41832,19667
41832,19332
42167,19332
42167,19667
41832,19667
Z" /> 
</g>
<g >
<path style="fill:#000000; fill-opacity:1.0; 
stroke:#000000; stroke-width:0; stroke-opacity:1; 
stroke-linecap:round; stroke-linejoin:round;fill-rule:evenodd;"
d="M 41332,18167
41332,17832
41667,17832
41667,18167
41332,18167
Z" /> 
</g>
<g >
<path style="fill:#000000; fill-opacity:1.0; 
stroke:#000000; stroke-width:0; stroke-opacity:1; 
stroke-linecap:round; stroke-linejoin:round;fill-rule:evenodd;"
d="M 40632,23567
40632,23232
40967,23232
40967,23567
40632,23567
Z" /> 
</g>
<g >
<path style="fill:#000000; fill-opacity:1.0; 
stroke:#000000; stroke-width:0; stroke-opacity:1; 
stroke-linecap:round; stroke-linejoin:round;fill-rule:evenodd;"
d="M 40632,25967
40632,25632
40967,25632
40967,25967
40632,25967
Z" /> 
</g>
<g >
<path style="fill:#000000; fill-opacity:1.0; 
stroke:#000000; stroke-width:0; stroke-opacity:1; 
stroke-linecap:round; stroke-linejoin:round;fill-rule:evenodd;"
d="M 27485,18885
28114,18885
28114,19514
27485,19514
27485,18885
Z" /> 
</g>
<g style="fill:#000000; fill-opacity:1.0; 
stroke:#000000; stroke-width:629.921; stroke-opacity:1; 
stroke-linecap:round; stroke-linejoin:round;">
</g>
<g style="fill:#000000; fill-opacity:0.0; 
stroke:#000000; stroke-width:629.921; stroke-opacity:1; 
stroke-linecap:round; stroke-linejoin:round;">
<path d="M27800 23200
L27800 23200
" />
</g>
<g >
</g>
<g style="fill:#000000; fill-opacity:0.0; 
stroke:#000000; stroke-width:0; stroke-opacity:1; 
stroke-linecap:round; stroke-linejoin:round;">
</g>
<g style="fill:#000000; fill-opacity:1.0; 
stroke:#000000; stroke-width:0; stroke-opacity:1; 
stroke-linecap:round; stroke-linejoin:round;">
<path style="fill:#000000; fill-opacity:1.0; 
stroke:#000000; stroke-width:0; stroke-opacity:1; 
stroke-linecap:round; stroke-linejoin:round;fill-rule:evenodd;"
d="M 30870,23270
30330,23270
30330,22730
30870,22730
30870,23270
Z" /> 
<circle cx="31600" cy="23000" r="270" /> 
</g>
<g style="fill:#000000; fill-opacity:1.0; 
stroke:#000000; stroke-width:393.701; stroke-opacity:1; 
stroke-linecap:round; stroke-linejoin:round;">
</g>
<g style="fill:#000000; fill-opacity:1.0; 
stroke:#000000; stroke-width:0; stroke-opacity:1; 
stroke-linecap:round; stroke-linejoin:round;">
<circle cx="32600" cy="23000" r="270" /> 
</g>
<g style="fill:#000000; fill-opacity:1.0; 
stroke:#000000; stroke-width:393.701; stroke-opacity:1; 
stroke-linecap:round; stroke-linejoin:round;">
</g>
<g style="fill:#000000; fill-opacity:1.0; 
stroke:#000000; stroke-width:0; stroke-opacity:1; 
stroke-linecap:round; stroke-linejoin:round;">
<circle cx="33600" cy="23000" r="270" /> 
</g>
<g style="fill:#000000; fill-opacity:1.0; 
stroke:#000000; stroke-width:393.701; stroke-opacity:1; 
stroke-linecap:round; stroke-linejoin:round;">
</g>
<g style="fill:#000000; fill-opacity:1.0; 
stroke:#000000; stroke-width:0; stroke-opacity:1; 
stroke-linecap:round; stroke-linejoin:round;">
<circle cx="33600" cy="20000" r="270" /> 
</g>
<g style="fill:#000000; fill-opacity:1.0; 
stroke:#000000; stroke-width:393.701; stroke-opacity:1; 
stroke-linecap:round; stroke-linejoin:round;">
</g>
<g style="fill:#000000; fill-opacity:1.0; 
stroke:#000000; stroke-width:0; stroke-opacity:1; 
stroke-linecap:round; stroke-linejoin:round;">
<circle cx="32600" cy="20000" r="270" /> 
</g>
<g style="fill:#000000; fill-opacity:1.0; 
stroke:#000000; stroke-width:393.701; stroke-opacity:1; 
stroke-linecap:round; stroke-linejoin:round;">
</g>
<g style="fill:#000000; fill-opacity:1.0; 
stroke:#000000; stroke-width:0; stroke-opacity:1; 
stroke-linecap:round; stroke-linejoin:round;">
<circle cx="31600" cy="20000" r="270" /> 
</g>
<g style="fill:#000000; fill-opacity:1.0; 
stroke:#000000; stroke-width:393.701; stroke-opacity:1; 
stroke-linecap:round; stroke-linejoin:round;">
</g>
<g style="fill:#000000; fill-opacity:1.0; 
stroke:#000000; stroke-width:0; stroke-opacity:1; 
stroke-linecap:round; stroke-linejoin:round;">
<circle cx="30600" cy="20000" r="270" /> 
</g>
<g style="fill:#000000; fill-opacity:1.0; 
stroke:#000000; stroke-width:393.701; stroke-opacity:1; 
stroke-linecap:round; stroke-linejoin:round;">
</g>
<g >
</g>
<g style="fill:#000000; fill-opacity:1.0; 
stroke:#000000; stroke-width:0; stroke-opacity:1; 
stroke-linecap:round; stroke-linejoin:round;">
<path style="fill:#000000; fill-opacity:1.0; 
stroke:#000000; stroke-width:0; stroke-opacity:1; 
stroke-linecap:round; stroke-linejoin:round;fill-rule:evenodd;"
d="M 33225,18393
33225,17606
33975,17606
33975,18393
33225,18393
Z" /> 
</g>
<g style="fill:#000000; fill-opacity:1.0; 
stroke:#000000; stroke-width:750; stroke-opacity:1; 
stroke-linecap:round; stroke-linejoin:round;">
</g>
<g style="fill:#000000; fill-opacity:0.0; 
stroke:#000000; stroke-width:750; stroke-opacity:1; 
stroke-linecap:round; stroke-linejoin:round;">
<path d="M34600 15981
L34600 16018
" />
<path d="M35600 17981
L35600 18018
" />
</g>
<g >
</g>
<g style="fill:#000000; fill-opacity:1.0; 
stroke:#000000; stroke-width:0; stroke-opacity:1; 
stroke-linecap:round; stroke-linejoin:round;">
<circle cx="29000" cy="21200" r="157.48" /> 
</g>
<g style="fill:#000000; fill-opacity:1.0; 
stroke:#000000; stroke-width:393.701; stroke-opacity:1; 
stroke-linecap:round; stroke-linejoin:round;">
</g>
<g style="fill:#000000; fill-opacity:1.0; 
stroke:#000000; stroke-width:0; stroke-opacity:1; 
stroke-linecap:round; stroke-linejoin:round;">
<circle cx="34800" cy="21200" r="157.48" /> 
</g>
<g style="fill:#000000; fill-opacity:1.0; 
stroke:#000000; stroke-width:393.701; stroke-opacity:1; 
stroke-linecap:round; stroke-linejoin:round;">
</g>
<g style="fill:#000000; fill-opacity:1.0; 
stroke:#000000; stroke-width:0; stroke-opacity:1; 
stroke-linecap:round; stroke-linejoin:round;">
<circle cx="30600" cy="24800" r="157.48" /> 
</g>
<g style="fill:#000000; fill-opacity:1.0; 
stroke:#000000; stroke-width:393.701; stroke-opacity:1; 
stroke-linecap:round; stroke-linejoin:round;">
</g>
<g style="fill:#000000; fill-opacity:1.0; 
stroke:#000000; stroke-width:0; stroke-opacity:1; 
stroke-linecap:round; stroke-linejoin:round;">
<circle cx="32600" cy="24800" r="157.48" /> 
</g>
<g style="fill:#000000; fill-opacity:1.0; 
stroke:#000000; stroke-width:393.701; stroke-opacity:1; 
stroke-linecap:round; stroke-linejoin:round;">
</g>
<g style="fill:#000000; fill-opacity:1.0; 
stroke:#000000; stroke-width:0; stroke-opacity:1; 
stroke-linecap:round; stroke-linejoin:round;">
<circle cx="33600" cy="24000" r="157.48" /> 
</g>
<g style="fill:#000000; fill-opacity:1.0; 
stroke:#000000; stroke-width:393.701; stroke-opacity:1; 
stroke-linecap:round; stroke-linejoin:round;">
</g>
<g style="fill:#000000; fill-opacity:1.0; 
stroke:#000000; stroke-width:0; stroke-opacity:1; 
stroke-linecap:round; stroke-linejoin:round;">
<circle cx="33600" cy="29200" r="157.48" /> 
</g>
<g style="fill:#000000; fill-opacity:1.0; 
stroke:#000000; stroke-width:393.701; stroke-opacity:1; 
stroke-linecap:round; stroke-linejoin:round;">
</g>
<g style="fill:#000000; fill-opacity:1.0; 
stroke:#000000; stroke-width:0; stroke-opacity:1; 
stroke-linecap:round; stroke-linejoin:round;">
<circle cx="29200" cy="31500" r="157.48" /> 
</g>
<g style="fill:#000000; fill-opacity:1.0; 
stroke:#000000; stroke-width:393.701; stroke-opacity:1; 
stroke-linecap:round; stroke-linejoin:round;">
</g>
<g >
</g>
<g style="fill:#000000; fill-opacity:0.0; 
stroke:#000000; stroke-width:393.701; stroke-opacity:1; 
stroke-linecap:round; stroke-linejoin:round;">
<path d="M24500 23500
L24500 25500
" />
<path d="M38000 21000
L39200 21000
" />
<path d="M39200 21000
L39400 21200
" />
<path d="M40800 25238
L40800 25800
" />
<path d="M39400 23838
L40800 25238
" />
<path d="M39400 21200
L39400 23838
" />
<path d="M40800 25800
L40800 27600
" />
<path d="M40800 27600
L42200 29000
" />
<path d="M42200 29000
L42200 31500
" />
<path d="M38000 21708
L38000 21000
" />
<path d="M36708 23000
L38000 21708
" />
<path d="M33600 23000
L36708 23000
" />
<path d="M28159 23948
L29000 23107
" />
<path d="M27440 23948
L28159 23948
" />
<path d="M24500 23500
L26992 23500
" />
<path d="M26992 23500
L27440 23948
" />
<path d="M29000 23107
L29000 21200
" />
<path d="M34800 21800
L33600 23000
" />
<path d="M34800 21200
L34800 21800
" />
<path d="M38000 20291
L38000 21000
" />
<path d="M38791 19500
L38000 20291
" />
<path d="M42000 19500
L38791 19500
" />
<path d="M41400 25200
L40800 25800
" />
<path d="M42000 25200
L41400 25200
" />
<path d="M25500 21500
L27800 19200
" />
<path d="M24500 21500
L25500 21500
" />
<path d="M30869 19730
L30600 20000
" />
<path d="M31773 18826
L30869 19730
" />
<path d="M34408 18740
L34321 18826
" />
<path d="M34321 18826
L31773 18826
" />
<path d="M34408 17259
L34408 18740
" />
<path d="M34321 17173
L34408 17259
" />
<path d="M27800 19200
L29826 17173
" />
<path d="M32878 17173
L34173 17173
" />
<path d="M36031 19531
L36031 21000
" />
<path d="M36692 18870
L36031 19531
" />
<path d="M37830 18870
L36692 18870
" />
<path d="M32878 17173
L41787 17173
" />
<path d="M41787 17173
L42100 17486
" />
<path d="M42100 17486
L42100 18491
" />
<path d="M42100 18491
L41991 18600
" />
<path d="M41991 18600
L38100 18600
" />
<path d="M38100 18600
L37830 18870
" />
<path d="M29826 17173
L30326 17173
" />
<path d="M30326 17173
L32878 17173
" />
<path d="M40800 23400
L42000 23400
" />
<path d="M42214 18600
L41991 18600
" />
<path d="M42629 19015
L42214 18600
" />
<path d="M42629 22209
L42629 19015
" />
<path d="M42000 22838
L42629 22209
" />
<path d="M42000 23400
L42000 22838
" />
</g>
<g style="fill:#000000; fill-opacity:0.0; 
stroke:#000000; stroke-width:314.961; stroke-opacity:1; 
stroke-linecap:round; stroke-linejoin:round;">
<path d="M35600 18018
L35600 18000
" />
<path d="M35600 19000
L31600 23000
" />
<path d="M35600 18000
L35600 19000
" />
<path d="M31600 23000
L31600 26000
" />
<path d="M31600 26000
L33200 27600
" />
<path d="M33200 27600
L38400 27600
" />
<path d="M38400 27600
L38400 25200
" />
<path d="M38000 24800
L36600 24800
" />
<path d="M38400 25200
L38000 24800
" />
<path d="M35600 18000
L41500 18000
" />
<path d="M30600 22415
L30600 23000
" />
<path d="M29936 21751
L30600 22415
" />
<path d="M29936 19681
L29936 21751
" />
<path d="M31617 18000
L29936 19681
" />
<path d="M33600 18000
L31617 18000
" />
<path d="M30600 23584
L30400 23784
" />
<path d="M30600 23000
L30600 23584
" />
<path d="M30400 23784
L30400 24600
" />
<path d="M30400 24600
L30600 24800
" />
<path d="M32600 24800
L34631 24800
" />
<path d="M24500 19017
L24500 19500
" />
<path d="M27517 16000
L24500 19017
" />
<path d="M28500 16000
L27517 16000
" />
<path d="M28500 16000
L34600 16000
" />
<path d="M24500 27700
L25800 29000
" />
<path d="M24500 27000
L24500 27700
" />
<path d="M27200 22600
L23600 22600
" />
<path d="M27800 23200
L27200 22600
" />
<path d="M23600 22600
L23000 23200
" />
<path d="M23000 23200
L23000 28317
" />
<path d="M25700 31017
L25700 31500
" />
<path d="M23000 28317
L25700 31017
" />
<path d="M32600 23000
L33600 24000
" />
<path d="M29200 31017
L29200 31500
" />
<path d="M31017 29200
L29200 31017
" />
<path d="M33600 29200
L31017 29200
" />
<path d="M32200 31500
L36300 31500
" />
<path d="M36300 31500
L39700 31500
" />
</g>
<g >
</g>
<g style="fill:#000000; fill-opacity:1.0; 
stroke:#000000; stroke-width:100; stroke-opacity:1; 
stroke-linecap:round; stroke-linejoin:round;">
<path style="fill:#000000; fill-opacity:1.0; 
stroke:#000000; stroke-width:100; stroke-opacity:1; 
stroke-linecap:round; stroke-linejoin:round;fill-rule:evenodd;"
d="M 44350,33750
22250,33750
22250,32713
22320,32713
22320,32886
22353,33056
22420,33216
22516,33360
22639,33483
22783,33579
22943,33646
23113,33679
23286,33679
23456,33646
23616,33579
23760,33483
23883,33360
23979,33216
24046,33056
24079,32886
24079,32713
24046,32543
23979,32383
23883,32239
23760,32116
23616,32020
23456,31953
23286,31920
23113,31920
22943,31953
22783,32020
22639,32116
22516,32239
22420,32383
22353,32543
22320,32713
22250,32713
22250,23200
22590,23200
22592,23220
22592,28297
22590,28317
22598,28397
22621,28474
22659,28545
22693,28586
22710,28607
22726,28620
25292,31186
25292,31263
25286,31283
25281,31332
25281,31667
25286,31716
25300,31763
25323,31806
25355,31844
25393,31876
25436,31899
25483,31913
25532,31918
25867,31918
25916,31913
25963,31899
26006,31876
26044,31844
26076,31806
26099,31763
26113,31716
26118,31667
26118,31332
28781,31332
28781,31667
28786,31716
28800,31763
28823,31806
28855,31844
28893,31876
28936,31899
28983,31913
29032,31918
29367,31918
29416,31913
29463,31899
29506,31876
29544,31844
29576,31806
29599,31763
29613,31716
29618,31667
29618,31332
31781,31332
31781,31667
31786,31716
31800,31763
31823,31806
31855,31844
31893,31876
31936,31899
31983,31913
32032,31918
32367,31918
32416,31913
32436,31907
36463,31907
36483,31913
36532,31918
36867,31918
36916,31913
36936,31907
39463,31907
39483,31913
39532,31918
39867,31918
39916,31913
39963,31899
40006,31876
40044,31844
40076,31806
40099,31763
40113,31716
40118,31667
41781,31667
41786,31716
41800,31763
41823,31806
41855,31844
41893,31876
41936,31899
41983,31913
42032,31918
42087,31917
42150,31854
42150,31550
42250,31550
42250,31854
42312,31917
42367,31918
42416,31913
42463,31899
42506,31876
42544,31844
42576,31806
42599,31763
42613,31716
42618,31667
42617,31612
42554,31550
42250,31550
42150,31550
41845,31550
41782,31612
41781,31667
40118,31667
40118,31332
41781,31332
41782,31387
41845,31450
42150,31450
42150,31145
42250,31145
42250,31450
42554,31450
42617,31387
42618,31332
42613,31283
42599,31236
42576,31193
42544,31155
42506,31123
42463,31100
42416,31086
42367,31081
42312,31082
42250,31145
42150,31145
42087,31082
42032,31081
41983,31086
41936,31100
41893,31123
41855,31155
41823,31193
41800,31236
41786,31283
41781,31332
40118,31332
40113,31283
40099,31236
40076,31193
40044,31155
40006,31123
39963,31100
39916,31086
39867,31081
39532,31081
39483,31086
39463,31092
36936,31092
36916,31086
36867,31081
36532,31081
36483,31086
36463,31092
32436,31092
32416,31086
32367,31081
32032,31081
31983,31086
31936,31100
31893,31123
31855,31155
31823,31193
31800,31236
31786,31283
31781,31332
29618,31332
29613,31283
29607,31263
29607,31186
31186,29607
33640,29607
33659,29603
33679,29601
33699,29595
33718,29591
33737,29584
33756,29578
33774,29568
33793,29561
33809,29549
33827,29540
33843,29527
33859,29516
33873,29502
33889,29489
33902,29473
33916,29459
33927,29443
33940,29427
33949,29409
33961,29393
33968,29374
33978,29356
33984,29337
33991,29318
33995,29299
34001,29279
34003,29259
34007,29240
34007,29220
34009,29200
34007,29179
34007,29159
34003,29140
34001,29120
33995,29100
33991,29081
33984,29062
33978,29043
33968,29025
33961,29006
33949,28990
33940,28972
33927,28956
33916,28940
33902,28926
33889,28910
33873,28897
33859,28883
33843,28872
33827,28859
33809,28850
33793,28838
33774,28831
33756,28821
33737,28815
33718,28808
33699,28804
33679,28798
33659,28796
33640,28792
31037,28792
31017,28790
30997,28792
30997,28792
30937,28798
30861,28821
30840,28832
30790,28859
30743,28897
30728,28910
30715,28926
28926,30715
28910,30728
28859,30790
28821,30861
28798,30937
28792,30997
28792,30997
28790,31017
28792,31037
28792,31263
28786,31283
28781,31332
26118,31332
26113,31283
26107,31263
26107,31037
26109,31017
26107,30997
26101,30937
26083,30878
26078,30861
26040,30790
26002,30743
25989,30728
25973,30715
23407,28148
23407,26832
24081,26832
24081,27167
24086,27216
24092,27236
24092,27679
24090,27700
24098,27779
24121,27856
24159,27927
24197,27973
24210,27989
24226,28002
25381,29157
25381,29167
25386,29216
25400,29263
25423,29306
25455,29344
25493,29376
25536,29399
25583,29413
25632,29418
25967,29418
26016,29413
26063,29399
26106,29376
26144,29344
26176,29306
26199,29263
26213,29216
26218,29167
26218,28832
26213,28783
26199,28736
26176,28693
26144,28655
26106,28623
26063,28600
26016,28586
25967,28581
25957,28581
24907,27531
24907,27236
24913,27216
24918,27167
24918,26832
24913,26783
24899,26736
24876,26693
24844,26655
24806,26623
24763,26600
24716,26586
24667,26581
24332,26581
24283,26586
24236,26600
24193,26623
24155,26655
24123,26693
24100,26736
24086,26783
24081,26832
23407,26832
23407,25667
24081,25667
24086,25716
24100,25763
24123,25806
24155,25844
24193,25876
24236,25899
24283,25913
24332,25918
24387,25917
24450,25854
24450,25550
24550,25550
24550,25854
24612,25917
24667,25918
24716,25913
24763,25899
24806,25876
24844,25844
24876,25806
24899,25763
24913,25716
24918,25667
24917,25612
24854,25550
24550,25550
24450,25550
24145,25550
24082,25612
24081,25667
23407,25667
23407,25332
24081,25332
24082,25387
24145,25450
24450,25450
24450,25145
24550,25145
24550,25450
24854,25450
24917,25387
24918,25332
24913,25283
24899,25236
24876,25193
24844,25155
24806,25123
24763,25100
24716,25086
24667,25081
24612,25082
24550,25145
24450,25145
24387,25082
24332,25081
24283,25086
24236,25100
24193,25123
24155,25155
24123,25193
24100,25236
24086,25283
24081,25332
23407,25332
23407,23667
24081,23667
24086,23716
24100,23763
24123,23806
24155,23844
24193,23876
24236,23899
24283,23913
24332,23918
24387,23917
24450,23854
24450,23550
24550,23550
24550,23854
24612,23917
24667,23918
24716,23913
24763,23899
24806,23876
24844,23844
24876,23806
24899,23763
24913,23716
24918,23667
24917,23612
24854,23550
24550,23550
24450,23550
24145,23550
24082,23612
24081,23667
23407,23667
23407,23368
23443,23332
24081,23332
24082,23387
24145,23450
24450,23450
24450,23145
24550,23145
24550,23450
24854,23450
24917,23387
24918,23332
24913,23283
24899,23236
24876,23193
24844,23155
24806,23123
24763,23100
24716,23086
24667,23081
24612,23082
24550,23145
24450,23145
24387,23082
24332,23081
24283,23086
24236,23100
24193,23123
24155,23155
24123,23193
24100,23236
24086,23283
24081,23332
23443,23332
23768,23007
27031,23007
27233,23209
27243,23310
27275,23417
27327,23515
27398,23601
27484,23672
27582,23724
27689,23756
27772,23764
27827,23764
27910,23756
28017,23724
28115,23672
28201,23601
28272,23515
28324,23417
28356,23310
28367,23200
28356,23089
28324,22982
28272,22884
28201,22798
28115,22727
28017,22675
27910,22643
27827,22635
27811,22635
27502,22326
27489,22310
27427,22259
27356,22221
27279,22198
27220,22192
27220,22192
27200,22190
27179,22192
23620,22192
23599,22190
23579,22192
23579,22192
23520,22198
23443,22221
23372,22259
23310,22310
23297,22326
22726,22897
22710,22910
22659,22972
22621,23043
22598,23120
22592,23179
22592,23179
22590,23200
22250,23200
22250,21500
24050,21500
24059,21587
24081,21659
24081,21667
24086,21716
24100,21763
24123,21806
24155,21844
24193,21876
24236,21899
24283,21913
24332,21918
24340,21918
24412,21940
24478,21946
25478,21946
25500,21949
25521,21946
25521,21946
25587,21940
25671,21914
25749,21873
25817,21817
25831,21800
27865,19766
28114,19766
28163,19761
28211,19747
28254,19723
28292,19692
28323,19654
28347,19611
28361,19563
28366,19514
28366,19265
30011,17620
31466,17620
31461,17621
31390,17659
31328,17710
31315,17726
29662,19379
29646,19391
29595,19453
29558,19524
29534,19601
29528,19661
29528,19661
29526,19681
29528,19701
29528,21731
29526,21751
29534,21831
29558,21908
29595,21978
29624,22013
29646,22040
29662,22053
30157,22548
30152,22552
30121,22590
30097,22633
30083,22680
30078,22730
30078,23270
30083,23319
30097,23366
30121,23409
30152,23447
30157,23451
30126,23482
30110,23495
30059,23557
30021,23628
29998,23705
29992,23764
29992,23764
29990,23784
29992,23804
29992,24579
29990,24600
29998,24679
30021,24756
30059,24827
30097,24873
30110,24889
30126,24902
30283,25059
30283,25059
30340,25116
30356,25127
30372,25140
30390,25149
30406,25161
30425,25168
30443,25178
30462,25184
30481,25191
30500,25195
30520,25201
30540,25203
30559,25207
30579,25207
30599,25209
30620,25207
30640,25207
30659,25203
30679,25201
30699,25195
30718,25191
30737,25184
30756,25178
30774,25168
30793,25161
30809,25149
30827,25140
30843,25127
30859,25116
30873,25102
30889,25089
30902,25073
30916,25059
30927,25043
30940,25027
30949,25009
30961,24993
30968,24974
30978,24956
30984,24937
30991,24918
30995,24899
31001,24879
31003,24859
31007,24840
31007,24820
31009,24799
31007,24779
31007,24759
31003,24740
31001,24720
30995,24700
30991,24681
30984,24662
30978,24643
30968,24625
30961,24606
30949,24590
30940,24572
30927,24556
30916,24540
30859,24483
30859,24483
30807,24431
30807,23953
30873,23887
30889,23874
30940,23812
30978,23741
31001,23664
31007,23604
31007,23604
31009,23584
31007,23564
31007,23479
31009,23478
31047,23447
31078,23409
31102,23366
31116,23319
31121,23270
31121,23202
31139,23246
31192,23326
31192,25979
31190,26000
31198,26079
31221,26156
31259,26227
31297,26273
31310,26289
31326,26302
32897,27873
32910,27889
32926,27902
32972,27940
33010,27960
33043,27978
33120,28001
33179,28007
33179,28007
33200,28009
33220,28007
38379,28007
38400,28009
38420,28007
38479,28001
38556,27978
38627,27940
38689,27889
38740,27827
38778,27756
38801,27679
38809,27600
38807,27579
38807,25967
40381,25967
40386,26016
40400,26063
40423,26106
40455,26144
40493,26176
40536,26199
40583,26213
40632,26218
40687,26217
40750,26154
40750,25850
40850,25850
40850,26154
40912,26217
40967,26218
41016,26213
41063,26199
41106,26176
41144,26144
41176,26106
41199,26063
41213,26016
41218,25967
41217,25912
41154,25850
40850,25850
40750,25850
40445,25850
40382,25912
40381,25967
38807,25967
38807,25632
40381,25632
40382,25687
40445,25750
40750,25750
40750,25445
40850,25445
40850,25750
41154,25750
41217,25687
41218,25632
41213,25583
41199,25536
41176,25493
41144,25455
41106,25423
41063,25400
41016,25386
40967,25381
40912,25382
40850,25445
40750,25445
40687,25382
40632,25381
40583,25386
40536,25400
40493,25423
40455,25455
40423,25493
40400,25536
40386,25583
40381,25632
38807,25632
38807,25367
41581,25367
41586,25416
41600,25463
41623,25506
41655,25544
41693,25576
41736,25599
41783,25613
41832,25618
41887,25617
41950,25554
41950,25250
42050,25250
42050,25554
42112,25617
42167,25618
42216,25613
42263,25599
42306,25576
42344,25544
42376,25506
42399,25463
42413,25416
42418,25367
42417,25312
42354,25250
42050,25250
41950,25250
41645,25250
41582,25312
41581,25367
38807,25367
38807,25220
38809,25200
38805,25163
38801,25120
38778,25043
38772,25032
41581,25032
41582,25087
41645,25150
41950,25150
41950,24845
42050,24845
42050,25150
42354,25150
42417,25087
42418,25032
42413,24983
42399,24936
42376,24893
42344,24855
42306,24823
42263,24800
42216,24786
42167,24781
42112,24782
42050,24845
41950,24845
41887,24782
41832,24781
41783,24786
41736,24800
41693,24823
41655,24855
41623,24893
41600,24936
41586,24983
41581,25032
38772,25032
38746,24983
38740,24972
38702,24926
38689,24910
38673,24897
38302,24526
38289,24510
38227,24459
38156,24421
38079,24398
38020,24392
38020,24392
38000,24390
37979,24392
37148,24392
37147,24388
37123,24345
37092,24307
37054,24276
37011,24252
36963,24238
36914,24233
36285,24233
36236,24238
36188,24252
36145,24276
36107,24307
36076,24345
36052,24388
36038,24436
36033,24485
36033,25114
36038,25163
36052,25211
36076,25254
36107,25292
36145,25323
36188,25347
36236,25361
36285,25366
36914,25366
36963,25361
37011,25347
37054,25323
37092,25292
37123,25254
37147,25211
37148,25207
37831,25207
37992,25368
37992,27192
33368,27192
32007,25831
32007,23326
32060,23246
32100,23151
32139,23246
32196,23331
32268,23403
32353,23460
32448,23500
32542,23518
33283,24259
33340,24316
33356,24327
33372,24340
33390,24349
33406,24361
33425,24368
33443,24378
33462,24384
33481,24391
33484,24392
32559,24392
32540,24396
32520,24398
32500,24404
32481,24408
32462,24415
32443,24421
32425,24431
32406,24438
32390,24450
32372,24459
32356,24472
32340,24483
32326,24497
32310,24510
32297,24526
32283,24540
32272,24556
32259,24572
32250,24590
32238,24606
32231,24625
32221,24643
32215,24662
32208,24681
32204,24700
32198,24720
32196,24740
32192,24759
32192,24779
32190,24800
32192,24820
32192,24840
32196,24859
32198,24879
32204,24899
32208,24918
32215,24937
32221,24956
32231,24974
32238,24993
32250,25009
32259,25027
32272,25043
32283,25059
32297,25073
32310,25089
32326,25102
32340,25116
32356,25127
32372,25140
32390,25149
32406,25161
32425,25168
32443,25178
32462,25184
32481,25191
32500,25195
32520,25201
32540,25203
32559,25207
34240,25207
34271,25238
34363,25300
34466,25343
34575,25364
34687,25364
34796,25343
34899,25300
34991,25238
35070,25160
35132,25067
35174,24964
35196,24855
35196,24744
35174,24635
35132,24532
35070,24439
34991,24361
34899,24299
34796,24256
34687,24235
34575,24235
34466,24256
34363,24299
34271,24361
34240,24392
33715,24392
33718,24391
33737,24384
33756,24378
33774,24368
33793,24361
33809,24349
33827,24340
33843,24327
33859,24316
33873,24302
33889,24289
33902,24273
33916,24259
33927,24243
33940,24227
33949,24209
33961,24193
33968,24174
33978,24156
33984,24137
33991,24118
33995,24099
34001,24079
34003,24059
34007,24040
34007,24020
34009,23999
34007,23979
34007,23959
34003,23940
34001,23920
33995,23900
33991,23881
33984,23862
33978,23843
33968,23825
33961,23806
33949,23790
33940,23772
33927,23756
33916,23740
33688,23512
33730,23505
33826,23470
33865,23450
33887,23358
33600,23070
33594,23076
33523,23005
33529,23000
33670,23000
33958,23287
34050,23265
34093,23172
34117,23072
34121,22970
34105,22869
34070,22773
34050,22734
33958,22712
33670,23000
33529,23000
33241,22712
33149,22734
33106,22827
33100,22852
33100,22848
33060,22753
33003,22668
32976,22641
33312,22641
33600,22929
33887,22641
33865,22549
33772,22506
33672,22482
33570,22478
33469,22494
33373,22529
33334,22549
33312,22641
32976,22641
32931,22596
32846,22539
32751,22499
32688,22487
35584,19591
35584,20651
35530,20732
35488,20835
35466,20944
35466,21055
35488,21164
35530,21267
35592,21360
35671,21438
35763,21500
35866,21543
35975,21564
36087,21564
36196,21543
36299,21500
36391,21438
36470,21360
36500,21314
37433,21314
37438,21363
37452,21411
37476,21454
37507,21492
37545,21523
37588,21547
37636,21561
37685,21566
37887,21564
37950,21502
37950,21050
38050,21050
38050,21502
38112,21564
38314,21566
38363,21561
38411,21547
38454,21523
38492,21492
38523,21454
38547,21411
38561,21363
38566,21314
38564,21112
38502,21050
38050,21050
37950,21050
37497,21050
37435,21112
37433,21314
36500,21314
36532,21267
36574,21164
36596,21055
36596,20944
36574,20835
36532,20732
36500,20685
37433,20685
37435,20887
37497,20950
37950,20950
37950,20497
38050,20497
38050,20950
38502,20950
38564,20887
38566,20685
38561,20636
38547,20588
38523,20545
38492,20507
38454,20476
38411,20452
38363,20438
38314,20433
38112,20435
38050,20497
37950,20497
37887,20435
37685,20433
37636,20438
37588,20452
37545,20476
37507,20507
37476,20545
37452,20588
37438,20636
37433,20685
36500,20685
36478,20651
36478,19716
36527,19667
41581,19667
41586,19716
41600,19763
41623,19806
41655,19844
41693,19876
41736,19899
41783,19913
41832,19918
41887,19917
41950,19854
41950,19550
41645,19550
41582,19612
41581,19667
36527,19667
36862,19332
41581,19332
41582,19387
41645,19450
41950,19450
41950,19145
41887,19082
41832,19081
41783,19086
41736,19100
41693,19123
41655,19155
41623,19193
41600,19236
41586,19283
41581,19332
36862,19332
36878,19316
37808,19316
37830,19319
37852,19316
37852,19316
37918,19310
38002,19284
38080,19243
38148,19187
38162,19170
38285,19047
41969,19047
41991,19049
42013,19047
42029,19047
42088,19106
42050,19145
42050,19450
42057,19450
42057,19550
42050,19550
42050,19854
42112,19917
42167,19918
42183,19916
42183,22023
41699,22507
41682,22521
41626,22589
41585,22667
41559,22751
41559,22756
41550,22838
41553,22860
41553,22953
40778,22953
40712,22959
40640,22981
40632,22981
40583,22986
40536,23000
40493,23023
40455,23055
40423,23093
40400,23136
40386,23183
40381,23232
40381,23240
40359,23312
40350,23400
40359,23487
40381,23559
40381,23567
40386,23616
40400,23663
40423,23706
40455,23744
40493,23776
40536,23799
40583,23813
40632,23818
40640,23818
40712,23840
40778,23846
41978,23846
42000,23849
42021,23846
42021,23846
42087,23840
42159,23818
42167,23818
42216,23813
42263,23799
42306,23776
42344,23744
42376,23706
42399,23663
42413,23616
42418,23567
42418,23559
42440,23487
42449,23400
42446,23378
42446,23024
42930,22540
42947,22526
43003,22458
43044,22380
43070,22296
43076,22231
43076,22231
43078,22209
43076,22187
43076,19037
43078,19015
43076,18993
43076,18993
43070,18928
43067,18920
43061,18899
43044,18843
43003,18766
42947,18698
42930,18684
42547,18301
42547,17508
42549,17486
42540,17398
42515,17314
42473,17236
42417,17168
42400,17154
42118,16872
42104,16855
42036,16799
41959,16758
41875,16732
41809,16726
41809,16726
41787,16724
41765,16726
34343,16726
34321,16724
34299,16726
29848,16726
29826,16724
29804,16726
29739,16732
29654,16758
29577,16799
29509,16855
29495,16872
27734,18633
27485,18633
27436,18638
27388,18652
27345,18676
27307,18707
27276,18745
27252,18788
27238,18836
27233,18885
27233,19134
25314,21053
24478,21053
24412,21059
24340,21081
24332,21081
24283,21086
24236,21100
24193,21123
24155,21155
24123,21193
24100,21236
24086,21283
24081,21332
24081,21340
24059,21412
24050,21500
22250,21500
22250,19332
24081,19332
24081,19667
24086,19716
24100,19763
24123,19806
24155,19844
24193,19876
24236,19899
24283,19913
24332,19918
24667,19918
24716,19913
24763,19899
24806,19876
24844,19844
24876,19806
24899,19763
24913,19716
24918,19667
24918,19332
24913,19283
24907,19263
24907,19186
27686,16407
28263,16407
28283,16413
28332,16418
28667,16418
28716,16413
28736,16407
34110,16407
34155,16462
34251,16540
34359,16598
34477,16634
34600,16646
34722,16634
34840,16598
34948,16540
35044,16462
35122,16367
35180,16259
35215,16141
35225,16049
35225,15950
35215,15858
35180,15740
35122,15632
35044,15537
35014,15513
42520,15513
42520,15686
42553,15856
42620,16016
42716,16160
42839,16283
42983,16379
43143,16446
43313,16479
43486,16479
43656,16446
43816,16379
43960,16283
44083,16160
44179,16016
44246,15856
44279,15686
44279,15513
44246,15343
44179,15183
44083,15039
43960,14916
43816,14820
43656,14753
43486,14720
43313,14720
43143,14753
42983,14820
42839,14916
42716,15039
42620,15183
42553,15343
42520,15513
35014,15513
34948,15459
34840,15401
34722,15365
34600,15353
34477,15365
34359,15401
34251,15459
34155,15537
34110,15592
28736,15592
28716,15586
28667,15581
28332,15581
28283,15586
28263,15592
27537,15592
27517,15590
27497,15592
27497,15592
27437,15598
27361,15621
27328,15639
27290,15659
27243,15697
27228,15710
27215,15726
24226,18715
24210,18728
24159,18790
24121,18861
24098,18937
24092,18997
24092,18997
24090,19017
24092,19037
24092,19263
24086,19283
24081,19332
22250,19332
22250,14650
44350,14650
44350,33750
Z" /> 
</g>
</g>
<g style="fill:#FFFFFF; fill-opacity:1.0; 
stroke:#FFFFFF; stroke-width:100; stroke-opacity:1; 
stroke-linecap:round; stroke-linejoin:round;">
</g>
<g style="fill:#FFFFFF; fill-opacity:1.0; 
stroke:#FFFFFF; stroke-width:0; stroke-opacity:1; 
stroke-linecap:round; stroke-linejoin:round;">
<circle cx="29000" cy="21200" r="68.8976" /> 
</g>
<g style="fill:#FFFFFF; fill-opacity:1.0; 
stroke:#FFFFFF; stroke-width:393.701; stroke-opacity:1; 
stroke-linecap:round; stroke-linejoin:round;">
</g>
<g style="fill:#FFFFFF; fill-opacity:1.0; 
stroke:#FFFFFF; stroke-width:0; stroke-opacity:1; 
stroke-linecap:round; stroke-linejoin:round;">
<circle cx="34800" cy="21200" r="68.8976" /> 
</g>
<g style="fill:#FFFFFF; fill-opacity:1.0; 
stroke:#FFFFFF; stroke-width:393.701; stroke-opacity:1; 
stroke-linecap:round; stroke-linejoin:round;">
</g>
<g style="fill:#FFFFFF; fill-opacity:1.0; 
stroke:#FFFFFF; stroke-width:0; stroke-opacity:1; 
stroke-linecap:round; stroke-linejoin:round;">
<circle cx="30600" cy="24800" r="68.8976" /> 
</g>
<g style="fill:#FFFFFF; fill-opacity:1.0; 
stroke:#FFFFFF; stroke-width:393.701; stroke-opacity:1; 
stroke-linecap:round; stroke-linejoin:round;">
</g>
<g style="fill:#FFFFFF; fill-opacity:1.0; 
stroke:#FFFFFF; stroke-width:0; stroke-opacity:1; 
stroke-linecap:round; stroke-linejoin:round;">
<circle cx="32600" cy="24800" r="68.8976" /> 
</g>
<g style="fill:#FFFFFF; fill-opacity:1.0; 
stroke:#FFFFFF; stroke-width:393.701; stroke-opacity:1; 
stroke-linecap:round; stroke-linejoin:round;">
</g>
<g style="fill:#FFFFFF; fill-opacity:1.0; 
stroke:#FFFFFF; stroke-width:0; stroke-opacity:1; 
stroke-linecap:round; stroke-linejoin:round;">
<circle cx="33600" cy="24000" r="68.8976" /> 
</g>
<g style="fill:#FFFFFF; fill-opacity:1.0; 
stroke:#FFFFFF; stroke-width:393.701; stroke-opacity:1; 
stroke-linecap:round; stroke-linejoin:round;">
</g>
<g style="fill:#FFFFFF; fill-opacity:1.0; 
stroke:#FFFFFF; stroke-width:0; stroke-opacity:1; 
stroke-linecap:round; stroke-linejoin:round;">
<circle cx="33600" cy="29200" r="68.8976" /> 
</g>
<g style="fill:#FFFFFF; fill-opacity:1.0; 
stroke:#FFFFFF; stroke-width:393.701; stroke-opacity:1; 
stroke-linecap:round; stroke-linejoin:round;">
</g>
<g style="fill:#FFFFFF; fill-opacity:1.0; 
stroke:#FFFFFF; stroke-width:0; stroke-opacity:1; 
stroke-linecap:round; stroke-linejoin:round;">
<circle cx="29200" cy="31500" r="68.8976" /> 
</g>
<g style="fill:#FFFFFF; fill-opacity:1.0; 
stroke:#FFFFFF; stroke-width:393.701; stroke-opacity:1; 
stroke-linecap:round; stroke-linejoin:round;">
</g>
<g style="fill:#FFFFFF; fill-opacity:1.0; 
stroke:#FFFFFF; stroke-width:0; stroke-opacity:1; 
stroke-linecap:round; stroke-linejoin:round;">
<circle cx="23200" cy="32800" r="68.8976" /> 
</g>
<g style="fill:#FFFFFF; fill-opacity:1.0; 
stroke:#FFFFFF; stroke-width:393.701; stroke-opacity:1; 
stroke-linecap:round; stroke-linejoin:round;">
</g>
<g style="fill:#FFFFFF; fill-opacity:1.0; 
stroke:#FFFFFF; stroke-width:0; stroke-opacity:1; 
stroke-linecap:round; stroke-linejoin:round;">
<circle cx="43400" cy="15600" r="68.8976" /> 
</g>
<g style="fill:#FFFFFF; fill-opacity:1.0; 
stroke:#FFFFFF; stroke-width:393.701; stroke-opacity:1; 
stroke-linecap:round; stroke-linejoin:round;">
</g>
<g style="fill:#FFFFFF; fill-opacity:1.0; 
stroke:#FFFFFF; stroke-width:0; stroke-opacity:1; 
stroke-linecap:round; stroke-linejoin:round;">
<circle cx="29200" cy="31500" r="68.8976" /> 
</g>
<g style="fill:#FFFFFF; fill-opacity:1.0; 
stroke:#FFFFFF; stroke-width:393.701; stroke-opacity:1; 
stroke-linecap:round; stroke-linejoin:round;">
</g>
<g style="fill:#FFFFFF; fill-opacity:1.0; 
stroke:#FFFFFF; stroke-width:0; stroke-opacity:1; 
stroke-linecap:round; stroke-linejoin:round;">
<circle cx="38000" cy="21000" r="68.8976" /> 
</g>
<g style="fill:#FFFFFF; fill-opacity:1.0; 
stroke:#FFFFFF; stroke-width:393.701; stroke-opacity:1; 
stroke-linecap:round; stroke-linejoin:round;">
</g>
<g style="fill:#FFFFFF; fill-opacity:1.0; 
stroke:#FFFFFF; stroke-width:0; stroke-opacity:1; 
stroke-linecap:round; stroke-linejoin:round;">
<circle cx="36031.5" cy="21000" r="68.8976" /> 
</g>
<g style="fill:#FFFFFF; fill-opacity:1.0; 
stroke:#FFFFFF; stroke-width:393.701; stroke-opacity:1; 
stroke-linecap:round; stroke-linejoin:round;">
</g>
<g style="fill:#FFFFFF; fill-opacity:1.0; 
stroke:#FFFFFF; stroke-width:0; stroke-opacity:1; 
stroke-linecap:round; stroke-linejoin:round;">
<circle cx="36600" cy="24800" r="68.8976" /> 
</g>
<g style="fill:#FFFFFF; fill-opacity:1.0; 
stroke:#FFFFFF; stroke-width:393.701; stroke-opacity:1; 
stroke-linecap:round; stroke-linejoin:round;">
</g>
<g style="fill:#FFFFFF; fill-opacity:1.0; 
stroke:#FFFFFF; stroke-width:0; stroke-opacity:1; 
stroke-linecap:round; stroke-linejoin:round;">
<circle cx="34631.5" cy="24800" r="68.8976" /> 
</g>
<g style="fill:#FFFFFF; fill-opacity:1.0; 
stroke:#FFFFFF; stroke-width:393.701; stroke-opacity:1; 
stroke-linecap:round; stroke-linejoin:round;">
</g>
<g style="fill:#FFFFFF; fill-opacity:1.0; 
stroke:#FFFFFF; stroke-width:0; stroke-opacity:1; 
stroke-linecap:round; stroke-linejoin:round;">
<circle cx="24500" cy="19500" r="68.8976" /> 
</g>
<g style="fill:#FFFFFF; fill-opacity:1.0; 
stroke:#FFFFFF; stroke-width:393.701; stroke-opacity:1; 
stroke-linecap:round; stroke-linejoin:round;">
</g>
<g style="fill:#FFFFFF; fill-opacity:1.0; 
stroke:#FFFFFF; stroke-width:0; stroke-opacity:1; 
stroke-linecap:round; stroke-linejoin:round;">
<circle cx="24500" cy="21500" r="68.8976" /> 
</g>
<g style="fill:#FFFFFF; fill-opacity:1.0; 
stroke:#FFFFFF; stroke-width:393.701; stroke-opacity:1; 
stroke-linecap:round; stroke-linejoin:round;">
</g>
<g style="fill:#FFFFFF; fill-opacity:1.0; 
stroke:#FFFFFF; stroke-width:0; stroke-opacity:1; 
stroke-linecap:round; stroke-linejoin:round;">
<circle cx="24500" cy="23500" r="68.8976" /> 
</g>
<g style="fill:#FFFFFF; fill-opacity:1.0; 
stroke:#FFFFFF; stroke-width:393.701; stroke-opacity:1; 
stroke-linecap:round; stroke-linejoin:round;">
</g>
<g style="fill:#FFFFFF; fill-opacity:1.0; 
stroke:#FFFFFF; stroke-width:0; stroke-opacity:1; 
stroke-linecap:round; stroke-linejoin:round;">
<circle cx="24500" cy="25500" r="68.8976" /> 
</g>
<g style="fill:#FFFFFF; fill-opacity:1.0; 
stroke:#FFFFFF; stroke-width:393.701; stroke-opacity:1; 
stroke-linecap:round; stroke-linejoin:round;">
</g>
<g style="fill:#FFFFFF; fill-opacity:1.0; 
stroke:#FFFFFF; stroke-width:0; stroke-opacity:1; 
stroke-linecap:round; stroke-linejoin:round;">
<circle cx="24500" cy="27000" r="68.8976" /> 
</g>
<g style="fill:#FFFFFF; fill-opacity:1.0; 
stroke:#FFFFFF; stroke-width:393.701; stroke-opacity:1; 
stroke-linecap:round; stroke-linejoin:round;">
</g>
<g style="fill:#FFFFFF; fill-opacity:1.0; 
stroke:#FFFFFF; stroke-width:0; stroke-opacity:1; 
stroke-linecap:round; stroke-linejoin:round;">
<circle cx="28500" cy="16000" r="68.8976" /> 
</g>
<g style="fill:#FFFFFF; fill-opacity:1.0; 
stroke:#FFFFFF; stroke-width:393.701; stroke-opacity:1; 
stroke-linecap:round; stroke-linejoin:round;">
</g>
<g style="fill:#FFFFFF; fill-opacity:1.0; 
stroke:#FFFFFF; stroke-width:0; stroke-opacity:1; 
stroke-linecap:round; stroke-linejoin:round;">
<circle cx="25800" cy="29000" r="68.8976" /> 
</g>
<g style="fill:#FFFFFF; fill-opacity:1.0; 
stroke:#FFFFFF; stroke-width:393.701; stroke-opacity:1; 
stroke-linecap:round; stroke-linejoin:round;">
</g>
<g style="fill:#FFFFFF; fill-opacity:1.0; 
stroke:#FFFFFF; stroke-width:0; stroke-opacity:1; 
stroke-linecap:round; stroke-linejoin:round;">
<circle cx="25700" cy="31500" r="68.8976" /> 
</g>
<g style="fill:#FFFFFF; fill-opacity:1.0; 
stroke:#FFFFFF; stroke-width:393.701; stroke-opacity:1; 
stroke-linecap:round; stroke-linejoin:round;">
</g>
<g style="fill:#FFFFFF; fill-opacity:1.0; 
stroke:#FFFFFF; stroke-width:0; stroke-opacity:1; 
stroke-linecap:round; stroke-linejoin:round;">
<circle cx="32200" cy="31500" r="68.8976" /> 
</g>
<g style="fill:#FFFFFF; fill-opacity:1.0; 
stroke:#FFFFFF; stroke-width:393.701; stroke-opacity:1; 
stroke-linecap:round; stroke-linejoin:round;">
</g>
<g style="fill:#FFFFFF; fill-opacity:1.0; 
stroke:#FFFFFF; stroke-width:0; stroke-opacity:1; 
stroke-linecap:round; stroke-linejoin:round;">
<circle cx="36700" cy="31500" r="68.8976" /> 
</g>
<g style="fill:#FFFFFF; fill-opacity:1.0; 
stroke:#FFFFFF; stroke-width:393.701; stroke-opacity:1; 
stroke-linecap:round; stroke-linejoin:round;">
</g>
<g style="fill:#FFFFFF; fill-opacity:1.0; 
stroke:#FFFFFF; stroke-width:0; stroke-opacity:1; 
stroke-linecap:round; stroke-linejoin:round;">
<circle cx="39700" cy="31500" r="68.8976" /> 
</g>
<g style="fill:#FFFFFF; fill-opacity:1.0; 
stroke:#FFFFFF; stroke-width:393.701; stroke-opacity:1; 
stroke-linecap:round; stroke-linejoin:round;">
</g>
<g style="fill:#FFFFFF; fill-opacity:1.0; 
stroke:#FFFFFF; stroke-width:0; stroke-opacity:1; 
stroke-linecap:round; stroke-linejoin:round;">
<circle cx="42200" cy="31500" r="68.8976" /> 
</g>
<g style="fill:#FFFFFF; fill-opacity:1.0; 
stroke:#FFFFFF; stroke-width:393.701; stroke-opacity:1; 
stroke-linecap:round; stroke-linejoin:round;">
</g>
<g style="fill:#FFFFFF; fill-opacity:1.0; 
stroke:#FFFFFF; stroke-width:0; stroke-opacity:1; 
stroke-linecap:round; stroke-linejoin:round;">
<circle cx="42000" cy="23400" r="68.8976" /> 
</g>
<g style="fill:#FFFFFF; fill-opacity:1.0; 
stroke:#FFFFFF; stroke-width:393.701; stroke-opacity:1; 
stroke-linecap:round; stroke-linejoin:round;">
</g>
<g style="fill:#FFFFFF; fill-opacity:1.0; 
stroke:#FFFFFF; stroke-width:0; stroke-opacity:1; 
stroke-linecap:round; stroke-linejoin:round;">
<circle cx="42000" cy="25200" r="68.8976" /> 
</g>
<g style="fill:#FFFFFF; fill-opacity:1.0; 
stroke:#FFFFFF; stroke-width:393.701; stroke-opacity:1; 
stroke-linecap:round; stroke-linejoin:round;">
</g>
<g style="fill:#FFFFFF; fill-opacity:1.0; 
stroke:#FFFFFF; stroke-width:0; stroke-opacity:1; 
stroke-linecap:round; stroke-linejoin:round;">
<circle cx="42000" cy="19500" r="68.8976" /> 
</g>
<g style="fill:#FFFFFF; fill-opacity:1.0; 
stroke:#FFFFFF; stroke-width:393.701; stroke-opacity:1; 
stroke-linecap:round; stroke-linejoin:round;">
</g>
<g style="fill:#FFFFFF; fill-opacity:1.0; 
stroke:#FFFFFF; stroke-width:0; stroke-opacity:1; 
stroke-linecap:round; stroke-linejoin:round;">
<circle cx="41500" cy="18000" r="68.8976" /> 
</g>
<g style="fill:#FFFFFF; fill-opacity:1.0; 
stroke:#FFFFFF; stroke-width:393.701; stroke-opacity:1; 
stroke-linecap:round; stroke-linejoin:round;">
</g>
<g style="fill:#FFFFFF; fill-opacity:1.0; 
stroke:#FFFFFF; stroke-width:0; stroke-opacity:1; 
stroke-linecap:round; stroke-linejoin:round;">
<circle cx="40800" cy="23400" r="68.8976" /> 
</g>
<g style="fill:#FFFFFF; fill-opacity:1.0; 
stroke:#FFFFFF; stroke-width:393.701; stroke-opacity:1; 
stroke-linecap:round; stroke-linejoin:round;">
</g>
<g style="fill:#FFFFFF; fill-opacity:1.0; 
stroke:#FFFFFF; stroke-width:0; stroke-opacity:1; 
stroke-linecap:round; stroke-linejoin:round;">
<circle cx="40800" cy="25800" r="68.8976" /> 
</g>
<g style="fill:#FFFFFF; fill-opacity:1.0; 
stroke:#FFFFFF; stroke-width:393.701; stroke-opacity:1; 
stroke-linecap:round; stroke-linejoin:round;">
</g>
<g style="fill:#FFFFFF; fill-opacity:1.0; 
stroke:#FFFFFF; stroke-width:0; stroke-opacity:1; 
stroke-linecap:round; stroke-linejoin:round;">
<circle cx="27800" cy="19200" r="68.8976" /> 
</g>
<g style="fill:#FFFFFF; fill-opacity:1.0; 
stroke:#FFFFFF; stroke-width:393.701; stroke-opacity:1; 
stroke-linecap:round; stroke-linejoin:round;">
</g>
<g style="fill:#FFFFFF; fill-opacity:1.0; 
stroke:#FFFFFF; stroke-width:0; stroke-opacity:1; 
stroke-linecap:round; stroke-linejoin:round;">
<circle cx="27800" cy="23200" r="68.8976" /> 
</g>
<g style="fill:#FFFFFF; fill-opacity:1.0; 
stroke:#FFFFFF; stroke-width:393.701; stroke-opacity:1; 
stroke-linecap:round; stroke-linejoin:round;">
</g>
<g style="fill:#FFFFFF; fill-opacity:1.0; 
stroke:#FFFFFF; stroke-width:0; stroke-opacity:1; 
stroke-linecap:round; stroke-linejoin:round;">
<circle cx="30600" cy="23000" r="68.8976" /> 
</g>
<g style="fill:#FFFFFF; fill-opacity:1.0; 
stroke:#FFFFFF; stroke-width:393.701; stroke-opacity:1; 
stroke-linecap:round; stroke-linejoin:round;">
</g>
<g style="fill:#FFFFFF; fill-opacity:1.0; 
stroke:#FFFFFF; stroke-width:0; stroke-opacity:1; 
stroke-linecap:round; stroke-linejoin:round;">
<circle cx="31600" cy="23000" r="68.8976" /> 
</g>
<g style="fill:#FFFFFF; fill-opacity:1.0; 
stroke:#FFFFFF; stroke-width:393.701; stroke-opacity:1; 
stroke-linecap:round; stroke-linejoin:round;">
</g>
<g style="fill:#FFFFFF; fill-opacity:1.0; 
stroke:#FFFFFF; stroke-width:0; stroke-opacity:1; 
stroke-linecap:round; stroke-linejoin:round;">
<circle cx="32600" cy="23000" r="68.8976" /> 
</g>
<g style="fill:#FFFFFF; fill-opacity:1.0; 
stroke:#FFFFFF; stroke-width:393.701; stroke-opacity:1; 
stroke-linecap:round; stroke-linejoin:round;">
</g>
<g style="fill:#FFFFFF; fill-opacity:1.0; 
stroke:#FFFFFF; stroke-width:0; stroke-opacity:1; 
stroke-linecap:round; stroke-linejoin:round;">
<circle cx="33600" cy="23000" r="68.8976" /> 
</g>
<g style="fill:#FFFFFF; fill-opacity:1.0; 
stroke:#FFFFFF; stroke-width:393.701; stroke-opacity:1; 
stroke-linecap:round; stroke-linejoin:round;">
</g>
<g style="fill:#FFFFFF; fill-opacity:1.0; 
stroke:#FFFFFF; stroke-width:0; stroke-opacity:1; 
stroke-linecap:round; stroke-linejoin:round;">
<circle cx="33600" cy="20000" r="68.8976" /> 
</g>
<g style="fill:#FFFFFF; fill-opacity:1.0; 
stroke:#FFFFFF; stroke-width:393.701; stroke-opacity:1; 
stroke-linecap:round; stroke-linejoin:round;">
</g>
<g style="fill:#FFFFFF; fill-opacity:1.0; 
stroke:#FFFFFF; stroke-width:0; stroke-opacity:1; 
stroke-linecap:round; stroke-linejoin:round;">
<circle cx="32600" cy="20000" r="68.8976" /> 
</g>
<g style="fill:#FFFFFF; fill-opacity:1.0; 
stroke:#FFFFFF; stroke-width:393.701; stroke-opacity:1; 
stroke-linecap:round; stroke-linejoin:round;">
</g>
<g style="fill:#FFFFFF; fill-opacity:1.0; 
stroke:#FFFFFF; stroke-width:0; stroke-opacity:1; 
stroke-linecap:round; stroke-linejoin:round;">
<circle cx="31600" cy="20000" r="68.8976" /> 
</g>
<g style="fill:#FFFFFF; fill-opacity:1.0; 
stroke:#FFFFFF; stroke-width:393.701; stroke-opacity:1; 
stroke-linecap:round; stroke-linejoin:round;">
</g>
<g style="fill:#FFFFFF; fill-opacity:1.0; 
stroke:#FFFFFF; stroke-width:0; stroke-opacity:1; 
stroke-linecap:round; stroke-linejoin:round;">
<circle cx="30600" cy="20000" r="68.8976" /> 
</g>
<g style="fill:#FFFFFF; fill-opacity:1.0; 
stroke:#FFFFFF; stroke-width:393.701; stroke-opacity:1; 
stroke-linecap:round; stroke-linejoin:round;">
</g>
<g style="fill:#FFFFFF; fill-opacity:1.0; 
stroke:#FFFFFF; stroke-width:0; stroke-opacity:1; 
stroke-linecap:round; stroke-linejoin:round;">
<circle cx="33600" cy="18000" r="68.8976" /> 
</g>
<g style="fill:#FFFFFF; fill-opacity:1.0; 
stroke:#FFFFFF; stroke-width:393.701; stroke-opacity:1; 
stroke-linecap:round; stroke-linejoin:round;">
</g>
<g style="fill:#FFFFFF; fill-opacity:1.0; 
stroke:#FFFFFF; stroke-width:0; stroke-opacity:1; 
stroke-linecap:round; stroke-linejoin:round;">
<circle cx="34600" cy="16000" r="68.8976" /> 
</g>
<g style="fill:#FFFFFF; fill-opacity:1.0; 
stroke:#FFFFFF; stroke-width:393.701; stroke-opacity:1; 
stroke-linecap:round; stroke-linejoin:round;">
</g>
<g style="fill:#FFFFFF; fill-opacity:1.0; 
stroke:#FFFFFF; stroke-width:0; stroke-opacity:1; 
stroke-linecap:round; stroke-linejoin:round;">
<circle cx="35600" cy="18000" r="68.8976" /> 
</g>
<g style="fill:#FFFFFF; fill-opacity:1.0; 
stroke:#FFFFFF; stroke-width:393.701; stroke-opacity:1; 
stroke-linecap:round; stroke-linejoin:round;">
</g>
<g style="fill:#000000; fill-opacity:1.0; 
stroke:#000000; stroke-width:393.701; stroke-opacity:1; 
stroke-linecap:round; stroke-linejoin:round;">
</g> 
</svg>
