<?xml version="1.0" standalone="no"?>
 <!DOCTYPE svg PUBLIC "-//W3C//DTD SVG 1.1//EN" 
 "http://www.w3.org/Graphics/SVG/1.1/DTD/svg11.dtd"> 
<svg xmlns="http://www.w3.org/2000/svg" version="1.1" 
    width="29.7002cm" height="21.0007cm" viewBox="0 0 116930 82680 ">
<title>SVG Picture created as cargaelectronica_ce3-B_Cu.svg date 2019/06/19 11:52:44 </title>
  <desc>Picture generated by PCBNEW </desc>
<g style="fill:#000000; fill-opacity:1;stroke:#000000; stroke-opacity:1;
stroke-linecap:round; stroke-linejoin:round; "
 transform="translate(0 0) scale(1 1)">
</g>
<g style="fill:#000000; fill-opacity:0.0; 
stroke:#000000; stroke-width:-0.000393701; stroke-opacity:1; 
stroke-linecap:round; stroke-linejoin:round;">
<g >
</g>
<g >
</g>
<g >
</g>
<g style="fill:#000000; fill-opacity:0.0; 
stroke:#000000; stroke-width:0; stroke-opacity:1; 
stroke-linecap:round; stroke-linejoin:round;">
</g>
<g style="fill:#000000; fill-opacity:1.0; 
stroke:#000000; stroke-width:0; stroke-opacity:1; 
stroke-linecap:round; stroke-linejoin:round;">
<path style="fill:#000000; fill-opacity:1.0; 
stroke:#000000; stroke-width:0; stroke-opacity:1; 
stroke-linecap:round; stroke-linejoin:round;fill-rule:evenodd;"
d="M 29032,31667
29032,31332
29367,31332
29367,31667
29032,31667
Z" /> 
</g>
<g >
<path style="fill:#000000; fill-opacity:1.0; 
stroke:#000000; stroke-width:0; stroke-opacity:1; 
stroke-linecap:round; stroke-linejoin:round;fill-rule:evenodd;"
d="M 38314,20685
38314,21314
37685,21314
37685,20685
38314,20685
Z" /> 
<circle cx="36031.5" cy="21000" r="314.961" /> 
</g>
<g style="fill:#000000; fill-opacity:1.0; 
stroke:#000000; stroke-width:393.701; stroke-opacity:1; 
stroke-linecap:round; stroke-linejoin:round;">
</g>
<g >
</g>
<g style="fill:#000000; fill-opacity:1.0; 
stroke:#000000; stroke-width:0; stroke-opacity:1; 
stroke-linecap:round; stroke-linejoin:round;">
<path style="fill:#000000; fill-opacity:1.0; 
stroke:#000000; stroke-width:0; stroke-opacity:1; 
stroke-linecap:round; stroke-linejoin:round;fill-rule:evenodd;"
d="M 36914,24485
36914,25114
36285,25114
36285,24485
36914,24485
Z" /> 
<circle cx="34631.5" cy="24800" r="314.961" /> 
</g>
<g style="fill:#000000; fill-opacity:1.0; 
stroke:#000000; stroke-width:393.701; stroke-opacity:1; 
stroke-linecap:round; stroke-linejoin:round;">
</g>
<g >
</g>
<g style="fill:#000000; fill-opacity:1.0; 
stroke:#000000; stroke-width:0; stroke-opacity:1; 
stroke-linecap:round; stroke-linejoin:round;">
<path style="fill:#000000; fill-opacity:1.0; 
stroke:#000000; stroke-width:0; stroke-opacity:1; 
stroke-linecap:round; stroke-linejoin:round;fill-rule:evenodd;"
d="M 24332,19667
24332,19332
24667,19332
24667,19667
24332,19667
Z" /> 
</g>
<g >
<path style="fill:#000000; fill-opacity:1.0; 
stroke:#000000; stroke-width:0; stroke-opacity:1; 
stroke-linecap:round; stroke-linejoin:round;fill-rule:evenodd;"
d="M 24332,21667
24332,21332
24667,21332
24667,21667
24332,21667
Z" /> 
</g>
<g >
<path style="fill:#000000; fill-opacity:1.0; 
stroke:#000000; stroke-width:0; stroke-opacity:1; 
stroke-linecap:round; stroke-linejoin:round;fill-rule:evenodd;"
d="M 24332,23667
24332,23332
24667,23332
24667,23667
24332,23667
Z" /> 
</g>
<g >
<path style="fill:#000000; fill-opacity:1.0; 
stroke:#000000; stroke-width:0; stroke-opacity:1; 
stroke-linecap:round; stroke-linejoin:round;fill-rule:evenodd;"
d="M 24332,25667
24332,25332
24667,25332
24667,25667
24332,25667
Z" /> 
</g>
<g >
<path style="fill:#000000; fill-opacity:1.0; 
stroke:#000000; stroke-width:0; stroke-opacity:1; 
stroke-linecap:round; stroke-linejoin:round;fill-rule:evenodd;"
d="M 24332,27167
24332,26832
24667,26832
24667,27167
24332,27167
Z" /> 
</g>
<g >
<path style="fill:#000000; fill-opacity:1.0; 
stroke:#000000; stroke-width:0; stroke-opacity:1; 
stroke-linecap:round; stroke-linejoin:round;fill-rule:evenodd;"
d="M 28332,16167
28332,15832
28667,15832
28667,16167
28332,16167
Z" /> 
</g>
<g >
<path style="fill:#000000; fill-opacity:1.0; 
stroke:#000000; stroke-width:0; stroke-opacity:1; 
stroke-linecap:round; stroke-linejoin:round;fill-rule:evenodd;"
d="M 25632,29167
25632,28832
25967,28832
25967,29167
25632,29167
Z" /> 
</g>
<g >
<path style="fill:#000000; fill-opacity:1.0; 
stroke:#000000; stroke-width:0; stroke-opacity:1; 
stroke-linecap:round; stroke-linejoin:round;fill-rule:evenodd;"
d="M 25532,31667
25532,31332
25867,31332
25867,31667
25532,31667
Z" /> 
</g>
<g >
<path style="fill:#000000; fill-opacity:1.0; 
stroke:#000000; stroke-width:0; stroke-opacity:1; 
stroke-linecap:round; stroke-linejoin:round;fill-rule:evenodd;"
d="M 32032,31667
32032,31332
32367,31332
32367,31667
32032,31667
Z" /> 
</g>
<g >
<path style="fill:#000000; fill-opacity:1.0; 
stroke:#000000; stroke-width:0; stroke-opacity:1; 
stroke-linecap:round; stroke-linejoin:round;fill-rule:evenodd;"
d="M 36532,31667
36532,31332
36867,31332
36867,31667
36532,31667
Z" /> 
</g>
<g >
<path style="fill:#000000; fill-opacity:1.0; 
stroke:#000000; stroke-width:0; stroke-opacity:1; 
stroke-linecap:round; stroke-linejoin:round;fill-rule:evenodd;"
d="M 39532,31667
39532,31332
39867,31332
39867,31667
39532,31667
Z" /> 
</g>
<g >
<path style="fill:#000000; fill-opacity:1.0; 
stroke:#000000; stroke-width:0; stroke-opacity:1; 
stroke-linecap:round; stroke-linejoin:round;fill-rule:evenodd;"
d="M 42032,31667
42032,31332
42367,31332
42367,31667
42032,31667
Z" /> 
</g>
<g >
<path style="fill:#000000; fill-opacity:1.0; 
stroke:#000000; stroke-width:0; stroke-opacity:1; 
stroke-linecap:round; stroke-linejoin:round;fill-rule:evenodd;"
d="M 41832,23567
41832,23232
42167,23232
42167,23567
41832,23567
Z" /> 
</g>
<g >
<path style="fill:#000000; fill-opacity:1.0; 
stroke:#000000; stroke-width:0; stroke-opacity:1; 
stroke-linecap:round; stroke-linejoin:round;fill-rule:evenodd;"
d="M 41832,25367
41832,25032
42167,25032
42167,25367
41832,25367
Z" /> 
</g>
<g >
<path style="fill:#000000; fill-opacity:1.0; 
stroke:#000000; stroke-width:0; stroke-opacity:1; 
stroke-linecap:round; stroke-linejoin:round;fill-rule:evenodd;"
d="M 41832,19667
41832,19332
42167,19332
42167,19667
41832,19667
Z" /> 
</g>
<g >
<path style="fill:#000000; fill-opacity:1.0; 
stroke:#000000; stroke-width:0; stroke-opacity:1; 
stroke-linecap:round; stroke-linejoin:round;fill-rule:evenodd;"
d="M 41332,18167
41332,17832
41667,17832
41667,18167
41332,18167
Z" /> 
</g>
<g >
<path style="fill:#000000; fill-opacity:1.0; 
stroke:#000000; stroke-width:0; stroke-opacity:1; 
stroke-linecap:round; stroke-linejoin:round;fill-rule:evenodd;"
d="M 40632,23567
40632,23232
40967,23232
40967,23567
40632,23567
Z" /> 
</g>
<g >
<path style="fill:#000000; fill-opacity:1.0; 
stroke:#000000; stroke-width:0; stroke-opacity:1; 
stroke-linecap:round; stroke-linejoin:round;fill-rule:evenodd;"
d="M 40632,25967
40632,25632
40967,25632
40967,25967
40632,25967
Z" /> 
</g>
<g >
<path style="fill:#000000; fill-opacity:1.0; 
stroke:#000000; stroke-width:0; stroke-opacity:1; 
stroke-linecap:round; stroke-linejoin:round;fill-rule:evenodd;"
d="M 27485,18885
28114,18885
28114,19514
27485,19514
27485,18885
Z" /> 
</g>
<g style="fill:#000000; fill-opacity:1.0; 
stroke:#000000; stroke-width:629.921; stroke-opacity:1; 
stroke-linecap:round; stroke-linejoin:round;">
</g>
<g style="fill:#000000; fill-opacity:0.0; 
stroke:#000000; stroke-width:629.921; stroke-opacity:1; 
stroke-linecap:round; stroke-linejoin:round;">
<path d="M27800 23200
L27800 23200
" />
</g>
<g >
</g>
<g style="fill:#000000; fill-opacity:0.0; 
stroke:#000000; stroke-width:0; stroke-opacity:1; 
stroke-linecap:round; stroke-linejoin:round;">
</g>
<g style="fill:#000000; fill-opacity:1.0; 
stroke:#000000; stroke-width:0; stroke-opacity:1; 
stroke-linecap:round; stroke-linejoin:round;">
<path style="fill:#000000; fill-opacity:1.0; 
stroke:#000000; stroke-width:0; stroke-opacity:1; 
stroke-linecap:round; stroke-linejoin:round;fill-rule:evenodd;"
d="M 30870,23270
30330,23270
30330,22730
30870,22730
30870,23270
Z" /> 
<circle cx="31600" cy="23000" r="270" /> 
</g>
<g style="fill:#000000; fill-opacity:1.0; 
stroke:#000000; stroke-width:393.701; stroke-opacity:1; 
stroke-linecap:round; stroke-linejoin:round;">
</g>
<g style="fill:#000000; fill-opacity:1.0; 
stroke:#000000; stroke-width:0; stroke-opacity:1; 
stroke-linecap:round; stroke-linejoin:round;">
<circle cx="32600" cy="23000" r="270" /> 
</g>
<g style="fill:#000000; fill-opacity:1.0; 
stroke:#000000; stroke-width:393.701; stroke-opacity:1; 
stroke-linecap:round; stroke-linejoin:round;">
</g>
<g style="fill:#000000; fill-opacity:1.0; 
stroke:#000000; stroke-width:0; stroke-opacity:1; 
stroke-linecap:round; stroke-linejoin:round;">
<circle cx="33600" cy="23000" r="270" /> 
</g>
<g style="fill:#000000; fill-opacity:1.0; 
stroke:#000000; stroke-width:393.701; stroke-opacity:1; 
stroke-linecap:round; stroke-linejoin:round;">
</g>
<g style="fill:#000000; fill-opacity:1.0; 
stroke:#000000; stroke-width:0; stroke-opacity:1; 
stroke-linecap:round; stroke-linejoin:round;">
<circle cx="33600" cy="20000" r="270" /> 
</g>
<g style="fill:#000000; fill-opacity:1.0; 
stroke:#000000; stroke-width:393.701; stroke-opacity:1; 
stroke-linecap:round; stroke-linejoin:round;">
</g>
<g style="fill:#000000; fill-opacity:1.0; 
stroke:#000000; stroke-width:0; stroke-opacity:1; 
stroke-linecap:round; stroke-linejoin:round;">
<circle cx="32600" cy="20000" r="270" /> 
</g>
<g style="fill:#000000; fill-opacity:1.0; 
stroke:#000000; stroke-width:393.701; stroke-opacity:1; 
stroke-linecap:round; stroke-linejoin:round;">
</g>
<g style="fill:#000000; fill-opacity:1.0; 
stroke:#000000; stroke-width:0; stroke-opacity:1; 
stroke-linecap:round; stroke-linejoin:round;">
<circle cx="31600" cy="20000" r="270" /> 
</g>
<g style="fill:#000000; fill-opacity:1.0; 
stroke:#000000; stroke-width:393.701; stroke-opacity:1; 
stroke-linecap:round; stroke-linejoin:round;">
</g>
<g style="fill:#000000; fill-opacity:1.0; 
stroke:#000000; stroke-width:0; stroke-opacity:1; 
stroke-linecap:round; stroke-linejoin:round;">
<circle cx="30600" cy="20000" r="270" /> 
</g>
<g style="fill:#000000; fill-opacity:1.0; 
stroke:#000000; stroke-width:393.701; stroke-opacity:1; 
stroke-linecap:round; stroke-linejoin:round;">
</g>
<g >
</g>
<g style="fill:#000000; fill-opacity:1.0; 
stroke:#000000; stroke-width:0; stroke-opacity:1; 
stroke-linecap:round; stroke-linejoin:round;">
<path style="fill:#000000; fill-opacity:1.0; 
stroke:#000000; stroke-width:0; stroke-opacity:1; 
stroke-linecap:round; stroke-linejoin:round;fill-rule:evenodd;"
d="M 33225,18393
33225,17606
33975,17606
33975,18393
33225,18393
Z" /> 
</g>
<g style="fill:#000000; fill-opacity:1.0; 
stroke:#000000; stroke-width:750; stroke-opacity:1; 
stroke-linecap:round; stroke-linejoin:round;">
</g>
<g style="fill:#000000; fill-opacity:0.0; 
stroke:#000000; stroke-width:750; stroke-opacity:1; 
stroke-linecap:round; stroke-linejoin:round;">
<path d="M34600 15981
L34600 16018
" />
<path d="M35600 17981
L35600 18018
" />
</g>
<g >
</g>
<g style="fill:#000000; fill-opacity:1.0; 
stroke:#000000; stroke-width:0; stroke-opacity:1; 
stroke-linecap:round; stroke-linejoin:round;">
<circle cx="29000" cy="21200" r="157.48" /> 
</g>
<g style="fill:#000000; fill-opacity:1.0; 
stroke:#000000; stroke-width:393.701; stroke-opacity:1; 
stroke-linecap:round; stroke-linejoin:round;">
</g>
<g style="fill:#000000; fill-opacity:1.0; 
stroke:#000000; stroke-width:0; stroke-opacity:1; 
stroke-linecap:round; stroke-linejoin:round;">
<circle cx="34800" cy="21200" r="157.48" /> 
</g>
<g style="fill:#000000; fill-opacity:1.0; 
stroke:#000000; stroke-width:393.701; stroke-opacity:1; 
stroke-linecap:round; stroke-linejoin:round;">
</g>
<g style="fill:#000000; fill-opacity:1.0; 
stroke:#000000; stroke-width:0; stroke-opacity:1; 
stroke-linecap:round; stroke-linejoin:round;">
<circle cx="30600" cy="24800" r="157.48" /> 
</g>
<g style="fill:#000000; fill-opacity:1.0; 
stroke:#000000; stroke-width:393.701; stroke-opacity:1; 
stroke-linecap:round; stroke-linejoin:round;">
</g>
<g style="fill:#000000; fill-opacity:1.0; 
stroke:#000000; stroke-width:0; stroke-opacity:1; 
stroke-linecap:round; stroke-linejoin:round;">
<circle cx="32600" cy="24800" r="157.48" /> 
</g>
<g style="fill:#000000; fill-opacity:1.0; 
stroke:#000000; stroke-width:393.701; stroke-opacity:1; 
stroke-linecap:round; stroke-linejoin:round;">
</g>
<g style="fill:#000000; fill-opacity:1.0; 
stroke:#000000; stroke-width:0; stroke-opacity:1; 
stroke-linecap:round; stroke-linejoin:round;">
<circle cx="33600" cy="24000" r="157.48" /> 
</g>
<g style="fill:#000000; fill-opacity:1.0; 
stroke:#000000; stroke-width:393.701; stroke-opacity:1; 
stroke-linecap:round; stroke-linejoin:round;">
</g>
<g style="fill:#000000; fill-opacity:1.0; 
stroke:#000000; stroke-width:0; stroke-opacity:1; 
stroke-linecap:round; stroke-linejoin:round;">
<circle cx="33600" cy="29200" r="157.48" /> 
</g>
<g style="fill:#000000; fill-opacity:1.0; 
stroke:#000000; stroke-width:393.701; stroke-opacity:1; 
stroke-linecap:round; stroke-linejoin:round;">
</g>
<g style="fill:#000000; fill-opacity:1.0; 
stroke:#000000; stroke-width:0; stroke-opacity:1; 
stroke-linecap:round; stroke-linejoin:round;">
<circle cx="29200" cy="31500" r="157.48" /> 
</g>
<g style="fill:#000000; fill-opacity:1.0; 
stroke:#000000; stroke-width:393.701; stroke-opacity:1; 
stroke-linecap:round; stroke-linejoin:round;">
</g>
<g >
</g>
<g style="fill:#000000; fill-opacity:0.0; 
stroke:#000000; stroke-width:393.701; stroke-opacity:1; 
stroke-linecap:round; stroke-linejoin:round;">
<path d="M24500 23500
L24500 25500
" />
<path d="M38000 21000
L39200 21000
" />
<path d="M39200 21000
L39400 21200
" />
<path d="M40800 25238
L40800 25800
" />
<path d="M39400 23838
L40800 25238
" />
<path d="M39400 21200
L39400 23838
" />
<path d="M40800 25800
L40800 27600
" />
<path d="M40800 27600
L42200 29000
" />
<path d="M42200 29000
L42200 31500
" />
<path d="M38000 21708
L38000 21000
" />
<path d="M36708 23000
L38000 21708
" />
<path d="M33600 23000
L36708 23000
" />
<path d="M28159 23948
L29000 23107
" />
<path d="M27440 23948
L28159 23948
" />
<path d="M24500 23500
L26992 23500
" />
<path d="M26992 23500
L27440 23948
" />
<path d="M29000 23107
L29000 21200
" />
<path d="M34800 21800
L33600 23000
" />
<path d="M34800 21200
L34800 21800
" />
<path d="M38000 20291
L38000 21000
" />
<path d="M38791 19500
L38000 20291
" />
<path d="M42000 19500
L38791 19500
" />
<path d="M41400 25200
L40800 25800
" />
<path d="M42000 25200
L41400 25200
" />
<path d="M25500 21500
L27800 19200
" />
<path d="M24500 21500
L25500 21500
" />
<path d="M30869 19730
L30600 20000
" />
<path d="M31773 18826
L30869 19730
" />
<path d="M34408 18740
L34321 18826
" />
<path d="M34321 18826
L31773 18826
" />
<path d="M34408 17259
L34408 18740
" />
<path d="M34321 17173
L34408 17259
" />
<path d="M27800 19200
L29826 17173
" />
<path d="M32878 17173
L34173 17173
" />
<path d="M36031 19531
L36031 21000
" />
<path d="M36692 18870
L36031 19531
" />
<path d="M37830 18870
L36692 18870
" />
<path d="M32878 17173
L41787 17173
" />
<path d="M41787 17173
L42100 17486
" />
<path d="M42100 17486
L42100 18491
" />
<path d="M42100 18491
L41991 18600
" />
<path d="M41991 18600
L38100 18600
" />
<path d="M38100 18600
L37830 18870
" />
<path d="M29826 17173
L30326 17173
" />
<path d="M30326 17173
L32878 17173
" />
<path d="M40800 23400
L42000 23400
" />
<path d="M42214 18600
L41991 18600
" />
<path d="M42629 19015
L42214 18600
" />
<path d="M42629 22209
L42629 19015
" />
<path d="M42000 22838
L42629 22209
" />
<path d="M42000 23400
L42000 22838
" />
</g>
<g style="fill:#000000; fill-opacity:0.0; 
stroke:#000000; stroke-width:314.961; stroke-opacity:1; 
stroke-linecap:round; stroke-linejoin:round;">
<path d="M35600 18018
L35600 18000
" />
<path d="M35600 19000
L31600 23000
" />
<path d="M35600 18000
L35600 19000
" />
<path d="M31600 23000
L31600 26000
" />
<path d="M31600 26000
L33200 27600
" />
<path d="M33200 27600
L38400 27600
" />
<path d="M38400 27600
L38400 25200
" />
<path d="M38000 24800
L36600 24800
" />
<path d="M38400 25200
L38000 24800
" />
<path d="M35600 18000
L41500 18000
" />
<path d="M30600 22415
L30600 23000
" />
<path d="M29936 21751
L30600 22415
" />
<path d="M29936 19681
L29936 21751
" />
<path d="M31617 18000
L29936 19681
" />
<path d="M33600 18000
L31617 18000
" />
<path d="M30600 23584
L30400 23784
" />
<path d="M30600 23000
L30600 23584
" />
<path d="M30400 23784
L30400 24600
" />
<path d="M30400 24600
L30600 24800
" />
<path d="M32600 24800
L34631 24800
" />
<path d="M24500 19017
L24500 19500
" />
<path d="M27517 16000
L24500 19017
" />
<path d="M28500 16000
L27517 16000
" />
<path d="M28500 16000
L34600 16000
" />
<path d="M24500 27700
L25800 29000
" />
<path d="M24500 27000
L24500 27700
" />
<path d="M27200 22600
L23600 22600
" />
<path d="M27800 23200
L27200 22600
" />
<path d="M23600 22600
L23000 23200
" />
<path d="M23000 23200
L23000 28317
" />
<path d="M25700 31017
L25700 31500
" />
<path d="M23000 28317
L25700 31017
" />
<path d="M32600 23000
L33600 24000
" />
<path d="M29200 31017
L29200 31500
" />
<path d="M31017 29200
L29200 31017
" />
<path d="M33600 29200
L31017 29200
" />
<path d="M32200 31500
L36300 31500
" />
<path d="M36300 31500
L39700 31500
" />
</g>
<g >
</g>
<g style="fill:#000000; fill-opacity:1.0; 
stroke:#000000; stroke-width:100; stroke-opacity:1; 
stroke-linecap:round; stroke-linejoin:round;">
<path style="fill:#000000; fill-opacity:1.0; 
stroke:#000000; stroke-width:100; stroke-opacity:1; 
stroke-linecap:round; stroke-linejoin:round;fill-rule:evenodd;"
d="M 44350,33750
22250,33750
22250,32709
22283,32709
22283,32890
22319,33067
22388,33233
22488,33384
22615,33511
22766,33611
22932,33680
23109,33716
23290,33716
23467,33680
23633,33611
23784,33511
23911,33384
24011,33233
24080,33067
24116,32890
24116,32709
24080,32532
24011,32366
23911,32215
23784,32088
23633,31988
23467,31919
23290,31883
23109,31883
22932,31919
22766,31988
22615,32088
22488,32215
22388,32366
22319,32532
22283,32709
22250,32709
22250,23200
22554,23200
22556,23221
22556,28295
22554,28317
22562,28404
22588,28488
22629,28565
22670,28616
22670,28616
22684,28632
22701,28646
25256,31201
25256,31257
25250,31276
25245,31332
25245,31667
25250,31723
25266,31777
25293,31827
25329,31870
25372,31906
25422,31933
25476,31949
25532,31954
25867,31954
25923,31949
25977,31933
26027,31906
26070,31870
26106,31827
26133,31777
26149,31723
26154,31667
26154,31332
28745,31332
28745,31667
28750,31723
28766,31777
28793,31827
28829,31870
28872,31906
28922,31933
28976,31949
29032,31954
29367,31954
29423,31949
29477,31933
29527,31906
29570,31870
29606,31827
29633,31777
29649,31723
29654,31667
29654,31332
31745,31332
31745,31667
31750,31723
31766,31777
31793,31827
31829,31870
31872,31906
31922,31933
31976,31949
32032,31954
32367,31954
32423,31949
32442,31943
36457,31943
36476,31949
36532,31954
36867,31954
36923,31949
36942,31943
39457,31943
39476,31949
39532,31954
39867,31954
39923,31949
39977,31933
40027,31906
40070,31870
40106,31827
40133,31777
40149,31723
40154,31667
41781,31667
41786,31716
41800,31763
41823,31806
41855,31844
41893,31876
41936,31899
41983,31913
42032,31918
42087,31917
42150,31854
42150,31550
42250,31550
42250,31854
42312,31917
42367,31918
42416,31913
42463,31899
42506,31876
42544,31844
42576,31806
42599,31763
42613,31716
42618,31667
42617,31612
42554,31550
42250,31550
42150,31550
41845,31550
41782,31612
41781,31667
40154,31667
40154,31332
41781,31332
41782,31387
41845,31450
42150,31450
42150,31145
42250,31145
42250,31450
42554,31450
42617,31387
42618,31332
42613,31283
42599,31236
42576,31193
42544,31155
42506,31123
42463,31100
42416,31086
42367,31081
42312,31082
42250,31145
42150,31145
42087,31082
42032,31081
41983,31086
41936,31100
41893,31123
41855,31155
41823,31193
41800,31236
41786,31283
41781,31332
40154,31332
40149,31276
40133,31222
40106,31172
40070,31129
40027,31093
39977,31066
39923,31050
39867,31045
39532,31045
39476,31050
39457,31056
36942,31056
36923,31050
36867,31045
36532,31045
36476,31050
36457,31056
32442,31056
32423,31050
32367,31045
32032,31045
31976,31050
31922,31066
31872,31093
31829,31129
31793,31172
31766,31222
31750,31276
31745,31332
29654,31332
29649,31276
29643,31257
29643,31201
31201,29643
33643,29643
33665,29639
33686,29637
33707,29630
33729,29626
33749,29618
33770,29611
33789,29601
33810,29593
33828,29581
33847,29570
33864,29556
33882,29544
33898,29529
33915,29515
33929,29498
33944,29482
33956,29464
33970,29447
33981,29428
33993,29410
34001,29389
34011,29370
34018,29349
34026,29329
34030,29307
34037,29286
34039,29265
34043,29243
34043,29221
34045,29200
34043,29178
34043,29156
34039,29134
34037,29113
34030,29092
34026,29070
34018,29050
34011,29029
34001,29010
33993,28989
33981,28971
33970,28952
33956,28935
33944,28917
33929,28901
33915,28884
33898,28870
33882,28855
33864,28843
33847,28829
33828,28818
33810,28806
33789,28798
33770,28788
33749,28781
33729,28773
33707,28769
33686,28762
33665,28760
33643,28756
31039,28756
31017,28754
30995,28756
30995,28756
30930,28762
30847,28788
30770,28829
30719,28870
30719,28870
30702,28884
30688,28901
28901,30688
28884,30702
28829,30770
28788,30847
28762,30930
28756,30995
28756,30995
28754,31017
28756,31039
28756,31257
28750,31276
28745,31332
26154,31332
26149,31276
26143,31257
26143,31039
26145,31017
26143,30995
26143,30995
26137,30930
26111,30847
26070,30770
26029,30719
26029,30719
26015,30702
25998,30688
23443,28133
23443,26832
24045,26832
24045,27167
24050,27223
24056,27242
24056,27678
24054,27700
24056,27721
24056,27721
24062,27786
24088,27870
24129,27947
24170,27998
24170,27998
24184,28015
24201,28029
25345,29173
25350,29223
25366,29277
25393,29327
25429,29370
25472,29406
25522,29433
25576,29449
25632,29454
25967,29454
26023,29449
26077,29433
26127,29406
26170,29370
26206,29327
26233,29277
26249,29223
26254,29167
26254,28832
26249,28776
26233,28722
26206,28672
26170,28629
26127,28593
26077,28566
26023,28550
25973,28545
24943,27516
24943,27242
24949,27223
24954,27167
24954,26832
24949,26776
24933,26722
24906,26672
24870,26629
24827,26593
24777,26566
24723,26550
24667,26545
24332,26545
24276,26550
24222,26566
24172,26593
24129,26629
24093,26672
24066,26722
24050,26776
24045,26832
23443,26832
23443,25667
24081,25667
24086,25716
24100,25763
24123,25806
24155,25844
24193,25876
24236,25899
24283,25913
24332,25918
24387,25917
24450,25854
24450,25550
24550,25550
24550,25854
24612,25917
24667,25918
24716,25913
24763,25899
24806,25876
24844,25844
24876,25806
24899,25763
24913,25716
24918,25667
24917,25612
24854,25550
24550,25550
24450,25550
24145,25550
24082,25612
24081,25667
23443,25667
23443,25332
24081,25332
24082,25387
24145,25450
24450,25450
24450,25145
24550,25145
24550,25450
24854,25450
24917,25387
24918,25332
24913,25283
24899,25236
24876,25193
24844,25155
24806,25123
24763,25100
24716,25086
24667,25081
24612,25082
24550,25145
24450,25145
24387,25082
24332,25081
24283,25086
24236,25100
24193,25123
24155,25155
24123,25193
24100,25236
24086,25283
24081,25332
23443,25332
23443,23667
24081,23667
24086,23716
24100,23763
24123,23806
24155,23844
24193,23876
24236,23899
24283,23913
24332,23918
24387,23917
24450,23854
24450,23550
24550,23550
24550,23854
24612,23917
24667,23918
24716,23913
24763,23899
24806,23876
24844,23844
24876,23806
24899,23763
24913,23716
24918,23667
24917,23612
24854,23550
24550,23550
24450,23550
24145,23550
24082,23612
24081,23667
23443,23667
23443,23383
23494,23332
24081,23332
24082,23387
24145,23450
24450,23450
24450,23145
24550,23145
24550,23450
24854,23450
24917,23387
24918,23332
24913,23283
24899,23236
24876,23193
24844,23155
24806,23123
24763,23100
24716,23086
24667,23081
24612,23082
24550,23145
24450,23145
24387,23082
24332,23081
24283,23086
24236,23100
24193,23123
24155,23155
24123,23193
24100,23236
24086,23283
24081,23332
23494,23332
23783,23043
27016,23043
27198,23225
27207,23317
27241,23431
27297,23535
27372,23627
27464,23702
27568,23758
27682,23792
27770,23801
27829,23801
27917,23792
28031,23758
28135,23702
28227,23627
28302,23535
28358,23431
28392,23317
28404,23200
28392,23082
28358,22968
28302,22864
28227,22772
28135,22697
28031,22641
27917,22607
27829,22598
27826,22598
27529,22301
27515,22284
27447,22229
27370,22188
27286,22162
27221,22156
27221,22156
27200,22154
27178,22156
23621,22156
23599,22154
23578,22156
23578,22156
23513,22162
23429,22188
23393,22207
23352,22229
23319,22255
23284,22284
23270,22301
22701,22870
22684,22884
22629,22952
22588,23029
22562,23113
22556,23178
22556,23178
22554,23200
22250,23200
22250,21500
24014,21500
24023,21594
24045,21664
24045,21667
24050,21723
24066,21777
24093,21827
24129,21870
24172,21906
24222,21933
24276,21949
24332,21954
24335,21954
24405,21976
24476,21983
25476,21983
25500,21985
25523,21983
25523,21983
25594,21976
25685,21948
25769,21903
25843,21843
25858,21824
27880,19802
28114,19802
28171,19797
28225,19780
28274,19754
28318,19718
28354,19674
28380,19625
28397,19571
28402,19514
28402,19280
30026,17656
31337,17656
31302,17684
31288,17701
29637,19352
29621,19366
29565,19433
29524,19510
29499,19594
29492,19659
29492,19659
29490,19681
29492,19703
29492,21729
29490,21751
29492,21773
29492,21773
29499,21838
29505,21858
29524,21921
29565,21999
29607,22049
29607,22049
29621,22066
29637,22080
30107,22549
30090,22570
30064,22619
30047,22673
30042,22730
30042,23270
30047,23326
30064,23380
30090,23429
30107,23450
30101,23455
30084,23469
30029,23537
29988,23614
29962,23697
29956,23763
29956,23763
29954,23784
29956,23806
29956,24578
29954,24600
29956,24621
29956,24621
29957,24629
29962,24686
29988,24770
30029,24847
30070,24898
30070,24898
30084,24915
30101,24929
30255,25082
30255,25082
30317,25144
30335,25156
30352,25170
30371,25181
30389,25193
30410,25201
30429,25211
30450,25218
30470,25226
30492,25230
30513,25237
30534,25239
30556,25243
30578,25243
30599,25245
30621,25243
30643,25243
30665,25239
30686,25237
30707,25230
30729,25226
30749,25218
30770,25211
30789,25201
30810,25193
30828,25181
30847,25170
30864,25156
30882,25144
30898,25129
30915,25115
30929,25098
30944,25082
30956,25064
30970,25047
30981,25028
30993,25010
31001,24989
31011,24970
31018,24949
31026,24929
31030,24907
31037,24886
31039,24865
31043,24843
31043,24821
31045,24799
31043,24778
31043,24756
31039,24734
31037,24713
31030,24692
31026,24670
31018,24650
31011,24629
31001,24610
30993,24589
30981,24571
30970,24552
30956,24535
30944,24517
30882,24455
30882,24455
30843,24416
30843,23968
30898,23914
30915,23900
30970,23832
31011,23755
31037,23671
31043,23606
31043,23606
31045,23584
31043,23563
31043,23497
31073,23473
31109,23429
31135,23380
31151,23329
31156,23337
31156,25978
31154,26000
31162,26086
31188,26170
31229,26247
31270,26298
31270,26298
31284,26315
31301,26329
32870,27898
32884,27915
32901,27929
32901,27929
32924,27947
32952,27970
33029,28011
33113,28037
33178,28043
33178,28043
33200,28045
33221,28043
38378,28043
38400,28045
38421,28043
38421,28043
38486,28037
38570,28011
38647,27970
38715,27915
38770,27847
38811,27770
38837,27686
38845,27600
38843,27578
38843,25967
40381,25967
40386,26016
40400,26063
40423,26106
40455,26144
40493,26176
40536,26199
40583,26213
40632,26218
40687,26217
40750,26154
40750,25850
40850,25850
40850,26154
40912,26217
40967,26218
41016,26213
41063,26199
41106,26176
41144,26144
41176,26106
41199,26063
41213,26016
41218,25967
41217,25912
41154,25850
40850,25850
40750,25850
40445,25850
40382,25912
40381,25967
38843,25967
38843,25632
40381,25632
40382,25687
40445,25750
40750,25750
40750,25445
40850,25445
40850,25750
41154,25750
41217,25687
41218,25632
41213,25583
41199,25536
41176,25493
41144,25455
41106,25423
41063,25400
41016,25386
40967,25381
40912,25382
40850,25445
40750,25445
40687,25382
40632,25381
40583,25386
40536,25400
40493,25423
40455,25455
40423,25493
40400,25536
40386,25583
40381,25632
38843,25632
38843,25367
41581,25367
41586,25416
41600,25463
41623,25506
41655,25544
41693,25576
41736,25599
41783,25613
41832,25618
41887,25617
41950,25554
41950,25250
42050,25250
42050,25554
42112,25617
42167,25618
42216,25613
42263,25599
42306,25576
42344,25544
42376,25506
42399,25463
42413,25416
42418,25367
42417,25312
42354,25250
42050,25250
41950,25250
41645,25250
41582,25312
41581,25367
38843,25367
38843,25221
38845,25200
38843,25178
38843,25178
38837,25113
38812,25032
41581,25032
41582,25087
41645,25150
41950,25150
41950,24845
42050,24845
42050,25150
42354,25150
42417,25087
42418,25032
42413,24983
42399,24936
42376,24893
42344,24855
42306,24823
42263,24800
42216,24786
42167,24781
42112,24782
42050,24845
41950,24845
41887,24782
41832,24781
41783,24786
41736,24800
41693,24823
41655,24855
41623,24893
41600,24936
41586,24983
41581,25032
38812,25032
38811,25029
38770,24952
38751,24929
38729,24901
38729,24901
38715,24884
38698,24870
38329,24501
38315,24484
38247,24429
38170,24388
38086,24362
38021,24356
38021,24356
38000,24354
37978,24356
37170,24356
37154,24325
37118,24281
37074,24245
37025,24219
36971,24202
36914,24197
36285,24197
36228,24202
36174,24219
36125,24245
36081,24281
36045,24325
36019,24374
36002,24428
35997,24485
35997,25114
36002,25171
36019,25225
36045,25274
36081,25318
36125,25354
36174,25380
36228,25397
36285,25402
36914,25402
36971,25397
37025,25380
37074,25354
37118,25318
37154,25274
37170,25243
37816,25243
37956,25383
37956,27156
33383,27156
32043,25816
32043,23337
32092,23263
32100,23246
32107,23263
32167,23354
32245,23432
32336,23492
32437,23534
32524,23552
33255,24282
33255,24282
33317,24344
33334,24356
32556,24356
32534,24360
32513,24362
32492,24369
32470,24373
32450,24381
32429,24388
32410,24398
32389,24406
32371,24418
32352,24429
32335,24443
32317,24455
32301,24470
32284,24484
32270,24501
32255,24517
32243,24535
32229,24552
32218,24571
32206,24589
32198,24610
32188,24629
32181,24650
32173,24670
32169,24692
32162,24713
32160,24734
32156,24756
32156,24778
32154,24800
32156,24821
32156,24843
32160,24865
32162,24886
32169,24907
32173,24929
32181,24949
32188,24970
32198,24989
32206,25010
32218,25028
32229,25047
32243,25064
32255,25082
32270,25098
32284,25115
32301,25129
32317,25144
32335,25156
32352,25170
32371,25181
32389,25193
32410,25201
32429,25211
32450,25218
32470,25226
32492,25230
32513,25237
32534,25239
32556,25243
34224,25243
34248,25266
34346,25332
34456,25378
34572,25401
34690,25401
34806,25378
34916,25332
35014,25266
35098,25183
35164,25084
35209,24975
35232,24859
35232,24740
35209,24624
35164,24515
35098,24416
35014,24333
34916,24267
34806,24221
34690,24198
34572,24198
34456,24221
34346,24267
34248,24333
34224,24356
33865,24356
33882,24344
33898,24329
33915,24315
33929,24298
33944,24282
33956,24264
33970,24247
33981,24228
33993,24210
34001,24189
34011,24170
34018,24149
34026,24129
34030,24107
34037,24086
34039,24065
34043,24043
34043,24021
34045,23999
34043,23978
34043,23956
34039,23934
34037,23913
34030,23892
34026,23870
34018,23850
34011,23829
34001,23810
33993,23789
33981,23771
33970,23752
33956,23735
33944,23717
33882,23655
33882,23655
33732,23505
33826,23470
33865,23450
33887,23358
33600,23070
33594,23076
33523,23005
33529,23000
33670,23000
33958,23287
34050,23265
34093,23172
34117,23072
34121,22970
34105,22869
34070,22773
34050,22734
33958,22712
33670,23000
33529,23000
33241,22712
33149,22734
33119,22800
33092,22736
33032,22645
33027,22641
33312,22641
33600,22929
33887,22641
33865,22549
33772,22506
33672,22482
33570,22478
33469,22494
33373,22529
33334,22549
33312,22641
33027,22641
32954,22567
32863,22507
32762,22465
35548,19679
35548,20640
35498,20715
35453,20824
35430,20940
35430,21059
35453,21175
35498,21284
35564,21383
35648,21466
35746,21532
35856,21578
35972,21601
36090,21601
36206,21578
36316,21532
36414,21466
36498,21383
36544,21314
37433,21314
37438,21363
37452,21411
37476,21454
37507,21492
37545,21523
37588,21547
37636,21561
37685,21566
37887,21564
37950,21502
37950,21050
38050,21050
38050,21502
38112,21564
38314,21566
38363,21561
38411,21547
38454,21523
38492,21492
38523,21454
38547,21411
38561,21363
38566,21314
38564,21112
38502,21050
38050,21050
37950,21050
37497,21050
37435,21112
37433,21314
36544,21314
36564,21284
36609,21175
36632,21059
36632,20940
36609,20824
36564,20715
36544,20685
37433,20685
37435,20887
37497,20950
37950,20950
37950,20497
38050,20497
38050,20950
38502,20950
38564,20887
38566,20685
38561,20636
38547,20588
38523,20545
38492,20507
38454,20476
38411,20452
38363,20438
38314,20433
38112,20435
38050,20497
37950,20497
37887,20435
37685,20433
37636,20438
37588,20452
37545,20476
37507,20507
37476,20545
37452,20588
37438,20636
37433,20685
36544,20685
36514,20640
36514,19731
36578,19667
41581,19667
41586,19716
41600,19763
41623,19806
41655,19844
41693,19876
41736,19899
41783,19913
41832,19918
41887,19917
41950,19854
41950,19550
41645,19550
41582,19612
41581,19667
36578,19667
36893,19353
37806,19353
37830,19355
37854,19353
37854,19353
37925,19346
38016,19318
38100,19273
38173,19213
38189,19194
38300,19083
41812,19083
41783,19086
41736,19100
41693,19123
41655,19155
41623,19193
41600,19236
41586,19283
41581,19332
41582,19387
41645,19450
41950,19450
41950,19442
42050,19442
42050,19450
42057,19450
42057,19550
42050,19550
42050,19854
42112,19917
42146,19918
42146,22008
41675,22480
41656,22495
41596,22569
41551,22653
41523,22744
41516,22815
41516,22815
41514,22838
41516,22862
41516,22916
40776,22916
40705,22923
40635,22945
40632,22945
40576,22950
40522,22966
40472,22993
40429,23029
40393,23072
40366,23122
40350,23176
40345,23232
40345,23235
40323,23305
40314,23400
40323,23494
40345,23564
40345,23567
40350,23623
40366,23677
40393,23727
40429,23770
40472,23806
40522,23833
40576,23849
40632,23854
40635,23854
40705,23876
40776,23883
41976,23883
42000,23885
42023,23883
42094,23876
42164,23854
42167,23854
42223,23849
42277,23833
42327,23806
42370,23770
42406,23727
42433,23677
42449,23623
42454,23567
42454,23564
42476,23494
42485,23400
42483,23376
42483,23039
42954,22567
42973,22552
43033,22478
43078,22394
43090,22353
43106,22303
43115,22209
43112,22185
43112,19039
43115,19015
43112,18992
43112,18992
43106,18921
43078,18829
43033,18746
42973,18672
42954,18657
42583,18286
42583,17509
42585,17486
42576,17391
42548,17300
42531,17267
42503,17216
42443,17142
42425,17127
42145,16848
42130,16829
42057,16769
41973,16724
41882,16697
41811,16690
41811,16690
41787,16687
41763,16690
34345,16690
34321,16687
34297,16690
29850,16690
29826,16687
29803,16690
29803,16690
29779,16692
29732,16697
29641,16724
29557,16769
29508,16809
29506,16811
29483,16829
29468,16848
27719,18597
27485,18597
27428,18602
27374,18619
27325,18645
27281,18681
27245,18725
27219,18774
27202,18828
27197,18885
27197,19119
25299,21016
24476,21016
24405,21023
24335,21045
24332,21045
24276,21050
24222,21066
24172,21093
24129,21129
24093,21172
24066,21222
24050,21276
24045,21332
24045,21335
24023,21405
24014,21500
22250,21500
22250,19332
24045,19332
24045,19667
24050,19723
24066,19777
24093,19827
24129,19870
24172,19906
24222,19933
24276,19949
24332,19954
24667,19954
24723,19949
24777,19933
24827,19906
24870,19870
24906,19827
24933,19777
24949,19723
24954,19667
24954,19332
24949,19276
24943,19257
24943,19201
27701,16443
28257,16443
28276,16449
28332,16454
28667,16454
28723,16449
28742,16443
34093,16443
34130,16488
34230,16571
34345,16632
34470,16670
34600,16683
34729,16670
34854,16632
34969,16571
35069,16488
35152,16387
35213,16272
35251,16148
35261,16051
35261,15948
35251,15851
35213,15727
35152,15612
35069,15511
35067,15509
42483,15509
42483,15690
42519,15867
42588,16033
42688,16184
42815,16311
42966,16411
43132,16480
43309,16516
43490,16516
43667,16480
43833,16411
43984,16311
44111,16184
44211,16033
44280,15867
44316,15690
44316,15509
44280,15332
44211,15166
44111,15015
43984,14888
43833,14788
43667,14719
43490,14683
43309,14683
43132,14719
42966,14788
42815,14888
42688,15015
42588,15166
42519,15332
42483,15509
35067,15509
34969,15428
34854,15367
34729,15329
34600,15316
34470,15329
34345,15367
34230,15428
34130,15511
34093,15556
28742,15556
28723,15550
28667,15545
28332,15545
28276,15550
28257,15556
27539,15556
27517,15554
27495,15556
27495,15556
27430,15562
27347,15588
27270,15629
27219,15670
27219,15670
27202,15684
27188,15701
24201,18688
24184,18702
24129,18770
24088,18847
24062,18930
24056,18995
24056,18995
24054,19017
24056,19039
24056,19257
24050,19276
24045,19332
22250,19332
22250,14650
44350,14650
44350,33750
Z" /> 
<path style="fill:#000000; fill-opacity:1.0; 
stroke:#000000; stroke-width:100; stroke-opacity:1; 
stroke-linecap:round; stroke-linejoin:round;fill-rule:evenodd;"
d="M 41949,19145
41888,19083
41949,19083
41949,19145
Z" /> 
<path style="fill:#000000; fill-opacity:1.0; 
stroke:#000000; stroke-width:100; stroke-opacity:1; 
stroke-linecap:round; stroke-linejoin:round;fill-rule:evenodd;"
d="M 44350,33750
22250,33750
22250,32709
22283,32709
22283,32890
22319,33067
22388,33233
22488,33384
22615,33511
22766,33611
22932,33680
23109,33716
23290,33716
23467,33680
23633,33611
23784,33511
23911,33384
24011,33233
24080,33067
24116,32890
24116,32709
24080,32532
24011,32366
23911,32215
23784,32088
23633,31988
23467,31919
23290,31883
23109,31883
22932,31919
22766,31988
22615,32088
22488,32215
22388,32366
22319,32532
22283,32709
22250,32709
22250,23200
22554,23200
22556,23221
22556,28295
22554,28317
22562,28404
22588,28488
22629,28565
22670,28616
22670,28616
22684,28632
22701,28646
25256,31201
25256,31257
25250,31276
25245,31332
25245,31667
25250,31723
25266,31777
25293,31827
25329,31870
25372,31906
25422,31933
25476,31949
25532,31954
25867,31954
25923,31949
25977,31933
26027,31906
26070,31870
26106,31827
26133,31777
26149,31723
26154,31667
26154,31332
28745,31332
28745,31667
28750,31723
28766,31777
28793,31827
28829,31870
28872,31906
28922,31933
28976,31949
29032,31954
29367,31954
29423,31949
29477,31933
29527,31906
29570,31870
29606,31827
29633,31777
29649,31723
29654,31667
29654,31332
31745,31332
31745,31667
31750,31723
31766,31777
31793,31827
31829,31870
31872,31906
31922,31933
31976,31949
32032,31954
32367,31954
32423,31949
32442,31943
36457,31943
36476,31949
36532,31954
36867,31954
36923,31949
36942,31943
39457,31943
39476,31949
39532,31954
39867,31954
39923,31949
39977,31933
40027,31906
40070,31870
40106,31827
40133,31777
40149,31723
40154,31667
41781,31667
41786,31716
41800,31763
41823,31806
41855,31844
41893,31876
41936,31899
41983,31913
42032,31918
42087,31917
42150,31854
42150,31550
42250,31550
42250,31854
42312,31917
42367,31918
42416,31913
42463,31899
42506,31876
42544,31844
42576,31806
42599,31763
42613,31716
42618,31667
42617,31612
42554,31550
42250,31550
42150,31550
41845,31550
41782,31612
41781,31667
40154,31667
40154,31332
41781,31332
41782,31387
41845,31450
42150,31450
42150,31145
42250,31145
42250,31450
42554,31450
42617,31387
42618,31332
42613,31283
42599,31236
42576,31193
42544,31155
42506,31123
42463,31100
42416,31086
42367,31081
42312,31082
42250,31145
42150,31145
42087,31082
42032,31081
41983,31086
41936,31100
41893,31123
41855,31155
41823,31193
41800,31236
41786,31283
41781,31332
40154,31332
40149,31276
40133,31222
40106,31172
40070,31129
40027,31093
39977,31066
39923,31050
39867,31045
39532,31045
39476,31050
39457,31056
36942,31056
36923,31050
36867,31045
36532,31045
36476,31050
36457,31056
32442,31056
32423,31050
32367,31045
32032,31045
31976,31050
31922,31066
31872,31093
31829,31129
31793,31172
31766,31222
31750,31276
31745,31332
29654,31332
29649,31276
29643,31257
29643,31201
31201,29643
33643,29643
33665,29639
33686,29637
33707,29630
33729,29626
33749,29618
33770,29611
33789,29601
33810,29593
33828,29581
33847,29570
33864,29556
33882,29544
33898,29529
33915,29515
33929,29498
33944,29482
33956,29464
33970,29447
33981,29428
33993,29410
34001,29389
34011,29370
34018,29349
34026,29329
34030,29307
34037,29286
34039,29265
34043,29243
34043,29221
34045,29200
34043,29178
34043,29156
34039,29134
34037,29113
34030,29092
34026,29070
34018,29050
34011,29029
34001,29010
33993,28989
33981,28971
33970,28952
33956,28935
33944,28917
33929,28901
33915,28884
33898,28870
33882,28855
33864,28843
33847,28829
33828,28818
33810,28806
33789,28798
33770,28788
33749,28781
33729,28773
33707,28769
33686,28762
33665,28760
33643,28756
31039,28756
31017,28754
30995,28756
30995,28756
30930,28762
30847,28788
30770,28829
30719,28870
30719,28870
30702,28884
30688,28901
28901,30688
28884,30702
28829,30770
28788,30847
28762,30930
28756,30995
28756,30995
28754,31017
28756,31039
28756,31257
28750,31276
28745,31332
26154,31332
26149,31276
26143,31257
26143,31039
26145,31017
26143,30995
26143,30995
26137,30930
26111,30847
26070,30770
26029,30719
26029,30719
26015,30702
25998,30688
23443,28133
23443,26832
24045,26832
24045,27167
24050,27223
24056,27242
24056,27678
24054,27700
24056,27721
24056,27721
24062,27786
24088,27870
24129,27947
24170,27998
24170,27998
24184,28015
24201,28029
25345,29173
25350,29223
25366,29277
25393,29327
25429,29370
25472,29406
25522,29433
25576,29449
25632,29454
25967,29454
26023,29449
26077,29433
26127,29406
26170,29370
26206,29327
26233,29277
26249,29223
26254,29167
26254,28832
26249,28776
26233,28722
26206,28672
26170,28629
26127,28593
26077,28566
26023,28550
25973,28545
24943,27516
24943,27242
24949,27223
24954,27167
24954,26832
24949,26776
24933,26722
24906,26672
24870,26629
24827,26593
24777,26566
24723,26550
24667,26545
24332,26545
24276,26550
24222,26566
24172,26593
24129,26629
24093,26672
24066,26722
24050,26776
24045,26832
23443,26832
23443,25667
24081,25667
24086,25716
24100,25763
24123,25806
24155,25844
24193,25876
24236,25899
24283,25913
24332,25918
24387,25917
24450,25854
24450,25550
24550,25550
24550,25854
24612,25917
24667,25918
24716,25913
24763,25899
24806,25876
24844,25844
24876,25806
24899,25763
24913,25716
24918,25667
24917,25612
24854,25550
24550,25550
24450,25550
24145,25550
24082,25612
24081,25667
23443,25667
23443,25332
24081,25332
24082,25387
24145,25450
24450,25450
24450,25145
24550,25145
24550,25450
24854,25450
24917,25387
24918,25332
24913,25283
24899,25236
24876,25193
24844,25155
24806,25123
24763,25100
24716,25086
24667,25081
24612,25082
24550,25145
24450,25145
24387,25082
24332,25081
24283,25086
24236,25100
24193,25123
24155,25155
24123,25193
24100,25236
24086,25283
24081,25332
23443,25332
23443,23667
24081,23667
24086,23716
24100,23763
24123,23806
24155,23844
24193,23876
24236,23899
24283,23913
24332,23918
24387,23917
24450,23854
24450,23550
24550,23550
24550,23854
24612,23917
24667,23918
24716,23913
24763,23899
24806,23876
24844,23844
24876,23806
24899,23763
24913,23716
24918,23667
24917,23612
24854,23550
24550,23550
24450,23550
24145,23550
24082,23612
24081,23667
23443,23667
23443,23383
23494,23332
24081,23332
24082,23387
24145,23450
24450,23450
24450,23145
24550,23145
24550,23450
24854,23450
24917,23387
24918,23332
24913,23283
24899,23236
24876,23193
24844,23155
24806,23123
24763,23100
24716,23086
24667,23081
24612,23082
24550,23145
24450,23145
24387,23082
24332,23081
24283,23086
24236,23100
24193,23123
24155,23155
24123,23193
24100,23236
24086,23283
24081,23332
23494,23332
23783,23043
27016,23043
27198,23225
27207,23317
27241,23431
27297,23535
27372,23627
27464,23702
27568,23758
27682,23792
27770,23801
27829,23801
27917,23792
28031,23758
28135,23702
28227,23627
28302,23535
28358,23431
28392,23317
28404,23200
28392,23082
28358,22968
28302,22864
28227,22772
28135,22697
28031,22641
27917,22607
27829,22598
27826,22598
27529,22301
27515,22284
27447,22229
27370,22188
27286,22162
27221,22156
27221,22156
27200,22154
27178,22156
23621,22156
23599,22154
23578,22156
23578,22156
23513,22162
23429,22188
23393,22207
23352,22229
23319,22255
23284,22284
23270,22301
22701,22870
22684,22884
22629,22952
22588,23029
22562,23113
22556,23178
22556,23178
22554,23200
22250,23200
22250,21500
24014,21500
24023,21594
24045,21664
24045,21667
24050,21723
24066,21777
24093,21827
24129,21870
24172,21906
24222,21933
24276,21949
24332,21954
24335,21954
24405,21976
24476,21983
25476,21983
25500,21985
25523,21983
25523,21983
25594,21976
25685,21948
25769,21903
25843,21843
25858,21824
27880,19802
28114,19802
28171,19797
28225,19780
28274,19754
28318,19718
28354,19674
28380,19625
28397,19571
28402,19514
28402,19280
30026,17656
31337,17656
31302,17684
31288,17701
29637,19352
29621,19366
29565,19433
29524,19510
29499,19594
29492,19659
29492,19659
29490,19681
29492,19703
29492,21729
29490,21751
29492,21773
29492,21773
29499,21838
29505,21858
29524,21921
29565,21999
29607,22049
29607,22049
29621,22066
29637,22080
30107,22549
30090,22570
30064,22619
30047,22673
30042,22730
30042,23270
30047,23326
30064,23380
30090,23429
30107,23450
30101,23455
30084,23469
30029,23537
29988,23614
29962,23697
29956,23763
29956,23763
29954,23784
29956,23806
29956,24578
29954,24600
29956,24621
29956,24621
29957,24629
29962,24686
29988,24770
30029,24847
30070,24898
30070,24898
30084,24915
30101,24929
30255,25082
30255,25082
30317,25144
30335,25156
30352,25170
30371,25181
30389,25193
30410,25201
30429,25211
30450,25218
30470,25226
30492,25230
30513,25237
30534,25239
30556,25243
30578,25243
30599,25245
30621,25243
30643,25243
30665,25239
30686,25237
30707,25230
30729,25226
30749,25218
30770,25211
30789,25201
30810,25193
30828,25181
30847,25170
30864,25156
30882,25144
30898,25129
30915,25115
30929,25098
30944,25082
30956,25064
30970,25047
30981,25028
30993,25010
31001,24989
31011,24970
31018,24949
31026,24929
31030,24907
31037,24886
31039,24865
31043,24843
31043,24821
31045,24799
31043,24778
31043,24756
31039,24734
31037,24713
31030,24692
31026,24670
31018,24650
31011,24629
31001,24610
30993,24589
30981,24571
30970,24552
30956,24535
30944,24517
30882,24455
30882,24455
30843,24416
30843,23968
30898,23914
30915,23900
30970,23832
31011,23755
31037,23671
31043,23606
31043,23606
31045,23584
31043,23563
31043,23497
31073,23473
31109,23429
31135,23380
31151,23329
31156,23337
31156,25978
31154,26000
31162,26086
31188,26170
31229,26247
31270,26298
31270,26298
31284,26315
31301,26329
32870,27898
32884,27915
32901,27929
32901,27929
32924,27947
32952,27970
33029,28011
33113,28037
33178,28043
33178,28043
33200,28045
33221,28043
38378,28043
38400,28045
38421,28043
38421,28043
38486,28037
38570,28011
38647,27970
38715,27915
38770,27847
38811,27770
38837,27686
38845,27600
38843,27578
38843,25967
40381,25967
40386,26016
40400,26063
40423,26106
40455,26144
40493,26176
40536,26199
40583,26213
40632,26218
40687,26217
40750,26154
40750,25850
40850,25850
40850,26154
40912,26217
40967,26218
41016,26213
41063,26199
41106,26176
41144,26144
41176,26106
41199,26063
41213,26016
41218,25967
41217,25912
41154,25850
40850,25850
40750,25850
40445,25850
40382,25912
40381,25967
38843,25967
38843,25632
40381,25632
40382,25687
40445,25750
40750,25750
40750,25445
40850,25445
40850,25750
41154,25750
41217,25687
41218,25632
41213,25583
41199,25536
41176,25493
41144,25455
41106,25423
41063,25400
41016,25386
40967,25381
40912,25382
40850,25445
40750,25445
40687,25382
40632,25381
40583,25386
40536,25400
40493,25423
40455,25455
40423,25493
40400,25536
40386,25583
40381,25632
38843,25632
38843,25367
41581,25367
41586,25416
41600,25463
41623,25506
41655,25544
41693,25576
41736,25599
41783,25613
41832,25618
41887,25617
41950,25554
41950,25250
42050,25250
42050,25554
42112,25617
42167,25618
42216,25613
42263,25599
42306,25576
42344,25544
42376,25506
42399,25463
42413,25416
42418,25367
42417,25312
42354,25250
42050,25250
41950,25250
41645,25250
41582,25312
41581,25367
38843,25367
38843,25221
38845,25200
38843,25178
38843,25178
38837,25113
38812,25032
41581,25032
41582,25087
41645,25150
41950,25150
41950,24845
42050,24845
42050,25150
42354,25150
42417,25087
42418,25032
42413,24983
42399,24936
42376,24893
42344,24855
42306,24823
42263,24800
42216,24786
42167,24781
42112,24782
42050,24845
41950,24845
41887,24782
41832,24781
41783,24786
41736,24800
41693,24823
41655,24855
41623,24893
41600,24936
41586,24983
41581,25032
38812,25032
38811,25029
38770,24952
38751,24929
38729,24901
38729,24901
38715,24884
38698,24870
38329,24501
38315,24484
38247,24429
38170,24388
38086,24362
38021,24356
38021,24356
38000,24354
37978,24356
37170,24356
37154,24325
37118,24281
37074,24245
37025,24219
36971,24202
36914,24197
36285,24197
36228,24202
36174,24219
36125,24245
36081,24281
36045,24325
36019,24374
36002,24428
35997,24485
35997,25114
36002,25171
36019,25225
36045,25274
36081,25318
36125,25354
36174,25380
36228,25397
36285,25402
36914,25402
36971,25397
37025,25380
37074,25354
37118,25318
37154,25274
37170,25243
37816,25243
37956,25383
37956,27156
33383,27156
32043,25816
32043,23337
32092,23263
32100,23246
32107,23263
32167,23354
32245,23432
32336,23492
32437,23534
32524,23552
33255,24282
33255,24282
33317,24344
33334,24356
32556,24356
32534,24360
32513,24362
32492,24369
32470,24373
32450,24381
32429,24388
32410,24398
32389,24406
32371,24418
32352,24429
32335,24443
32317,24455
32301,24470
32284,24484
32270,24501
32255,24517
32243,24535
32229,24552
32218,24571
32206,24589
32198,24610
32188,24629
32181,24650
32173,24670
32169,24692
32162,24713
32160,24734
32156,24756
32156,24778
32154,24800
32156,24821
32156,24843
32160,24865
32162,24886
32169,24907
32173,24929
32181,24949
32188,24970
32198,24989
32206,25010
32218,25028
32229,25047
32243,25064
32255,25082
32270,25098
32284,25115
32301,25129
32317,25144
32335,25156
32352,25170
32371,25181
32389,25193
32410,25201
32429,25211
32450,25218
32470,25226
32492,25230
32513,25237
32534,25239
32556,25243
34224,25243
34248,25266
34346,25332
34456,25378
34572,25401
34690,25401
34806,25378
34916,25332
35014,25266
35098,25183
35164,25084
35209,24975
35232,24859
35232,24740
35209,24624
35164,24515
35098,24416
35014,24333
34916,24267
34806,24221
34690,24198
34572,24198
34456,24221
34346,24267
34248,24333
34224,24356
33865,24356
33882,24344
33898,24329
33915,24315
33929,24298
33944,24282
33956,24264
33970,24247
33981,24228
33993,24210
34001,24189
34011,24170
34018,24149
34026,24129
34030,24107
34037,24086
34039,24065
34043,24043
34043,24021
34045,23999
34043,23978
34043,23956
34039,23934
34037,23913
34030,23892
34026,23870
34018,23850
34011,23829
34001,23810
33993,23789
33981,23771
33970,23752
33956,23735
33944,23717
33882,23655
33882,23655
33732,23505
33826,23470
33865,23450
33887,23358
33600,23070
33594,23076
33523,23005
33529,23000
33670,23000
33958,23287
34050,23265
34093,23172
34117,23072
34121,22970
34105,22869
34070,22773
34050,22734
33958,22712
33670,23000
33529,23000
33241,22712
33149,22734
33119,22800
33092,22736
33032,22645
33027,22641
33312,22641
33600,22929
33887,22641
33865,22549
33772,22506
33672,22482
33570,22478
33469,22494
33373,22529
33334,22549
33312,22641
33027,22641
32954,22567
32863,22507
32762,22465
35548,19679
35548,20640
35498,20715
35453,20824
35430,20940
35430,21059
35453,21175
35498,21284
35564,21383
35648,21466
35746,21532
35856,21578
35972,21601
36090,21601
36206,21578
36316,21532
36414,21466
36498,21383
36544,21314
37433,21314
37438,21363
37452,21411
37476,21454
37507,21492
37545,21523
37588,21547
37636,21561
37685,21566
37887,21564
37950,21502
37950,21050
38050,21050
38050,21502
38112,21564
38314,21566
38363,21561
38411,21547
38454,21523
38492,21492
38523,21454
38547,21411
38561,21363
38566,21314
38564,21112
38502,21050
38050,21050
37950,21050
37497,21050
37435,21112
37433,21314
36544,21314
36564,21284
36609,21175
36632,21059
36632,20940
36609,20824
36564,20715
36544,20685
37433,20685
37435,20887
37497,20950
37950,20950
37950,20497
38050,20497
38050,20950
38502,20950
38564,20887
38566,20685
38561,20636
38547,20588
38523,20545
38492,20507
38454,20476
38411,20452
38363,20438
38314,20433
38112,20435
38050,20497
37950,20497
37887,20435
37685,20433
37636,20438
37588,20452
37545,20476
37507,20507
37476,20545
37452,20588
37438,20636
37433,20685
36544,20685
36514,20640
36514,19731
36578,19667
41581,19667
41586,19716
41600,19763
41623,19806
41655,19844
41693,19876
41736,19899
41783,19913
41832,19918
41887,19917
41950,19854
41950,19550
41645,19550
41582,19612
41581,19667
36578,19667
36893,19353
37806,19353
37830,19355
37854,19353
37854,19353
37925,19346
38016,19318
38100,19273
38173,19213
38189,19194
38300,19083
41812,19083
41783,19086
41736,19100
41693,19123
41655,19155
41623,19193
41600,19236
41586,19283
41581,19332
41582,19387
41645,19450
41950,19450
41950,19442
42050,19442
42050,19450
42057,19450
42057,19550
42050,19550
42050,19854
42112,19917
42146,19918
42146,22008
41675,22480
41656,22495
41596,22569
41551,22653
41523,22744
41516,22815
41516,22815
41514,22838
41516,22862
41516,22916
40776,22916
40705,22923
40635,22945
40632,22945
40576,22950
40522,22966
40472,22993
40429,23029
40393,23072
40366,23122
40350,23176
40345,23232
40345,23235
40323,23305
40314,23400
40323,23494
40345,23564
40345,23567
40350,23623
40366,23677
40393,23727
40429,23770
40472,23806
40522,23833
40576,23849
40632,23854
40635,23854
40705,23876
40776,23883
41976,23883
42000,23885
42023,23883
42094,23876
42164,23854
42167,23854
42223,23849
42277,23833
42327,23806
42370,23770
42406,23727
42433,23677
42449,23623
42454,23567
42454,23564
42476,23494
42485,23400
42483,23376
42483,23039
42954,22567
42973,22552
43033,22478
43078,22394
43090,22353
43106,22303
43115,22209
43112,22185
43112,19039
43115,19015
43112,18992
43112,18992
43106,18921
43078,18829
43033,18746
42973,18672
42954,18657
42583,18286
42583,17509
42585,17486
42576,17391
42548,17300
42531,17267
42503,17216
42443,17142
42425,17127
42145,16848
42130,16829
42057,16769
41973,16724
41882,16697
41811,16690
41811,16690
41787,16687
41763,16690
34345,16690
34321,16687
34297,16690
29850,16690
29826,16687
29803,16690
29803,16690
29779,16692
29732,16697
29641,16724
29557,16769
29508,16809
29506,16811
29483,16829
29468,16848
27719,18597
27485,18597
27428,18602
27374,18619
27325,18645
27281,18681
27245,18725
27219,18774
27202,18828
27197,18885
27197,19119
25299,21016
24476,21016
24405,21023
24335,21045
24332,21045
24276,21050
24222,21066
24172,21093
24129,21129
24093,21172
24066,21222
24050,21276
24045,21332
24045,21335
24023,21405
24014,21500
22250,21500
22250,19332
24045,19332
24045,19667
24050,19723
24066,19777
24093,19827
24129,19870
24172,19906
24222,19933
24276,19949
24332,19954
24667,19954
24723,19949
24777,19933
24827,19906
24870,19870
24906,19827
24933,19777
24949,19723
24954,19667
24954,19332
24949,19276
24943,19257
24943,19201
27701,16443
28257,16443
28276,16449
28332,16454
28667,16454
28723,16449
28742,16443
34093,16443
34130,16488
34230,16571
34345,16632
34470,16670
34600,16683
34729,16670
34854,16632
34969,16571
35069,16488
35152,16387
35213,16272
35251,16148
35261,16051
35261,15948
35251,15851
35213,15727
35152,15612
35069,15511
35067,15509
42483,15509
42483,15690
42519,15867
42588,16033
42688,16184
42815,16311
42966,16411
43132,16480
43309,16516
43490,16516
43667,16480
43833,16411
43984,16311
44111,16184
44211,16033
44280,15867
44316,15690
44316,15509
44280,15332
44211,15166
44111,15015
43984,14888
43833,14788
43667,14719
43490,14683
43309,14683
43132,14719
42966,14788
42815,14888
42688,15015
42588,15166
42519,15332
42483,15509
35067,15509
34969,15428
34854,15367
34729,15329
34600,15316
34470,15329
34345,15367
34230,15428
34130,15511
34093,15556
28742,15556
28723,15550
28667,15545
28332,15545
28276,15550
28257,15556
27539,15556
27517,15554
27495,15556
27495,15556
27430,15562
27347,15588
27270,15629
27219,15670
27219,15670
27202,15684
27188,15701
24201,18688
24184,18702
24129,18770
24088,18847
24062,18930
24056,18995
24056,18995
24054,19017
24056,19039
24056,19257
24050,19276
24045,19332
22250,19332
22250,14650
44350,14650
44350,33750
Z" /> 
<path style="fill:#000000; fill-opacity:1.0; 
stroke:#000000; stroke-width:100; stroke-opacity:1; 
stroke-linecap:round; stroke-linejoin:round;fill-rule:evenodd;"
d="M 41949,19145
41888,19083
41949,19083
41949,19145
Z" /> 
</g>
</g>
<g style="fill:#FFFFFF; fill-opacity:1.0; 
stroke:#FFFFFF; stroke-width:100; stroke-opacity:1; 
stroke-linecap:round; stroke-linejoin:round;">
</g>
<g style="fill:#FFFFFF; fill-opacity:1.0; 
stroke:#FFFFFF; stroke-width:0; stroke-opacity:1; 
stroke-linecap:round; stroke-linejoin:round;">
<circle cx="29000" cy="21200" r="68.8976" /> 
</g>
<g style="fill:#FFFFFF; fill-opacity:1.0; 
stroke:#FFFFFF; stroke-width:393.701; stroke-opacity:1; 
stroke-linecap:round; stroke-linejoin:round;">
</g>
<g style="fill:#FFFFFF; fill-opacity:1.0; 
stroke:#FFFFFF; stroke-width:0; stroke-opacity:1; 
stroke-linecap:round; stroke-linejoin:round;">
<circle cx="34800" cy="21200" r="68.8976" /> 
</g>
<g style="fill:#FFFFFF; fill-opacity:1.0; 
stroke:#FFFFFF; stroke-width:393.701; stroke-opacity:1; 
stroke-linecap:round; stroke-linejoin:round;">
</g>
<g style="fill:#FFFFFF; fill-opacity:1.0; 
stroke:#FFFFFF; stroke-width:0; stroke-opacity:1; 
stroke-linecap:round; stroke-linejoin:round;">
<circle cx="30600" cy="24800" r="68.8976" /> 
</g>
<g style="fill:#FFFFFF; fill-opacity:1.0; 
stroke:#FFFFFF; stroke-width:393.701; stroke-opacity:1; 
stroke-linecap:round; stroke-linejoin:round;">
</g>
<g style="fill:#FFFFFF; fill-opacity:1.0; 
stroke:#FFFFFF; stroke-width:0; stroke-opacity:1; 
stroke-linecap:round; stroke-linejoin:round;">
<circle cx="32600" cy="24800" r="68.8976" /> 
</g>
<g style="fill:#FFFFFF; fill-opacity:1.0; 
stroke:#FFFFFF; stroke-width:393.701; stroke-opacity:1; 
stroke-linecap:round; stroke-linejoin:round;">
</g>
<g style="fill:#FFFFFF; fill-opacity:1.0; 
stroke:#FFFFFF; stroke-width:0; stroke-opacity:1; 
stroke-linecap:round; stroke-linejoin:round;">
<circle cx="33600" cy="24000" r="68.8976" /> 
</g>
<g style="fill:#FFFFFF; fill-opacity:1.0; 
stroke:#FFFFFF; stroke-width:393.701; stroke-opacity:1; 
stroke-linecap:round; stroke-linejoin:round;">
</g>
<g style="fill:#FFFFFF; fill-opacity:1.0; 
stroke:#FFFFFF; stroke-width:0; stroke-opacity:1; 
stroke-linecap:round; stroke-linejoin:round;">
<circle cx="33600" cy="29200" r="68.8976" /> 
</g>
<g style="fill:#FFFFFF; fill-opacity:1.0; 
stroke:#FFFFFF; stroke-width:393.701; stroke-opacity:1; 
stroke-linecap:round; stroke-linejoin:round;">
</g>
<g style="fill:#FFFFFF; fill-opacity:1.0; 
stroke:#FFFFFF; stroke-width:0; stroke-opacity:1; 
stroke-linecap:round; stroke-linejoin:round;">
<circle cx="29200" cy="31500" r="68.8976" /> 
</g>
<g style="fill:#FFFFFF; fill-opacity:1.0; 
stroke:#FFFFFF; stroke-width:393.701; stroke-opacity:1; 
stroke-linecap:round; stroke-linejoin:round;">
</g>
<g style="fill:#FFFFFF; fill-opacity:1.0; 
stroke:#FFFFFF; stroke-width:0; stroke-opacity:1; 
stroke-linecap:round; stroke-linejoin:round;">
<circle cx="23200" cy="32800" r="68.8976" /> 
</g>
<g style="fill:#FFFFFF; fill-opacity:1.0; 
stroke:#FFFFFF; stroke-width:393.701; stroke-opacity:1; 
stroke-linecap:round; stroke-linejoin:round;">
</g>
<g style="fill:#FFFFFF; fill-opacity:1.0; 
stroke:#FFFFFF; stroke-width:0; stroke-opacity:1; 
stroke-linecap:round; stroke-linejoin:round;">
<circle cx="43400" cy="15600" r="68.8976" /> 
</g>
<g style="fill:#FFFFFF; fill-opacity:1.0; 
stroke:#FFFFFF; stroke-width:393.701; stroke-opacity:1; 
stroke-linecap:round; stroke-linejoin:round;">
</g>
<g style="fill:#FFFFFF; fill-opacity:1.0; 
stroke:#FFFFFF; stroke-width:0; stroke-opacity:1; 
stroke-linecap:round; stroke-linejoin:round;">
<circle cx="29200" cy="31500" r="68.8976" /> 
</g>
<g style="fill:#FFFFFF; fill-opacity:1.0; 
stroke:#FFFFFF; stroke-width:393.701; stroke-opacity:1; 
stroke-linecap:round; stroke-linejoin:round;">
</g>
<g style="fill:#FFFFFF; fill-opacity:1.0; 
stroke:#FFFFFF; stroke-width:0; stroke-opacity:1; 
stroke-linecap:round; stroke-linejoin:round;">
<circle cx="38000" cy="21000" r="68.8976" /> 
</g>
<g style="fill:#FFFFFF; fill-opacity:1.0; 
stroke:#FFFFFF; stroke-width:393.701; stroke-opacity:1; 
stroke-linecap:round; stroke-linejoin:round;">
</g>
<g style="fill:#FFFFFF; fill-opacity:1.0; 
stroke:#FFFFFF; stroke-width:0; stroke-opacity:1; 
stroke-linecap:round; stroke-linejoin:round;">
<circle cx="36031.5" cy="21000" r="68.8976" /> 
</g>
<g style="fill:#FFFFFF; fill-opacity:1.0; 
stroke:#FFFFFF; stroke-width:393.701; stroke-opacity:1; 
stroke-linecap:round; stroke-linejoin:round;">
</g>
<g style="fill:#FFFFFF; fill-opacity:1.0; 
stroke:#FFFFFF; stroke-width:0; stroke-opacity:1; 
stroke-linecap:round; stroke-linejoin:round;">
<circle cx="36600" cy="24800" r="68.8976" /> 
</g>
<g style="fill:#FFFFFF; fill-opacity:1.0; 
stroke:#FFFFFF; stroke-width:393.701; stroke-opacity:1; 
stroke-linecap:round; stroke-linejoin:round;">
</g>
<g style="fill:#FFFFFF; fill-opacity:1.0; 
stroke:#FFFFFF; stroke-width:0; stroke-opacity:1; 
stroke-linecap:round; stroke-linejoin:round;">
<circle cx="34631.5" cy="24800" r="68.8976" /> 
</g>
<g style="fill:#FFFFFF; fill-opacity:1.0; 
stroke:#FFFFFF; stroke-width:393.701; stroke-opacity:1; 
stroke-linecap:round; stroke-linejoin:round;">
</g>
<g style="fill:#FFFFFF; fill-opacity:1.0; 
stroke:#FFFFFF; stroke-width:0; stroke-opacity:1; 
stroke-linecap:round; stroke-linejoin:round;">
<circle cx="24500" cy="19500" r="68.8976" /> 
</g>
<g style="fill:#FFFFFF; fill-opacity:1.0; 
stroke:#FFFFFF; stroke-width:393.701; stroke-opacity:1; 
stroke-linecap:round; stroke-linejoin:round;">
</g>
<g style="fill:#FFFFFF; fill-opacity:1.0; 
stroke:#FFFFFF; stroke-width:0; stroke-opacity:1; 
stroke-linecap:round; stroke-linejoin:round;">
<circle cx="24500" cy="21500" r="68.8976" /> 
</g>
<g style="fill:#FFFFFF; fill-opacity:1.0; 
stroke:#FFFFFF; stroke-width:393.701; stroke-opacity:1; 
stroke-linecap:round; stroke-linejoin:round;">
</g>
<g style="fill:#FFFFFF; fill-opacity:1.0; 
stroke:#FFFFFF; stroke-width:0; stroke-opacity:1; 
stroke-linecap:round; stroke-linejoin:round;">
<circle cx="24500" cy="23500" r="68.8976" /> 
</g>
<g style="fill:#FFFFFF; fill-opacity:1.0; 
stroke:#FFFFFF; stroke-width:393.701; stroke-opacity:1; 
stroke-linecap:round; stroke-linejoin:round;">
</g>
<g style="fill:#FFFFFF; fill-opacity:1.0; 
stroke:#FFFFFF; stroke-width:0; stroke-opacity:1; 
stroke-linecap:round; stroke-linejoin:round;">
<circle cx="24500" cy="25500" r="68.8976" /> 
</g>
<g style="fill:#FFFFFF; fill-opacity:1.0; 
stroke:#FFFFFF; stroke-width:393.701; stroke-opacity:1; 
stroke-linecap:round; stroke-linejoin:round;">
</g>
<g style="fill:#FFFFFF; fill-opacity:1.0; 
stroke:#FFFFFF; stroke-width:0; stroke-opacity:1; 
stroke-linecap:round; stroke-linejoin:round;">
<circle cx="24500" cy="27000" r="68.8976" /> 
</g>
<g style="fill:#FFFFFF; fill-opacity:1.0; 
stroke:#FFFFFF; stroke-width:393.701; stroke-opacity:1; 
stroke-linecap:round; stroke-linejoin:round;">
</g>
<g style="fill:#FFFFFF; fill-opacity:1.0; 
stroke:#FFFFFF; stroke-width:0; stroke-opacity:1; 
stroke-linecap:round; stroke-linejoin:round;">
<circle cx="28500" cy="16000" r="68.8976" /> 
</g>
<g style="fill:#FFFFFF; fill-opacity:1.0; 
stroke:#FFFFFF; stroke-width:393.701; stroke-opacity:1; 
stroke-linecap:round; stroke-linejoin:round;">
</g>
<g style="fill:#FFFFFF; fill-opacity:1.0; 
stroke:#FFFFFF; stroke-width:0; stroke-opacity:1; 
stroke-linecap:round; stroke-linejoin:round;">
<circle cx="25800" cy="29000" r="68.8976" /> 
</g>
<g style="fill:#FFFFFF; fill-opacity:1.0; 
stroke:#FFFFFF; stroke-width:393.701; stroke-opacity:1; 
stroke-linecap:round; stroke-linejoin:round;">
</g>
<g style="fill:#FFFFFF; fill-opacity:1.0; 
stroke:#FFFFFF; stroke-width:0; stroke-opacity:1; 
stroke-linecap:round; stroke-linejoin:round;">
<circle cx="25700" cy="31500" r="68.8976" /> 
</g>
<g style="fill:#FFFFFF; fill-opacity:1.0; 
stroke:#FFFFFF; stroke-width:393.701; stroke-opacity:1; 
stroke-linecap:round; stroke-linejoin:round;">
</g>
<g style="fill:#FFFFFF; fill-opacity:1.0; 
stroke:#FFFFFF; stroke-width:0; stroke-opacity:1; 
stroke-linecap:round; stroke-linejoin:round;">
<circle cx="32200" cy="31500" r="68.8976" /> 
</g>
<g style="fill:#FFFFFF; fill-opacity:1.0; 
stroke:#FFFFFF; stroke-width:393.701; stroke-opacity:1; 
stroke-linecap:round; stroke-linejoin:round;">
</g>
<g style="fill:#FFFFFF; fill-opacity:1.0; 
stroke:#FFFFFF; stroke-width:0; stroke-opacity:1; 
stroke-linecap:round; stroke-linejoin:round;">
<circle cx="36700" cy="31500" r="68.8976" /> 
</g>
<g style="fill:#FFFFFF; fill-opacity:1.0; 
stroke:#FFFFFF; stroke-width:393.701; stroke-opacity:1; 
stroke-linecap:round; stroke-linejoin:round;">
</g>
<g style="fill:#FFFFFF; fill-opacity:1.0; 
stroke:#FFFFFF; stroke-width:0; stroke-opacity:1; 
stroke-linecap:round; stroke-linejoin:round;">
<circle cx="39700" cy="31500" r="68.8976" /> 
</g>
<g style="fill:#FFFFFF; fill-opacity:1.0; 
stroke:#FFFFFF; stroke-width:393.701; stroke-opacity:1; 
stroke-linecap:round; stroke-linejoin:round;">
</g>
<g style="fill:#FFFFFF; fill-opacity:1.0; 
stroke:#FFFFFF; stroke-width:0; stroke-opacity:1; 
stroke-linecap:round; stroke-linejoin:round;">
<circle cx="42200" cy="31500" r="68.8976" /> 
</g>
<g style="fill:#FFFFFF; fill-opacity:1.0; 
stroke:#FFFFFF; stroke-width:393.701; stroke-opacity:1; 
stroke-linecap:round; stroke-linejoin:round;">
</g>
<g style="fill:#FFFFFF; fill-opacity:1.0; 
stroke:#FFFFFF; stroke-width:0; stroke-opacity:1; 
stroke-linecap:round; stroke-linejoin:round;">
<circle cx="42000" cy="23400" r="68.8976" /> 
</g>
<g style="fill:#FFFFFF; fill-opacity:1.0; 
stroke:#FFFFFF; stroke-width:393.701; stroke-opacity:1; 
stroke-linecap:round; stroke-linejoin:round;">
</g>
<g style="fill:#FFFFFF; fill-opacity:1.0; 
stroke:#FFFFFF; stroke-width:0; stroke-opacity:1; 
stroke-linecap:round; stroke-linejoin:round;">
<circle cx="42000" cy="25200" r="68.8976" /> 
</g>
<g style="fill:#FFFFFF; fill-opacity:1.0; 
stroke:#FFFFFF; stroke-width:393.701; stroke-opacity:1; 
stroke-linecap:round; stroke-linejoin:round;">
</g>
<g style="fill:#FFFFFF; fill-opacity:1.0; 
stroke:#FFFFFF; stroke-width:0; stroke-opacity:1; 
stroke-linecap:round; stroke-linejoin:round;">
<circle cx="42000" cy="19500" r="68.8976" /> 
</g>
<g style="fill:#FFFFFF; fill-opacity:1.0; 
stroke:#FFFFFF; stroke-width:393.701; stroke-opacity:1; 
stroke-linecap:round; stroke-linejoin:round;">
</g>
<g style="fill:#FFFFFF; fill-opacity:1.0; 
stroke:#FFFFFF; stroke-width:0; stroke-opacity:1; 
stroke-linecap:round; stroke-linejoin:round;">
<circle cx="41500" cy="18000" r="68.8976" /> 
</g>
<g style="fill:#FFFFFF; fill-opacity:1.0; 
stroke:#FFFFFF; stroke-width:393.701; stroke-opacity:1; 
stroke-linecap:round; stroke-linejoin:round;">
</g>
<g style="fill:#FFFFFF; fill-opacity:1.0; 
stroke:#FFFFFF; stroke-width:0; stroke-opacity:1; 
stroke-linecap:round; stroke-linejoin:round;">
<circle cx="40800" cy="23400" r="68.8976" /> 
</g>
<g style="fill:#FFFFFF; fill-opacity:1.0; 
stroke:#FFFFFF; stroke-width:393.701; stroke-opacity:1; 
stroke-linecap:round; stroke-linejoin:round;">
</g>
<g style="fill:#FFFFFF; fill-opacity:1.0; 
stroke:#FFFFFF; stroke-width:0; stroke-opacity:1; 
stroke-linecap:round; stroke-linejoin:round;">
<circle cx="40800" cy="25800" r="68.8976" /> 
</g>
<g style="fill:#FFFFFF; fill-opacity:1.0; 
stroke:#FFFFFF; stroke-width:393.701; stroke-opacity:1; 
stroke-linecap:round; stroke-linejoin:round;">
</g>
<g style="fill:#FFFFFF; fill-opacity:1.0; 
stroke:#FFFFFF; stroke-width:0; stroke-opacity:1; 
stroke-linecap:round; stroke-linejoin:round;">
<circle cx="27800" cy="19200" r="68.8976" /> 
</g>
<g style="fill:#FFFFFF; fill-opacity:1.0; 
stroke:#FFFFFF; stroke-width:393.701; stroke-opacity:1; 
stroke-linecap:round; stroke-linejoin:round;">
</g>
<g style="fill:#FFFFFF; fill-opacity:1.0; 
stroke:#FFFFFF; stroke-width:0; stroke-opacity:1; 
stroke-linecap:round; stroke-linejoin:round;">
<circle cx="27800" cy="23200" r="68.8976" /> 
</g>
<g style="fill:#FFFFFF; fill-opacity:1.0; 
stroke:#FFFFFF; stroke-width:393.701; stroke-opacity:1; 
stroke-linecap:round; stroke-linejoin:round;">
</g>
<g style="fill:#FFFFFF; fill-opacity:1.0; 
stroke:#FFFFFF; stroke-width:0; stroke-opacity:1; 
stroke-linecap:round; stroke-linejoin:round;">
<circle cx="30600" cy="23000" r="68.8976" /> 
</g>
<g style="fill:#FFFFFF; fill-opacity:1.0; 
stroke:#FFFFFF; stroke-width:393.701; stroke-opacity:1; 
stroke-linecap:round; stroke-linejoin:round;">
</g>
<g style="fill:#FFFFFF; fill-opacity:1.0; 
stroke:#FFFFFF; stroke-width:0; stroke-opacity:1; 
stroke-linecap:round; stroke-linejoin:round;">
<circle cx="31600" cy="23000" r="68.8976" /> 
</g>
<g style="fill:#FFFFFF; fill-opacity:1.0; 
stroke:#FFFFFF; stroke-width:393.701; stroke-opacity:1; 
stroke-linecap:round; stroke-linejoin:round;">
</g>
<g style="fill:#FFFFFF; fill-opacity:1.0; 
stroke:#FFFFFF; stroke-width:0; stroke-opacity:1; 
stroke-linecap:round; stroke-linejoin:round;">
<circle cx="32600" cy="23000" r="68.8976" /> 
</g>
<g style="fill:#FFFFFF; fill-opacity:1.0; 
stroke:#FFFFFF; stroke-width:393.701; stroke-opacity:1; 
stroke-linecap:round; stroke-linejoin:round;">
</g>
<g style="fill:#FFFFFF; fill-opacity:1.0; 
stroke:#FFFFFF; stroke-width:0; stroke-opacity:1; 
stroke-linecap:round; stroke-linejoin:round;">
<circle cx="33600" cy="23000" r="68.8976" /> 
</g>
<g style="fill:#FFFFFF; fill-opacity:1.0; 
stroke:#FFFFFF; stroke-width:393.701; stroke-opacity:1; 
stroke-linecap:round; stroke-linejoin:round;">
</g>
<g style="fill:#FFFFFF; fill-opacity:1.0; 
stroke:#FFFFFF; stroke-width:0; stroke-opacity:1; 
stroke-linecap:round; stroke-linejoin:round;">
<circle cx="33600" cy="20000" r="68.8976" /> 
</g>
<g style="fill:#FFFFFF; fill-opacity:1.0; 
stroke:#FFFFFF; stroke-width:393.701; stroke-opacity:1; 
stroke-linecap:round; stroke-linejoin:round;">
</g>
<g style="fill:#FFFFFF; fill-opacity:1.0; 
stroke:#FFFFFF; stroke-width:0; stroke-opacity:1; 
stroke-linecap:round; stroke-linejoin:round;">
<circle cx="32600" cy="20000" r="68.8976" /> 
</g>
<g style="fill:#FFFFFF; fill-opacity:1.0; 
stroke:#FFFFFF; stroke-width:393.701; stroke-opacity:1; 
stroke-linecap:round; stroke-linejoin:round;">
</g>
<g style="fill:#FFFFFF; fill-opacity:1.0; 
stroke:#FFFFFF; stroke-width:0; stroke-opacity:1; 
stroke-linecap:round; stroke-linejoin:round;">
<circle cx="31600" cy="20000" r="68.8976" /> 
</g>
<g style="fill:#FFFFFF; fill-opacity:1.0; 
stroke:#FFFFFF; stroke-width:393.701; stroke-opacity:1; 
stroke-linecap:round; stroke-linejoin:round;">
</g>
<g style="fill:#FFFFFF; fill-opacity:1.0; 
stroke:#FFFFFF; stroke-width:0; stroke-opacity:1; 
stroke-linecap:round; stroke-linejoin:round;">
<circle cx="30600" cy="20000" r="68.8976" /> 
</g>
<g style="fill:#FFFFFF; fill-opacity:1.0; 
stroke:#FFFFFF; stroke-width:393.701; stroke-opacity:1; 
stroke-linecap:round; stroke-linejoin:round;">
</g>
<g style="fill:#FFFFFF; fill-opacity:1.0; 
stroke:#FFFFFF; stroke-width:0; stroke-opacity:1; 
stroke-linecap:round; stroke-linejoin:round;">
<circle cx="33600" cy="18000" r="68.8976" /> 
</g>
<g style="fill:#FFFFFF; fill-opacity:1.0; 
stroke:#FFFFFF; stroke-width:393.701; stroke-opacity:1; 
stroke-linecap:round; stroke-linejoin:round;">
</g>
<g style="fill:#FFFFFF; fill-opacity:1.0; 
stroke:#FFFFFF; stroke-width:0; stroke-opacity:1; 
stroke-linecap:round; stroke-linejoin:round;">
<circle cx="34600" cy="16000" r="68.8976" /> 
</g>
<g style="fill:#FFFFFF; fill-opacity:1.0; 
stroke:#FFFFFF; stroke-width:393.701; stroke-opacity:1; 
stroke-linecap:round; stroke-linejoin:round;">
</g>
<g style="fill:#FFFFFF; fill-opacity:1.0; 
stroke:#FFFFFF; stroke-width:0; stroke-opacity:1; 
stroke-linecap:round; stroke-linejoin:round;">
<circle cx="35600" cy="18000" r="68.8976" /> 
</g>
<g style="fill:#FFFFFF; fill-opacity:1.0; 
stroke:#FFFFFF; stroke-width:393.701; stroke-opacity:1; 
stroke-linecap:round; stroke-linejoin:round;">
</g>
<g style="fill:#000000; fill-opacity:1.0; 
stroke:#000000; stroke-width:393.701; stroke-opacity:1; 
stroke-linecap:round; stroke-linejoin:round;">
</g> 
</svg>
