<?xml version="1.0" standalone="no"?>
 <!DOCTYPE svg PUBLIC "-//W3C//DTD SVG 1.1//EN" 
 "http://www.w3.org/Graphics/SVG/1.1/DTD/svg11.dtd"> 
<svg xmlns="http://www.w3.org/2000/svg" version="1.1" 
    width="29.7002cm" height="21.0007cm" viewBox="0 0 116930 82680 ">
<title>SVG Picture created as cargaelectronica_ce3-F_Fab.svg date 2019/07/01 08:26:22 </title>
  <desc>Picture generated by PCBNEW </desc>
<g style="fill:#000000; fill-opacity:1;stroke:#000000; stroke-opacity:1;
stroke-linecap:round; stroke-linejoin:round; "
 transform="translate(0 0) scale(1 1)">
</g>
<g style="fill:#000000; fill-opacity:0.0; 
stroke:#000000; stroke-width:-0.000393701; stroke-opacity:1; 
stroke-linecap:round; stroke-linejoin:round;">
</g>
<g style="fill:#000000; fill-opacity:0.0; 
stroke:#000000; stroke-width:39.3701; stroke-opacity:1; 
stroke-linecap:round; stroke-linejoin:round;">
<path d="M29075 31303
L29450 31303
" />
<path d="M29450 31303
L29450 31696
" />
<path d="M29450 31696
L28950 31696
" />
<path d="M28950 31696
L28950 31428
" />
<path d="M28950 31428
L29075 31303
" />
<circle cx="37015.7" cy="21000" r="984.252" /> 
<path d="M37855 21428
L37658 21428
" />
<path d="M37757 21526
L37757 21329
" />
<circle cx="35615.7" cy="24800" r="1181.1" /> 
<path d="M36625 25314
L36389 25314
" />
<path d="M36507 25432
L36507 25196
" />
<path d="M24375 19303
L24750 19303
" />
<path d="M24750 19303
L24750 19696
" />
<path d="M24750 19696
L24250 19696
" />
<path d="M24250 19696
L24250 19428
" />
<path d="M24250 19428
L24375 19303
" />
<path d="M24250 21428
L24375 21303
" />
<path d="M24250 21696
L24250 21428
" />
<path d="M24750 21696
L24250 21696
" />
<path d="M24750 21303
L24750 21696
" />
<path d="M24375 21303
L24750 21303
" />
<path d="M24375 23303
L24750 23303
" />
<path d="M24750 23303
L24750 23696
" />
<path d="M24750 23696
L24250 23696
" />
<path d="M24250 23696
L24250 23428
" />
<path d="M24250 23428
L24375 23303
" />
<path d="M24250 25428
L24375 25303
" />
<path d="M24250 25696
L24250 25428
" />
<path d="M24750 25696
L24250 25696
" />
<path d="M24750 25303
L24750 25696
" />
<path d="M24375 25303
L24750 25303
" />
<path d="M24250 26928
L24375 26803
" />
<path d="M24250 27196
L24250 26928
" />
<path d="M24750 27196
L24250 27196
" />
<path d="M24750 26803
L24750 27196
" />
<path d="M24375 26803
L24750 26803
" />
<path d="M28250 15928
L28375 15803
" />
<path d="M28250 16196
L28250 15928
" />
<path d="M28750 16196
L28250 16196
" />
<path d="M28750 15803
L28750 16196
" />
<path d="M28375 15803
L28750 15803
" />
<path d="M25675 28803
L26050 28803
" />
<path d="M26050 28803
L26050 29196
" />
<path d="M26050 29196
L25550 29196
" />
<path d="M25550 29196
L25550 28928
" />
<path d="M25550 28928
L25675 28803
" />
<path d="M25450 31428
L25575 31303
" />
<path d="M25450 31696
L25450 31428
" />
<path d="M25950 31696
L25450 31696
" />
<path d="M25950 31303
L25950 31696
" />
<path d="M25575 31303
L25950 31303
" />
<path d="M31950 31428
L32075 31303
" />
<path d="M31950 31696
L31950 31428
" />
<path d="M32450 31696
L31950 31696
" />
<path d="M32450 31303
L32450 31696
" />
<path d="M32075 31303
L32450 31303
" />
<path d="M36575 31303
L36950 31303
" />
<path d="M36950 31303
L36950 31696
" />
<path d="M36950 31696
L36450 31696
" />
<path d="M36450 31696
L36450 31428
" />
<path d="M36450 31428
L36575 31303
" />
<path d="M39450 31428
L39575 31303
" />
<path d="M39450 31696
L39450 31428
" />
<path d="M39950 31696
L39450 31696
" />
<path d="M39950 31303
L39950 31696
" />
<path d="M39575 31303
L39950 31303
" />
<path d="M42075 31303
L42450 31303
" />
<path d="M42450 31303
L42450 31696
" />
<path d="M42450 31696
L41950 31696
" />
<path d="M41950 31696
L41950 31428
" />
<path d="M41950 31428
L42075 31303
" />
<path d="M41875 23203
L42250 23203
" />
<path d="M42250 23203
L42250 23596
" />
<path d="M42250 23596
L41750 23596
" />
<path d="M41750 23596
L41750 23328
" />
<path d="M41750 23328
L41875 23203
" />
<path d="M41750 25128
L41875 25003
" />
<path d="M41750 25396
L41750 25128
" />
<path d="M42250 25396
L41750 25396
" />
<path d="M42250 25003
L42250 25396
" />
<path d="M41875 25003
L42250 25003
" />
<path d="M41875 19303
L42250 19303
" />
<path d="M42250 19303
L42250 19696
" />
<path d="M42250 19696
L41750 19696
" />
<path d="M41750 19696
L41750 19428
" />
<path d="M41750 19428
L41875 19303
" />
<path d="M41250 17928
L41375 17803
" />
<path d="M41250 18196
L41250 17928
" />
<path d="M41750 18196
L41250 18196
" />
<path d="M41750 17803
L41750 18196
" />
<path d="M41375 17803
L41750 17803
" />
<path d="M40675 23203
L41050 23203
" />
<path d="M41050 23203
L41050 23596
" />
<path d="M41050 23596
L40550 23596
" />
<path d="M40550 23596
L40550 23328
" />
<path d="M40550 23328
L40675 23203
" />
<path d="M40675 25603
L41050 25603
" />
<path d="M41050 25603
L41050 25996
" />
<path d="M41050 25996
L40550 25996
" />
<path d="M40550 25996
L40550 25728
" />
<path d="M40550 25728
L40675 25603
" />
<path d="M28292 19959
L27307 19959
" />
<path d="M27307 19959
L27307 22440
" />
<path d="M27307 22440
L28292 22440
" />
<path d="M28292 22440
L28292 19959
" />
<path d="M27800 19200
L27800 19959
" />
<path d="M27800 23200
L27800 22440
" />
</g>
<g style="fill:#000000; fill-opacity:0.0; 
stroke:#000000; stroke-width:60; stroke-opacity:1; 
stroke-linecap:round; stroke-linejoin:round;">
<path d="M30770 22800
L30430 22800
" />
<path d="M30430 22800
L30430 23170
" />
<path d="M30430 23170
L30770 23170
" />
<path d="M30770 23170
L30770 22800
" />
<path d="M31770 22800
L31430 22800
" />
<path d="M31430 22800
L31430 23170
" />
<path d="M31430 23170
L31770 23170
" />
<path d="M31770 23170
L31770 22800
" />
<path d="M32770 22800
L32430 22800
" />
<path d="M32430 22800
L32430 23170
" />
<path d="M32430 23170
L32770 23170
" />
<path d="M32770 23170
L32770 22800
" />
<path d="M33770 22800
L33430 22800
" />
<path d="M33430 22800
L33430 23170
" />
<path d="M33430 23170
L33770 23170
" />
<path d="M33770 23170
L33770 22800
" />
<path d="M33430 20200
L33770 20200
" />
<path d="M33770 20200
L33770 19830
" />
<path d="M33770 19830
L33430 19830
" />
<path d="M33430 19830
L33430 20200
" />
<path d="M32430 20200
L32770 20200
" />
<path d="M32770 20200
L32770 19830
" />
<path d="M32770 19830
L32430 19830
" />
<path d="M32430 19830
L32430 20200
" />
<path d="M31430 20200
L31770 20200
" />
<path d="M31770 20200
L31770 19830
" />
<path d="M31770 19830
L31430 19830
" />
<path d="M31430 19830
L31430 20200
" />
<path d="M30430 20200
L30770 20200
" />
<path d="M30770 20200
L30770 19830
" />
<path d="M30770 19830
L30430 19830
" />
<path d="M30430 19830
L30430 20200
" />
<path d="M34100 22800
L34100 20200
" />
<path d="M34100 20200
L30100 20200
" />
<path d="M30100 20200
L30100 22800
" />
<path d="M30100 22800
L34100 22800
" />
<path d="M30100 21620 A120 120 0.0 0 0 30100 21380 " />
</g>
<g style="fill:#000000; fill-opacity:0.0; 
stroke:#000000; stroke-width:39.3701; stroke-opacity:1; 
stroke-linecap:round; stroke-linejoin:round;">
<path d="M32631 14759
L32631 16492
" />
<path d="M32631 16492
L36568 16492
" />
<path d="M36568 16492
L36568 14759
" />
<path d="M36568 14759
L32631 14759
" />
<path d="M32631 15259
L36568 15259
" />
<path d="M33871 14759
L33871 15259
" />
<path d="M35328 14759
L35328 15259
" />
<g >
</g>
<g >
</g>
<g >
</g>
<g >
</g>
<g >
</g>
<g >
</g>
<g >
</g>
<g >
</g>
<g >
</g>
<g >
</g>
<g >
</g>
<g >
</g>
<g >
</g>
<g >
</g>
<g >
</g>
<g >
</g>
<g >
</g>
<g >
</g>
<g >
</g>
<g >
</g>
<g >
</g>
<g >
</g>
<g >
</g>
<g >
</g>
<g >
</g>
<g >
</g>
</g>
<g style="fill:#000000; fill-opacity:0.0; 
stroke:#000000; stroke-width:59.0551; stroke-opacity:1; 
stroke-linecap:round; stroke-linejoin:round;">
<path d="M22881 34631
L22881 34237
L23012 34519
L23143 34237
L23143 34631
" />
<path d="M23293 34237
L23537 34237
L23406 34387
L23462 34387
L23499 34406
L23518 34425
L23537 34462
L23537 34556
L23518 34594
L23499 34612
L23462 34631
L23349 34631
L23312 34612
L23293 34594
" />
<path d="M22793 32978
L22661 32790
" />
<path d="M22568 32978
L22568 32584
L22718 32584
L22755 32603
L22774 32621
L22793 32659
L22793 32715
L22774 32753
L22755 32771
L22718 32790
L22568 32790
" />
<path d="M22961 32771
L23093 32771
" />
<path d="M23149 32978
L22961 32978
L22961 32584
L23149 32584
" />
<path d="M23449 32771
L23318 32771
" />
<path d="M23318 32978
L23318 32584
L23505 32584
" />
<path d="M23711 32584
L23711 32678
" />
<path d="M23618 32640
L23711 32678
L23805 32640
" />
<path d="M23655 32753
L23711 32678
L23768 32753
" />
<path d="M24011 32584
L24011 32678
" />
<path d="M23918 32640
L24011 32678
L24105 32640
" />
<path d="M23955 32753
L24011 32678
L24068 32753
" />
<path d="M42875 14124
L42743 13937
" />
<path d="M42650 14124
L42650 13730
L42800 13730
L42837 13749
L42856 13768
L42875 13805
L42875 13862
L42856 13899
L42837 13918
L42800 13937
L42650 13937
" />
<path d="M43043 13918
L43175 13918
" />
<path d="M43231 14124
L43043 14124
L43043 13730
L43231 13730
" />
<path d="M43531 13918
L43400 13918
" />
<path d="M43400 14124
L43400 13730
L43587 13730
" />
<path d="M43793 13730
L43793 13824
" />
<path d="M43699 13787
L43793 13824
L43887 13787
" />
<path d="M43737 13899
L43793 13824
L43849 13899
" />
<path d="M44093 13730
L44093 13824
" />
<path d="M43999 13787
L44093 13824
L44187 13787
" />
<path d="M44037 13899
L44093 13824
L44149 13899
" />
<path d="M43081 17431
L43081 17037
L43212 17319
L43343 17037
L43343 17431
" />
<path d="M43493 17037
L43737 17037
L43606 17187
L43662 17187
L43699 17206
L43718 17225
L43737 17262
L43737 17356
L43718 17394
L43699 17412
L43662 17431
L43549 17431
L43512 17412
L43493 17394
" />
<path d="M42993 15778
L42861 15590
" />
<path d="M42768 15778
L42768 15384
L42918 15384
L42955 15403
L42974 15421
L42993 15459
L42993 15515
L42974 15553
L42955 15571
L42918 15590
L42768 15590
" />
<path d="M43161 15571
L43293 15571
" />
<path d="M43349 15778
L43161 15778
L43161 15384
L43349 15384
" />
<path d="M43649 15571
L43518 15571
" />
<path d="M43518 15778
L43518 15384
L43705 15384
" />
<path d="M43911 15384
L43911 15478
" />
<path d="M43818 15440
L43911 15478
L44005 15440
" />
<path d="M43855 15553
L43911 15478
L43968 15553
" />
<path d="M44211 15384
L44211 15478
" />
<path d="M44118 15440
L44211 15478
L44305 15440
" />
<path d="M44155 15553
L44211 15478
L44268 15553
" />
</g>
<g style="fill:#000000; fill-opacity:0.0; 
stroke:#000000; stroke-width:44.8819; stroke-opacity:1; 
stroke-linecap:round; stroke-linejoin:round;">
<path d="M29036 31599
L29249 31599
L29292 31613
L29321 31642
L29335 31685
L29335 31713
" />
<path d="M29335 31443
L29335 31386
L29321 31357
L29306 31343
L29264 31314
L29207 31300
L29093 31300
L29064 31314
L29050 31329
L29036 31357
L29036 31414
L29050 31443
L29064 31457
L29093 31471
L29164 31471
L29192 31457
L29207 31443
L29221 31414
L29221 31357
L29207 31329
L29192 31314
L29164 31300
" />
</g>
<g style="fill:#000000; fill-opacity:0.0; 
stroke:#000000; stroke-width:59.0551; stroke-opacity:1; 
stroke-linecap:round; stroke-linejoin:round;">
<path d="M36950 21140
L36931 21159
L36875 21178
L36837 21178
L36781 21159
L36743 21121
L36725 21084
L36706 21009
L36706 20953
L36725 20878
L36743 20840
L36781 20803
L36837 20784
L36875 20784
L36931 20803
L36950 20821
" />
<path d="M37325 21178
L37100 21178
" />
<path d="M37212 21178
L37212 20784
L37175 20840
L37137 20878
L37100 20896
" />
<path d="M35550 25048
L35531 25067
L35475 25086
L35437 25086
L35381 25067
L35343 25030
L35325 24992
L35306 24917
L35306 24861
L35325 24786
L35343 24748
L35381 24711
L35437 24692
L35475 24692
L35531 24711
L35550 24730
" />
<path d="M35700 24730
L35718 24711
L35756 24692
L35850 24692
L35887 24711
L35906 24730
L35925 24767
L35925 24805
L35906 24861
L35681 25086
L35925 25086
" />
</g>
<g style="fill:#000000; fill-opacity:0.0; 
stroke:#000000; stroke-width:44.8819; stroke-opacity:1; 
stroke-linecap:round; stroke-linejoin:round;">
<path d="M24336 19599
L24549 19599
L24592 19613
L24621 19642
L24635 19685
L24635 19713
" />
<path d="M24635 19300
L24635 19471
" />
<path d="M24635 19386
L24336 19386
L24378 19414
L24407 19443
L24421 19471
" />
<path d="M24338 21562
L24551 21562
L24594 21576
L24623 21605
L24637 21647
L24637 21676
" />
<path d="M24366 21434
L24352 21419
L24338 21391
L24338 21320
L24352 21291
L24366 21277
L24395 21263
L24423 21263
L24466 21277
L24637 21448
L24637 21263
" />
<path d="M24336 23599
L24549 23599
L24592 23613
L24621 23642
L24635 23685
L24635 23713
" />
<path d="M24336 23485
L24336 23300
L24450 23400
L24450 23357
L24464 23329
L24478 23314
L24507 23300
L24578 23300
L24606 23314
L24621 23329
L24635 23357
L24635 23443
L24621 23471
L24606 23485
" />
<path d="M24336 25599
L24549 25599
L24592 25613
L24621 25642
L24635 25685
L24635 25713
" />
<path d="M24435 25329
L24635 25329
" />
<path d="M24321 25400
L24535 25471
L24535 25286
" />
<path d="M24336 27099
L24549 27099
L24592 27113
L24621 27142
L24635 27185
L24635 27213
" />
<path d="M24336 26814
L24336 26957
L24478 26971
L24464 26957
L24450 26928
L24450 26857
L24464 26829
L24478 26814
L24507 26800
L24578 26800
L24606 26814
L24621 26829
L24635 26857
L24635 26928
L24621 26957
L24606 26971
" />
<path d="M28336 16099
L28549 16099
L28592 16113
L28621 16142
L28635 16185
L28635 16213
" />
<path d="M28336 15829
L28336 15886
L28350 15914
L28364 15928
L28407 15957
L28464 15971
L28578 15971
L28606 15957
L28621 15943
L28635 15914
L28635 15857
L28621 15829
L28606 15814
L28578 15800
L28507 15800
L28478 15814
L28464 15829
L28450 15857
L28450 15914
L28464 15943
L28478 15957
L28507 15971
" />
<path d="M25636 29099
L25849 29099
L25892 29113
L25921 29142
L25935 29185
L25935 29213
" />
<path d="M25636 28985
L25636 28786
L25935 28914
" />
<path d="M25536 31599
L25749 31599
L25792 31613
L25821 31642
L25835 31685
L25835 31713
" />
<path d="M25664 31414
L25650 31443
L25635 31457
L25607 31471
L25593 31471
L25564 31457
L25550 31443
L25536 31414
L25536 31357
L25550 31329
L25564 31314
L25593 31300
L25607 31300
L25635 31314
L25650 31329
L25664 31357
L25664 31414
L25678 31443
L25692 31457
L25721 31471
L25778 31471
L25806 31457
L25821 31443
L25835 31414
L25835 31357
L25821 31329
L25806 31314
L25778 31300
L25721 31300
L25692 31314
L25678 31329
L25664 31357
" />
<path d="M32036 31742
L32249 31742
L32292 31756
L32321 31784
L32335 31827
L32335 31856
" />
<path d="M32335 31443
L32335 31613
" />
<path d="M32335 31528
L32036 31528
L32078 31556
L32107 31585
L32121 31613
" />
<path d="M32036 31257
L32036 31229
L32050 31200
L32064 31186
L32093 31172
L32150 31158
L32221 31158
L32278 31172
L32306 31186
L32321 31200
L32335 31229
L32335 31257
L32321 31286
L32306 31300
L32278 31314
L32221 31329
L32150 31329
L32093 31314
L32064 31300
L32050 31286
L32036 31257
" />
<path d="M36536 31742
L36749 31742
L36792 31756
L36821 31784
L36835 31827
L36835 31856
" />
<path d="M36835 31443
L36835 31613
" />
<path d="M36835 31528
L36536 31528
L36578 31556
L36607 31585
L36621 31613
" />
<path d="M36835 31158
L36835 31329
" />
<path d="M36835 31243
L36536 31243
L36578 31272
L36607 31300
L36621 31329
" />
<path d="M39536 31742
L39749 31742
L39792 31756
L39821 31784
L39835 31827
L39835 31856
" />
<path d="M39835 31443
L39835 31613
" />
<path d="M39835 31528
L39536 31528
L39578 31556
L39607 31585
L39621 31613
" />
<path d="M39564 31329
L39550 31314
L39536 31286
L39536 31215
L39550 31186
L39564 31172
L39593 31158
L39621 31158
L39664 31172
L39835 31343
L39835 31158
" />
<path d="M42036 31742
L42249 31742
L42292 31756
L42321 31784
L42335 31827
L42335 31856
" />
<path d="M42335 31443
L42335 31613
" />
<path d="M42335 31528
L42036 31528
L42078 31556
L42107 31585
L42121 31613
" />
<path d="M42036 31343
L42036 31158
L42150 31257
L42150 31215
L42164 31186
L42178 31172
L42207 31158
L42278 31158
L42306 31172
L42321 31186
L42335 31215
L42335 31300
L42321 31329
L42306 31343
" />
<path d="M41836 23642
L42049 23642
L42092 23656
L42121 23684
L42135 23727
L42135 23756
" />
<path d="M42135 23343
L42135 23513
" />
<path d="M42135 23428
L41836 23428
L41878 23456
L41907 23485
L41921 23513
" />
<path d="M41935 23086
L42135 23086
" />
<path d="M41821 23157
L42035 23229
L42035 23043
" />
<path d="M41836 25442
L42049 25442
L42092 25456
L42121 25484
L42135 25527
L42135 25556
" />
<path d="M42135 25143
L42135 25313
" />
<path d="M42135 25228
L41836 25228
L41878 25256
L41907 25285
L41921 25313
" />
<path d="M41836 24872
L41836 25014
L41978 25029
L41964 25014
L41950 24986
L41950 24915
L41964 24886
L41978 24872
L42007 24858
L42078 24858
L42106 24872
L42121 24886
L42135 24915
L42135 24986
L42121 25014
L42106 25029
" />
<path d="M41836 20742
L42049 20742
L42092 20756
L42121 20784
L42135 20827
L42135 20856
" />
<path d="M42135 20443
L42135 20613
" />
<path d="M42135 20528
L41836 20528
L41878 20556
L41907 20585
L41921 20613
" />
<path d="M41836 20186
L41836 20243
L41850 20272
L41864 20286
L41907 20314
L41964 20329
L42078 20329
L42106 20314
L42121 20300
L42135 20272
L42135 20215
L42121 20186
L42106 20172
L42078 20158
L42007 20158
L41978 20172
L41964 20186
L41950 20215
L41950 20272
L41964 20300
L41978 20314
L42007 20329
" />
<path d="M41336 18242
L41549 18242
L41592 18256
L41621 18284
L41635 18327
L41635 18356
" />
<path d="M41635 17943
L41635 18113
" />
<path d="M41635 18028
L41336 18028
L41378 18056
L41407 18085
L41421 18113
" />
<path d="M41336 17843
L41336 17643
L41635 17772
" />
<path d="M40636 23642
L40849 23642
L40892 23656
L40921 23684
L40935 23727
L40935 23756
" />
<path d="M40935 23343
L40935 23513
" />
<path d="M40935 23428
L40636 23428
L40678 23456
L40707 23485
L40721 23513
" />
<path d="M40764 23172
L40750 23200
L40735 23214
L40707 23229
L40693 23229
L40664 23214
L40650 23200
L40636 23172
L40636 23115
L40650 23086
L40664 23072
L40693 23058
L40707 23058
L40735 23072
L40750 23086
L40764 23115
L40764 23172
L40778 23200
L40792 23214
L40821 23229
L40878 23229
L40906 23214
L40921 23200
L40935 23172
L40935 23115
L40921 23086
L40906 23072
L40878 23058
L40821 23058
L40792 23072
L40778 23086
L40764 23115
" />
<path d="M40636 26042
L40849 26042
L40892 26056
L40921 26084
L40935 26127
L40935 26156
" />
<path d="M40935 25743
L40935 25913
" />
<path d="M40935 25828
L40636 25828
L40678 25856
L40707 25885
L40721 25913
" />
<path d="M40935 25600
L40935 25543
L40921 25515
L40906 25500
L40864 25472
L40807 25458
L40693 25458
L40664 25472
L40650 25486
L40636 25515
L40636 25572
L40650 25600
L40664 25614
L40693 25629
L40764 25629
L40792 25614
L40807 25600
L40821 25572
L40821 25515
L40807 25486
L40792 25472
L40764 25458
" />
</g>
<g style="fill:#000000; fill-opacity:0.0; 
stroke:#000000; stroke-width:59.0551; stroke-opacity:1; 
stroke-linecap:round; stroke-linejoin:round;">
<path d="M27978 21265
L27790 21396
" />
<path d="M27978 21490
L27584 21490
L27584 21340
L27603 21303
L27621 21284
L27659 21265
L27715 21265
L27753 21284
L27771 21303
L27790 21340
L27790 21490
" />
<path d="M27978 20890
L27978 21115
" />
<path d="M27978 21003
L27584 21003
L27640 21040
L27678 21078
L27696 21115
" />
<path d="M30384 22700
L30478 22700
" />
<path d="M30440 22793
L30478 22700
L30440 22606
" />
<path d="M30553 22756
L30478 22700
L30553 22643
" />
<path d="M37800 15784
L37800 16103
L37818 16140
L37837 16159
L37875 16178
L37950 16178
L37987 16159
L38006 16140
L38025 16103
L38025 15784
" />
<path d="M38193 15821
L38212 15803
L38249 15784
L38343 15784
L38381 15803
L38399 15821
L38418 15859
L38418 15896
L38399 15953
L38174 16178
L38418 16178
" />
<g >
</g>
</g> 
</svg>
