<?xml version="1.0" standalone="no"?>
 <!DOCTYPE svg PUBLIC "-//W3C//DTD SVG 1.1//EN" 
 "http://www.w3.org/Graphics/SVG/1.1/DTD/svg11.dtd"> 
<svg xmlns="http://www.w3.org/2000/svg" version="1.1" 
    width="29.7002cm" height="21.0007cm" viewBox="0 0 116930 82680 ">
<title>SVG Picture created as cargaelectronica_ce3-F_SilkS.svg date 2019/06/19 11:52:44 </title>
  <desc>Picture generated by PCBNEW </desc>
<g style="fill:#000000; fill-opacity:1;stroke:#000000; stroke-opacity:1;
stroke-linecap:round; stroke-linejoin:round; "
 transform="translate(0 0) scale(1 1)">
</g>
<g style="fill:#000000; fill-opacity:0.0; 
stroke:#000000; stroke-width:-0.000393701; stroke-opacity:1; 
stroke-linecap:round; stroke-linejoin:round;">
</g>
<g style="fill:#000000; fill-opacity:0.0; 
stroke:#000000; stroke-width:196.85; stroke-opacity:1; 
stroke-linecap:round; stroke-linejoin:round;">
<path d="M21800 34200
L21800 14400
" />
<path d="M44600 34200
L21800 34200
" />
<path d="M44600 14400
L44600 34200
" />
<path d="M21800 14400
L44600 14400
" />
</g>
<g style="fill:#000000; fill-opacity:0.0; 
stroke:#000000; stroke-width:250; stroke-opacity:1; 
stroke-linecap:round; stroke-linejoin:round;">
<path d="M41757 29619
L41804 29666
L41852 29809
L41852 29904
L41804 30047
L41709 30142
L41614 30190
L41423 30238
L41280 30238
L41090 30190
L40995 30142
L40900 30047
L40852 29904
L40852 29809
L40900 29666
L40947 29619
" />
<path d="M41328 29190
L41328 28857
" />
<path d="M41852 28714
L41852 29190
L40852 29190
L40852 28714
" />
<path d="M40852 28380
L40852 27761
L41233 28095
L41233 27952
L41280 27857
L41328 27809
L41423 27761
L41661 27761
L41757 27809
L41804 27857
L41852 27952
L41852 28238
L41804 28333
L41757 28380
" />
</g>
<g style="fill:#000000; fill-opacity:0.0; 
stroke:#000000; stroke-width:47.2441; stroke-opacity:1; 
stroke-linecap:round; stroke-linejoin:round;">
<path d="M28926 31769
L29473 31769
" />
<path d="M28926 31769
L28926 31720
" />
<path d="M29473 31769
L29473 31720
" />
<path d="M28926 31769
L28960 31769
" />
<path d="M29439 31769
L29473 31769
" />
<path d="M28926 31500
L28926 31230
" />
<path d="M28926 31230
L29200 31230
" />
<path d="M36072.4 21417.3 A1031.5 1031.5 0.0 0 0 37959.1 21417.3 " />
<path d="M37959.1 20582.7 A1031.5 1031.5 0.0 0 0 36072.4 20582.7 " />
<path d="M38119 21580
L37923 21580
" />
<path d="M38021 21679
L38021 21482
" />
<path d="M34460.5 25217.3 A1228.35 1228.35 0.0 0 0 36771 25217.3 " />
<path d="M36771 24382.7 A1228.35 1228.35 0.0 0 0 34460.5 24382.7 " />
<path d="M36930 25490
L36694 25490
" />
<path d="M36812 25609
L36812 25372
" />
<path d="M24226 19769
L24773 19769
" />
<path d="M24226 19769
L24226 19720
" />
<path d="M24773 19769
L24773 19720
" />
<path d="M24226 19769
L24260 19769
" />
<path d="M24739 19769
L24773 19769
" />
<path d="M24226 19500
L24226 19230
" />
<path d="M24226 19230
L24500 19230
" />
<path d="M24226 21230
L24500 21230
" />
<path d="M24226 21500
L24226 21230
" />
<path d="M24739 21769
L24773 21769
" />
<path d="M24226 21769
L24260 21769
" />
<path d="M24773 21769
L24773 21720
" />
<path d="M24226 21769
L24226 21720
" />
<path d="M24226 21769
L24773 21769
" />
<path d="M24226 23769
L24773 23769
" />
<path d="M24226 23769
L24226 23720
" />
<path d="M24773 23769
L24773 23720
" />
<path d="M24226 23769
L24260 23769
" />
<path d="M24739 23769
L24773 23769
" />
<path d="M24226 23500
L24226 23230
" />
<path d="M24226 23230
L24500 23230
" />
<path d="M24226 25230
L24500 25230
" />
<path d="M24226 25500
L24226 25230
" />
<path d="M24739 25769
L24773 25769
" />
<path d="M24226 25769
L24260 25769
" />
<path d="M24773 25769
L24773 25720
" />
<path d="M24226 25769
L24226 25720
" />
<path d="M24226 25769
L24773 25769
" />
<path d="M24226 26730
L24500 26730
" />
<path d="M24226 27000
L24226 26730
" />
<path d="M24739 27269
L24773 27269
" />
<path d="M24226 27269
L24260 27269
" />
<path d="M24773 27269
L24773 27220
" />
<path d="M24226 27269
L24226 27220
" />
<path d="M24226 27269
L24773 27269
" />
<path d="M28226 15730
L28500 15730
" />
<path d="M28226 16000
L28226 15730
" />
<path d="M28739 16269
L28773 16269
" />
<path d="M28226 16269
L28260 16269
" />
<path d="M28773 16269
L28773 16220
" />
<path d="M28226 16269
L28226 16220
" />
<path d="M28226 16269
L28773 16269
" />
<path d="M25526 29269
L26073 29269
" />
<path d="M25526 29269
L25526 29220
" />
<path d="M26073 29269
L26073 29220
" />
<path d="M25526 29269
L25560 29269
" />
<path d="M26039 29269
L26073 29269
" />
<path d="M25526 29000
L25526 28730
" />
<path d="M25526 28730
L25800 28730
" />
<path d="M25426 31230
L25700 31230
" />
<path d="M25426 31500
L25426 31230
" />
<path d="M25939 31769
L25973 31769
" />
<path d="M25426 31769
L25460 31769
" />
<path d="M25973 31769
L25973 31720
" />
<path d="M25426 31769
L25426 31720
" />
<path d="M25426 31769
L25973 31769
" />
<path d="M31926 31230
L32200 31230
" />
<path d="M31926 31500
L31926 31230
" />
<path d="M32439 31769
L32473 31769
" />
<path d="M31926 31769
L31960 31769
" />
<path d="M32473 31769
L32473 31720
" />
<path d="M31926 31769
L31926 31720
" />
<path d="M31926 31769
L32473 31769
" />
<path d="M36426 31769
L36973 31769
" />
<path d="M36426 31769
L36426 31720
" />
<path d="M36973 31769
L36973 31720
" />
<path d="M36426 31769
L36460 31769
" />
<path d="M36939 31769
L36973 31769
" />
<path d="M36426 31500
L36426 31230
" />
<path d="M36426 31230
L36700 31230
" />
<path d="M39426 31230
L39700 31230
" />
<path d="M39426 31500
L39426 31230
" />
<path d="M39939 31769
L39973 31769
" />
<path d="M39426 31769
L39460 31769
" />
<path d="M39973 31769
L39973 31720
" />
<path d="M39426 31769
L39426 31720
" />
<path d="M39426 31769
L39973 31769
" />
<path d="M41926 31769
L42473 31769
" />
<path d="M41926 31769
L41926 31720
" />
<path d="M42473 31769
L42473 31720
" />
<path d="M41926 31769
L41960 31769
" />
<path d="M42439 31769
L42473 31769
" />
<path d="M41926 31500
L41926 31230
" />
<path d="M41926 31230
L42200 31230
" />
<path d="M41726 23669
L42273 23669
" />
<path d="M41726 23669
L41726 23620
" />
<path d="M42273 23669
L42273 23620
" />
<path d="M41726 23669
L41760 23669
" />
<path d="M42239 23669
L42273 23669
" />
<path d="M41726 23400
L41726 23130
" />
<path d="M41726 23130
L42000 23130
" />
<path d="M41726 24930
L42000 24930
" />
<path d="M41726 25200
L41726 24930
" />
<path d="M42239 25469
L42273 25469
" />
<path d="M41726 25469
L41760 25469
" />
<path d="M42273 25469
L42273 25420
" />
<path d="M41726 25469
L41726 25420
" />
<path d="M41726 25469
L42273 25469
" />
<path d="M41726 19769
L42273 19769
" />
<path d="M41726 19769
L41726 19720
" />
<path d="M42273 19769
L42273 19720
" />
<path d="M41726 19769
L41760 19769
" />
<path d="M42239 19769
L42273 19769
" />
<path d="M41726 19500
L41726 19230
" />
<path d="M41726 19230
L42000 19230
" />
<path d="M41226 17730
L41500 17730
" />
<path d="M41226 18000
L41226 17730
" />
<path d="M41739 18269
L41773 18269
" />
<path d="M41226 18269
L41260 18269
" />
<path d="M41773 18269
L41773 18220
" />
<path d="M41226 18269
L41226 18220
" />
<path d="M41226 18269
L41773 18269
" />
<path d="M40526 23669
L41073 23669
" />
<path d="M40526 23669
L40526 23620
" />
<path d="M41073 23669
L41073 23620
" />
<path d="M40526 23669
L40560 23669
" />
<path d="M41039 23669
L41073 23669
" />
<path d="M40526 23400
L40526 23130
" />
<path d="M40526 23130
L40800 23130
" />
<path d="M40526 26069
L41073 26069
" />
<path d="M40526 26069
L40526 26020
" />
<path d="M41073 26069
L41073 26020
" />
<path d="M40526 26069
L40560 26069
" />
<path d="M41039 26069
L41073 26069
" />
<path d="M40526 25800
L40526 25530
" />
<path d="M40526 25530
L40800 25530
" />
<path d="M28339 19912
L27260 19912
" />
<path d="M27260 19912
L27260 22487
" />
<path d="M27260 22487
L28339 22487
" />
<path d="M28339 22487
L28339 19912
" />
<path d="M27800 19609
L27800 19912
" />
<path d="M27800 22790
L27800 22487
" />
</g>
<g style="fill:#000000; fill-opacity:0.0; 
stroke:#000000; stroke-width:60; stroke-opacity:1; 
stroke-linecap:round; stroke-linejoin:round;">
<path d="M34150 22850
L34150 20150
" />
<path d="M34150 20150
L33971 20150
" />
<path d="M30050 20150
L30050 22850
" />
<path d="M30050 22850
L30199 22850
" />
<path d="M31001 22850
L31228 22850
" />
<path d="M31971 22850
L32228 22850
" />
<path d="M32971 22850
L33228 22850
" />
<path d="M33971 22850
L34150 22850
" />
<path d="M33228 20150
L32971 20150
" />
<path d="M32228 20150
L31971 20150
" />
<path d="M31228 20150
L30971 20150
" />
<path d="M30228 20150
L30050 20150
" />
</g>
<g style="fill:#000000; fill-opacity:0.0; 
stroke:#000000; stroke-width:47.2441; stroke-opacity:1; 
stroke-linecap:round; stroke-linejoin:round;">
<path d="M32584 14712
L36615 14712
" />
<path d="M32584 16539
L36615 16539
" />
<path d="M32584 14712
L32584 16539
" />
<path d="M36615 14712
L36615 16539
" />
<path d="M32584 15307
L36615 15307
" />
<path d="M33871 14712
L33871 15307
" />
<path d="M35328 14712
L35328 15307
" />
<g >
</g>
<g >
</g>
<g >
</g>
<g >
</g>
<g >
</g>
<g >
</g>
<g >
</g>
<g >
</g>
<g >
</g>
<g >
</g>
<g >
</g>
<g >
</g>
<g >
</g>
<g >
</g>
<g >
</g>
<g >
</g>
<g >
</g>
<g >
</g>
<g >
</g>
<g >
</g>
<g >
</g>
<g >
</g>
<g >
</g>
<g >
</g>
<g >
</g>
<g >
</g>
</g>
<g style="fill:#000000; fill-opacity:0.0; 
stroke:#000000; stroke-width:59.0551; stroke-opacity:1; 
stroke-linecap:round; stroke-linejoin:round;">
<path d="M22675 31324
L22543 31137
" />
<path d="M22450 31324
L22450 30930
L22600 30930
L22637 30949
L22656 30968
L22675 31005
L22675 31062
L22656 31099
L22637 31118
L22600 31137
L22450 31137
" />
<path d="M22843 31118
L22975 31118
" />
<path d="M23031 31324
L22843 31324
L22843 30930
L23031 30930
" />
<path d="M23331 31118
L23200 31118
" />
<path d="M23200 31324
L23200 30930
L23387 30930
" />
<path d="M23593 30930
L23593 31024
" />
<path d="M23499 30987
L23593 31024
L23687 30987
" />
<path d="M23537 31099
L23593 31024
L23649 31099
" />
<path d="M23893 30930
L23893 31024
" />
<path d="M23799 30987
L23893 31024
L23987 30987
" />
<path d="M23837 31099
L23893 31024
L23949 31099
" />
<path d="M42875 14124
L42743 13937
" />
<path d="M42650 14124
L42650 13730
L42800 13730
L42837 13749
L42856 13768
L42875 13805
L42875 13862
L42856 13899
L42837 13918
L42800 13937
L42650 13937
" />
<path d="M43043 13918
L43175 13918
" />
<path d="M43231 14124
L43043 14124
L43043 13730
L43231 13730
" />
<path d="M43531 13918
L43400 13918
" />
<path d="M43400 14124
L43400 13730
L43587 13730
" />
<path d="M43793 13730
L43793 13824
" />
<path d="M43699 13787
L43793 13824
L43887 13787
" />
<path d="M43737 13899
L43793 13824
L43849 13899
" />
<path d="M44093 13730
L44093 13824
" />
<path d="M43999 13787
L44093 13824
L44187 13787
" />
<path d="M44037 13899
L44093 13824
L44149 13899
" />
<path d="M29068 30670
L29068 30951
L29050 31007
L29012 31045
L28956 31063
L28918 31063
" />
<path d="M29274 31063
L29349 31063
L29387 31045
L29406 31026
L29443 30970
L29462 30895
L29462 30745
L29443 30707
L29424 30688
L29387 30670
L29312 30670
L29274 30688
L29256 30707
L29237 30745
L29237 30838
L29256 30876
L29274 30895
L29312 30913
L29387 30913
L29424 30895
L29443 30876
L29462 30838
" />
<path d="M27559 32821
L27578 32803
L27615 32784
L27709 32784
L27747 32803
L27765 32821
L27784 32859
L27784 32896
L27765 32953
L27540 33178
L27784 33178
" />
<path d="M27953 33028
L28253 33028
" />
<path d="M28440 32915
L28440 33309
" />
<path d="M28440 32934
L28478 32915
L28553 32915
L28590 32934
L28609 32953
L28628 32990
L28628 33103
L28609 33140
L28590 33159
L28553 33178
L28478 33178
L28440 33159
" />
<path d="M28853 33178
L28815 33159
L28796 33140
L28778 33103
L28778 32990
L28796 32953
L28815 32934
L28853 32915
L28909 32915
L28946 32934
L28965 32953
L28984 32990
L28984 33103
L28965 33140
L28946 33159
L28909 33178
L28853 33178
" />
<path d="M29096 32915
L29246 32915
" />
<path d="M29153 32784
L29153 33121
L29171 33159
L29209 33178
L29246 33178
" />
<path d="M29378 33028
L29678 33028
" />
<path d="M30071 33178
L29846 33178
" />
<path d="M29959 33178
L29959 32784
L29921 32840
L29884 32878
L29846 32896
" />
<path d="M30315 32784
L30352 32784
L30390 32803
L30409 32821
L30427 32859
L30446 32934
L30446 33028
L30427 33103
L30409 33140
L30390 33159
L30352 33178
L30315 33178
L30277 33159
L30259 33140
L30240 33103
L30221 33028
L30221 32934
L30240 32859
L30259 32821
L30277 32803
L30315 32784
" />
<path d="M30615 33178
L30615 32784
" />
<path d="M30840 33178
L30671 32953
" />
<path d="M30840 32784
L30615 33009
" />
<path d="M36950 22616
L36931 22635
L36875 22654
L36837 22654
L36781 22635
L36743 22598
L36725 22560
L36706 22485
L36706 22429
L36725 22354
L36743 22317
L36781 22279
L36837 22260
L36875 22260
L36931 22279
L36950 22298
" />
<path d="M37325 22654
L37100 22654
" />
<path d="M37212 22654
L37212 22260
L37175 22317
L37137 22354
L37100 22373
" />
<path d="M36781 19701
L36556 19701
" />
<path d="M36668 19701
L36668 19308
L36631 19364
L36593 19401
L36556 19420
" />
<path d="M37118 19439
L37118 19701
" />
<path d="M36950 19439
L36950 19645
L36968 19682
L37006 19701
L37062 19701
L37100 19682
L37118 19664
" />
<path d="M37437 19495
L37306 19495
" />
<path d="M37306 19701
L37306 19308
L37493 19308
" />
<path d="M35550 26613
L35531 26632
L35475 26651
L35437 26651
L35381 26632
L35343 26595
L35325 26557
L35306 26482
L35306 26426
L35325 26351
L35343 26313
L35381 26276
L35437 26257
L35475 26257
L35531 26276
L35550 26295
" />
<path d="M35700 26295
L35718 26276
L35756 26257
L35850 26257
L35887 26276
L35906 26295
L35925 26332
L35925 26370
L35906 26426
L35681 26651
L35925 26651
" />
<path d="M35006 23304
L34781 23304
" />
<path d="M34893 23304
L34893 22911
L34856 22967
L34818 23004
L34781 23023
" />
<path d="M35250 22911
L35287 22911
L35325 22929
L35343 22948
L35362 22986
L35381 23061
L35381 23154
L35362 23229
L35343 23267
L35325 23286
L35287 23304
L35250 23304
L35212 23286
L35193 23267
L35175 23229
L35156 23154
L35156 23061
L35175 22986
L35193 22948
L35212 22929
L35250 22911
" />
<path d="M35625 22911
L35662 22911
L35700 22929
L35718 22948
L35737 22986
L35756 23061
L35756 23154
L35737 23229
L35718 23267
L35700 23286
L35662 23304
L35625 23304
L35587 23286
L35568 23267
L35550 23229
L35531 23154
L35531 23061
L35550 22986
L35568 22948
L35587 22929
L35625 22911
" />
<path d="M35925 23042
L35925 23304
" />
<path d="M35925 23079
L35943 23061
L35981 23042
L36037 23042
L36075 23061
L36093 23098
L36093 23304
" />
<path d="M36412 23098
L36281 23098
" />
<path d="M36281 23304
L36281 22911
L36468 22911
" />
<path d="M24368 18670
L24368 18951
L24350 19007
L24312 19045
L24256 19063
L24218 19063
" />
<path d="M24762 19063
L24537 19063
" />
<path d="M24649 19063
L24649 18670
L24612 18726
L24574 18763
L24537 18782
" />
<path d="M24096 19898
L24228 20292
L24359 19898
" />
<path d="M24490 20292
L24490 20029
" />
<path d="M24490 19898
L24471 19917
L24490 19936
L24509 19917
L24490 19898
L24490 19936
" />
<path d="M24678 20029
L24678 20292
" />
<path d="M24678 20067
L24696 20048
L24734 20029
L24790 20029
L24828 20048
L24846 20086
L24846 20292
" />
<path d="M24368 20670
L24368 20951
L24350 21007
L24312 21045
L24256 21063
L24218 21063
" />
<path d="M24537 20707
L24556 20688
L24593 20670
L24687 20670
L24724 20688
L24743 20707
L24762 20745
L24762 20782
L24743 20838
L24518 21063
L24762 21063
" />
<path d="M24031 21898
L24162 22292
L24293 21898
" />
<path d="M24593 22273
L24556 22292
L24481 22292
L24443 22273
L24425 22254
L24406 22217
L24406 22104
L24425 22067
L24443 22048
L24481 22029
L24556 22029
L24593 22048
" />
<path d="M24931 22273
L24893 22292
L24818 22292
L24781 22273
L24762 22254
L24743 22217
L24743 22104
L24762 22067
L24781 22048
L24818 22029
L24893 22029
L24931 22048
" />
<path d="M24368 22670
L24368 22951
L24350 23007
L24312 23045
L24256 23063
L24218 23063
" />
<path d="M24518 22670
L24762 22670
L24631 22820
L24687 22820
L24724 22838
L24743 22857
L24762 22895
L24762 22988
L24743 23026
L24724 23045
L24687 23063
L24574 23063
L24537 23045
L24518 23026
" />
<path d="M25200 23917
L25162 23898
L25106 23898
L25050 23917
L25012 23954
L24993 23992
L24975 24067
L24975 24123
L24993 24198
L25012 24236
L25050 24273
L25106 24292
L25143 24292
L25200 24273
L25218 24254
L25218 24123
L25143 24123
" />
<path d="M25387 24292
L25387 23898
L25612 24292
L25612 23898
" />
<path d="M25799 24292
L25799 23898
L25893 23898
L25949 23917
L25987 23954
L26006 23992
L26024 24067
L26024 24123
L26006 24198
L25987 24236
L25949 24273
L25893 24292
L25799 24292
" />
<path d="M24368 24670
L24368 24951
L24350 25007
L24312 25045
L24256 25063
L24218 25063
" />
<path d="M24724 24801
L24724 25063
" />
<path d="M24631 24651
L24537 24932
L24781 24932
" />
<path d="M25106 26292
L25106 25898
" />
<path d="M25593 26142
L25893 26142
" />
<path d="M25743 26292
L25743 25992
" />
<path d="M24368 26170
L24368 26451
L24350 26507
L24312 26545
L24256 26563
L24218 26563
" />
<path d="M24743 26170
L24556 26170
L24537 26357
L24556 26338
L24593 26320
L24687 26320
L24724 26338
L24743 26357
L24762 26395
L24762 26488
L24743 26526
L24724 26545
L24687 26563
L24593 26563
L24556 26545
L24537 26526
" />
<path d="M25106 27792
L25106 27398
" />
<path d="M25593 27642
L25893 27642
" />
<path d="M28368 15170
L28368 15451
L28350 15507
L28312 15545
L28256 15563
L28218 15563
" />
<path d="M28724 15170
L28649 15170
L28612 15188
L28593 15207
L28556 15263
L28537 15338
L28537 15488
L28556 15526
L28574 15545
L28612 15563
L28687 15563
L28724 15545
L28743 15526
L28762 15488
L28762 15395
L28743 15357
L28724 15338
L28687 15320
L28612 15320
L28574 15338
L28556 15357
L28537 15395
" />
<path d="M27478 16586
L27534 16604
L27553 16623
L27571 16661
L27571 16717
L27553 16754
L27534 16773
L27497 16792
L27347 16792
L27347 16398
L27478 16398
L27515 16417
L27534 16436
L27553 16473
L27553 16511
L27534 16548
L27515 16567
L27478 16586
L27347 16586
" />
<path d="M27796 16792
L27759 16773
L27740 16754
L27721 16717
L27721 16604
L27740 16567
L27759 16548
L27796 16529
L27853 16529
L27890 16548
L27909 16567
L27928 16604
L27928 16717
L27909 16754
L27890 16773
L27853 16792
L27796 16792
" />
<path d="M28096 16792
L28096 16529
" />
<path d="M28096 16604
L28115 16567
L28134 16548
L28171 16529
L28209 16529
" />
<path d="M28340 16529
L28340 16792
" />
<path d="M28340 16567
L28359 16548
L28396 16529
L28453 16529
L28490 16548
L28509 16586
L28509 16792
" />
<path d="M28865 16792
L28865 16586
L28846 16548
L28809 16529
L28734 16529
L28696 16548
" />
<path d="M28865 16773
L28828 16792
L28734 16792
L28696 16773
L28678 16736
L28678 16698
L28696 16661
L28734 16642
L28828 16642
L28865 16623
" />
<path d="M29353 16642
L29652 16642
" />
<path d="M29502 16792
L29502 16492
" />
<path d="M25668 28170
L25668 28451
L25650 28507
L25612 28545
L25556 28563
L25518 28563
" />
<path d="M25818 28170
L26081 28170
L25912 28563
" />
<path d="M26478 28971
L26534 28990
L26553 29009
L26571 29046
L26571 29103
L26553 29140
L26534 29159
L26497 29178
L26347 29178
L26347 28784
L26478 28784
L26515 28803
L26534 28821
L26553 28859
L26553 28896
L26534 28934
L26515 28953
L26478 28971
L26347 28971
" />
<path d="M26796 29178
L26759 29159
L26740 29140
L26721 29103
L26721 28990
L26740 28953
L26759 28934
L26796 28915
L26853 28915
L26890 28934
L26909 28953
L26928 28990
L26928 29103
L26909 29140
L26890 29159
L26853 29178
L26796 29178
" />
<path d="M27096 29178
L27096 28915
" />
<path d="M27096 28990
L27115 28953
L27134 28934
L27171 28915
L27209 28915
" />
<path d="M27340 28915
L27340 29178
" />
<path d="M27340 28953
L27359 28934
L27396 28915
L27453 28915
L27490 28934
L27509 28971
L27509 29178
" />
<path d="M27865 29178
L27865 28971
L27846 28934
L27809 28915
L27734 28915
L27696 28934
" />
<path d="M27865 29159
L27828 29178
L27734 29178
L27696 29159
L27678 29121
L27678 29084
L27696 29046
L27734 29028
L27828 29028
L27865 29009
" />
<path d="M28353 29028
L28652 29028
" />
<path d="M25568 30670
L25568 30951
L25550 31007
L25512 31045
L25456 31063
L25418 31063
" />
<path d="M25812 30838
L25774 30820
L25756 30801
L25737 30763
L25737 30745
L25756 30707
L25774 30688
L25812 30670
L25887 30670
L25924 30688
L25943 30707
L25962 30745
L25962 30763
L25943 30801
L25924 30820
L25887 30838
L25812 30838
L25774 30857
L25756 30876
L25737 30913
L25737 30988
L25756 31026
L25774 31045
L25812 31063
L25887 31063
L25924 31045
L25943 31026
L25962 30988
L25962 30913
L25943 30876
L25924 30857
L25887 30838
" />
<path d="M24284 32292
L24059 32292
" />
<path d="M24172 32292
L24172 31898
L24134 31954
L24097 31992
L24059 32011
" />
<path d="M24453 32142
L24753 32142
" />
<path d="M24940 32029
L24940 32423
" />
<path d="M24940 32048
L24978 32029
L25053 32029
L25090 32048
L25109 32067
L25128 32104
L25128 32217
L25109 32254
L25090 32273
L25053 32292
L24978 32292
L24940 32273
" />
<path d="M25353 32292
L25315 32273
L25296 32254
L25278 32217
L25278 32104
L25296 32067
L25315 32048
L25353 32029
L25409 32029
L25446 32048
L25465 32067
L25484 32104
L25484 32217
L25465 32254
L25446 32273
L25409 32292
L25353 32292
" />
<path d="M25596 32029
L25746 32029
" />
<path d="M25653 31898
L25653 32236
L25671 32273
L25709 32292
L25746 32292
" />
<path d="M25878 32142
L26178 32142
" />
<path d="M26571 32292
L26346 32292
" />
<path d="M26459 32292
L26459 31898
L26421 31954
L26384 31992
L26346 32011
" />
<path d="M26815 31898
L26852 31898
L26890 31917
L26909 31936
L26927 31973
L26946 32048
L26946 32142
L26927 32217
L26909 32254
L26890 32273
L26852 32292
L26815 32292
L26777 32273
L26759 32254
L26740 32217
L26721 32142
L26721 32048
L26740 31973
L26759 31936
L26777 31917
L26815 31898
" />
<path d="M27115 32292
L27115 31898
" />
<path d="M27340 32292
L27171 32067
" />
<path d="M27340 31898
L27115 32123
" />
<path d="M31881 30670
L31881 30951
L31862 31007
L31825 31045
L31768 31063
L31731 31063
" />
<path d="M32274 31063
L32050 31063
" />
<path d="M32162 31063
L32162 30670
L32125 30726
L32087 30763
L32050 30782
" />
<path d="M32518 30670
L32556 30670
L32593 30688
L32612 30707
L32631 30745
L32649 30820
L32649 30913
L32631 30988
L32612 31026
L32593 31045
L32556 31063
L32518 31063
L32481 31045
L32462 31026
L32443 30988
L32424 30913
L32424 30820
L32443 30745
L32462 30707
L32481 30688
L32518 30670
" />
<path d="M30540 31898
L30784 31898
L30653 32048
L30709 32048
L30747 32067
L30765 32086
L30784 32123
L30784 32217
L30765 32254
L30747 32273
L30709 32292
L30597 32292
L30559 32273
L30540 32254
" />
<path d="M30953 32142
L31253 32142
" />
<path d="M31440 32029
L31440 32423
" />
<path d="M31440 32048
L31478 32029
L31553 32029
L31590 32048
L31609 32067
L31628 32104
L31628 32217
L31609 32254
L31590 32273
L31553 32292
L31478 32292
L31440 32273
" />
<path d="M31853 32292
L31815 32273
L31796 32254
L31778 32217
L31778 32104
L31796 32067
L31815 32048
L31853 32029
L31909 32029
L31946 32048
L31965 32067
L31984 32104
L31984 32217
L31965 32254
L31946 32273
L31909 32292
L31853 32292
" />
<path d="M32096 32029
L32246 32029
" />
<path d="M32153 31898
L32153 32236
L32171 32273
L32209 32292
L32246 32292
" />
<path d="M32378 32142
L32678 32142
" />
<path d="M33071 32292
L32846 32292
" />
<path d="M32959 32292
L32959 31898
L32921 31954
L32884 31992
L32846 32011
" />
<path d="M33315 31898
L33352 31898
L33390 31917
L33409 31936
L33427 31973
L33446 32048
L33446 32142
L33427 32217
L33409 32254
L33390 32273
L33352 32292
L33315 32292
L33277 32273
L33259 32254
L33240 32217
L33221 32142
L33221 32048
L33240 31973
L33259 31936
L33277 31917
L33315 31898
" />
<path d="M33615 32292
L33615 31898
" />
<path d="M33840 32292
L33671 32067
" />
<path d="M33840 31898
L33615 32123
" />
<path d="M36381 30670
L36381 30951
L36362 31007
L36325 31045
L36268 31063
L36231 31063
" />
<path d="M36774 31063
L36550 31063
" />
<path d="M36662 31063
L36662 30670
L36625 30726
L36587 30763
L36550 30782
" />
<path d="M37149 31063
L36924 31063
" />
<path d="M37037 31063
L37037 30670
L36999 30726
L36962 30763
L36924 30782
" />
<path d="M35472 32292
L35247 32292
" />
<path d="M35359 32292
L35359 31898
L35322 31954
L35284 31992
L35247 32011
" />
<path d="M35640 32142
L35940 32142
" />
<path d="M36128 32029
L36128 32423
" />
<path d="M36128 32048
L36165 32029
L36240 32029
L36278 32048
L36296 32067
L36315 32104
L36315 32217
L36296 32254
L36278 32273
L36240 32292
L36165 32292
L36128 32273
" />
<path d="M36540 32292
L36503 32273
L36484 32254
L36465 32217
L36465 32104
L36484 32067
L36503 32048
L36540 32029
L36596 32029
L36634 32048
L36653 32067
L36671 32104
L36671 32217
L36653 32254
L36634 32273
L36596 32292
L36540 32292
" />
<path d="M36784 32029
L36934 32029
" />
<path d="M36840 31898
L36840 32236
L36859 32273
L36896 32292
L36934 32292
" />
<path d="M37065 32142
L37365 32142
" />
<path d="M37759 32292
L37534 32292
" />
<path d="M37646 32292
L37646 31898
L37609 31954
L37571 31992
L37534 32011
" />
<path d="M37927 32292
L37927 31898
" />
<path d="M38152 32292
L37984 32067
" />
<path d="M38152 31898
L37927 32123
" />
<path d="M39381 30670
L39381 30951
L39362 31007
L39325 31045
L39268 31063
L39231 31063
" />
<path d="M39774 31063
L39550 31063
" />
<path d="M39662 31063
L39662 30670
L39625 30726
L39587 30763
L39550 30782
" />
<path d="M39924 30707
L39943 30688
L39981 30670
L40074 30670
L40112 30688
L40131 30707
L40149 30745
L40149 30782
L40131 30838
L39906 31063
L40149 31063
" />
<path d="M38047 32821
L38065 32803
L38103 32784
L38197 32784
L38234 32803
L38253 32821
L38272 32859
L38272 32896
L38253 32953
L38028 33178
L38272 33178
" />
<path d="M38440 33028
L38740 33028
" />
<path d="M38928 32915
L38928 33309
" />
<path d="M38928 32934
L38965 32915
L39040 32915
L39078 32934
L39096 32953
L39115 32990
L39115 33103
L39096 33140
L39078 33159
L39040 33178
L38965 33178
L38928 33159
" />
<path d="M39340 33178
L39303 33159
L39284 33140
L39265 33103
L39265 32990
L39284 32953
L39303 32934
L39340 32915
L39396 32915
L39434 32934
L39453 32953
L39471 32990
L39471 33103
L39453 33140
L39434 33159
L39396 33178
L39340 33178
" />
<path d="M39584 32915
L39734 32915
" />
<path d="M39640 32784
L39640 33121
L39659 33159
L39696 33178
L39734 33178
" />
<path d="M39865 33028
L40165 33028
" />
<path d="M40559 33178
L40334 33178
" />
<path d="M40446 33178
L40446 32784
L40409 32840
L40371 32878
L40334 32896
" />
<path d="M40727 33178
L40727 32784
" />
<path d="M40952 33178
L40784 32953
" />
<path d="M40952 32784
L40727 33009
" />
<path d="M41881 30670
L41881 30951
L41862 31007
L41825 31045
L41768 31063
L41731 31063
" />
<path d="M42274 31063
L42050 31063
" />
<path d="M42162 31063
L42162 30670
L42125 30726
L42087 30763
L42050 30782
" />
<path d="M42406 30670
L42649 30670
L42518 30820
L42574 30820
L42612 30838
L42631 30857
L42649 30895
L42649 30988
L42631 31026
L42612 31045
L42574 31063
L42462 31063
L42424 31045
L42406 31026
" />
<path d="M40728 31898
L40972 31898
L40840 32048
L40897 32048
L40934 32067
L40953 32086
L40972 32123
L40972 32217
L40953 32254
L40934 32273
L40897 32292
L40784 32292
L40747 32273
L40728 32254
" />
<path d="M41140 32142
L41440 32142
" />
<path d="M41628 32029
L41628 32423
" />
<path d="M41628 32048
L41665 32029
L41740 32029
L41778 32048
L41796 32067
L41815 32104
L41815 32217
L41796 32254
L41778 32273
L41740 32292
L41665 32292
L41628 32273
" />
<path d="M42040 32292
L42003 32273
L41984 32254
L41965 32217
L41965 32104
L41984 32067
L42003 32048
L42040 32029
L42096 32029
L42134 32048
L42153 32067
L42171 32104
L42171 32217
L42153 32254
L42134 32273
L42096 32292
L42040 32292
" />
<path d="M42284 32029
L42434 32029
" />
<path d="M42340 31898
L42340 32236
L42359 32273
L42396 32292
L42434 32292
" />
<path d="M42565 32142
L42865 32142
" />
<path d="M43259 32292
L43034 32292
" />
<path d="M43146 32292
L43146 31898
L43109 31954
L43071 31992
L43034 32011
" />
<path d="M43427 32292
L43427 31898
" />
<path d="M43652 32292
L43484 32067
" />
<path d="M43652 31898
L43427 32123
" />
<path d="M41681 22570
L41681 22851
L41662 22907
L41625 22945
L41568 22963
L41531 22963
" />
<path d="M42074 22963
L41850 22963
" />
<path d="M41962 22963
L41962 22570
L41925 22626
L41887 22663
L41850 22682
" />
<path d="M42412 22701
L42412 22963
" />
<path d="M42318 22551
L42224 22832
L42468 22832
" />
<path d="M41806 23971
L41675 23971
" />
<path d="M41675 24178
L41675 23784
L41862 23784
" />
<path d="M42181 24178
L42181 23971
L42162 23934
L42125 23915
L42050 23915
L42012 23934
" />
<path d="M42181 24159
L42143 24178
L42050 24178
L42012 24159
L41993 24121
L41993 24084
L42012 24046
L42050 24028
L42143 24028
L42181 24009
" />
<path d="M42368 23915
L42368 24178
" />
<path d="M42368 23953
L42387 23934
L42425 23915
L42481 23915
L42518 23934
L42537 23971
L42537 24178
" />
<path d="M43024 24028
L43324 24028
" />
<path d="M43174 24178
L43174 23878
" />
<path d="M41681 24370
L41681 24651
L41662 24707
L41625 24745
L41568 24763
L41531 24763
" />
<path d="M42074 24763
L41850 24763
" />
<path d="M41962 24763
L41962 24370
L41925 24426
L41887 24463
L41850 24482
" />
<path d="M42431 24370
L42243 24370
L42224 24557
L42243 24538
L42281 24520
L42374 24520
L42412 24538
L42431 24557
L42449 24595
L42449 24688
L42431 24726
L42412 24745
L42374 24763
L42281 24763
L42243 24745
L42224 24726
" />
<path d="M41806 25971
L41675 25971
" />
<path d="M41675 26178
L41675 25784
L41862 25784
" />
<path d="M42181 26178
L42181 25971
L42162 25934
L42125 25915
L42050 25915
L42012 25934
" />
<path d="M42181 26159
L42143 26178
L42050 26178
L42012 26159
L41993 26121
L41993 26084
L42012 26046
L42050 26028
L42143 26028
L42181 26009
" />
<path d="M42368 25915
L42368 26178
" />
<path d="M42368 25953
L42387 25934
L42425 25915
L42481 25915
L42518 25934
L42537 25971
L42537 26178
" />
<path d="M43024 26028
L43324 26028
" />
<path d="M41681 18670
L41681 18951
L41662 19007
L41625 19045
L41568 19063
L41531 19063
" />
<path d="M42074 19063
L41850 19063
" />
<path d="M41962 19063
L41962 18670
L41925 18726
L41887 18763
L41850 18782
" />
<path d="M42412 18670
L42337 18670
L42299 18688
L42281 18707
L42243 18763
L42224 18838
L42224 18988
L42243 19026
L42262 19045
L42299 19063
L42374 19063
L42412 19045
L42431 19026
L42449 18988
L42449 18895
L42431 18857
L42412 18838
L42374 18820
L42299 18820
L42262 18838
L42243 18857
L42224 18895
" />
<path d="M40250 19178
L40250 18915
" />
<path d="M40250 18990
L40268 18953
L40287 18934
L40325 18915
L40362 18915
" />
<path d="M40643 19159
L40606 19178
L40531 19178
L40493 19159
L40475 19121
L40475 18971
L40493 18934
L40531 18915
L40606 18915
L40643 18934
L40662 18971
L40662 19009
L40475 19046
" />
<path d="M40812 19159
L40850 19178
L40925 19178
L40962 19159
L40981 19121
L40981 19103
L40962 19065
L40925 19046
L40868 19046
L40831 19028
L40812 18990
L40812 18971
L40831 18934
L40868 18915
L40925 18915
L40962 18934
" />
<path d="M41449 19028
L41749 19028
" />
<path d="M41181 17170
L41181 17451
L41162 17507
L41125 17545
L41068 17563
L41031 17563
" />
<path d="M41574 17563
L41350 17563
" />
<path d="M41462 17563
L41462 17170
L41425 17226
L41387 17263
L41350 17282
" />
<path d="M41706 17170
L41968 17170
L41799 17563
" />
<path d="M39250 17678
L39250 17415
" />
<path d="M39250 17490
L39268 17453
L39287 17434
L39325 17415
L39362 17415
" />
<path d="M39643 17659
L39606 17678
L39531 17678
L39493 17659
L39475 17621
L39475 17471
L39493 17434
L39531 17415
L39606 17415
L39643 17434
L39662 17471
L39662 17509
L39475 17546
" />
<path d="M39812 17659
L39850 17678
L39925 17678
L39962 17659
L39981 17621
L39981 17603
L39962 17565
L39925 17546
L39868 17546
L39831 17528
L39812 17490
L39812 17471
L39831 17434
L39868 17415
L39925 17415
L39962 17434
" />
<path d="M40449 17528
L40749 17528
" />
<path d="M40599 17678
L40599 17378
" />
<path d="M40481 22570
L40481 22851
L40462 22907
L40425 22945
L40368 22963
L40331 22963
" />
<path d="M40874 22963
L40650 22963
" />
<path d="M40762 22963
L40762 22570
L40725 22626
L40687 22663
L40650 22682
" />
<path d="M41099 22738
L41062 22720
L41043 22701
L41024 22663
L41024 22645
L41043 22607
L41062 22588
L41099 22570
L41174 22570
L41212 22588
L41231 22607
L41249 22645
L41249 22663
L41231 22701
L41212 22720
L41174 22738
L41099 22738
L41062 22757
L41043 22776
L41024 22813
L41024 22888
L41043 22926
L41062 22945
L41099 22963
L41174 22963
L41212 22945
L41231 22926
L41249 22888
L41249 22813
L41231 22776
L41212 22757
L41174 22738
" />
<path d="M39675 23915
L39768 24178
L39862 23915
" />
<path d="M40181 24159
L40143 24178
L40068 24178
L40031 24159
L40012 24140
L39993 24103
L39993 23990
L40012 23953
L40031 23934
L40068 23915
L40143 23915
L40181 23934
" />
<path d="M40518 24159
L40481 24178
L40406 24178
L40368 24159
L40350 24140
L40331 24103
L40331 23990
L40350 23953
L40368 23934
L40406 23915
L40481 23915
L40518 23934
" />
<path d="M40987 24028
L41287 24028
" />
<path d="M41137 24178
L41137 23878
" />
<path d="M40481 24970
L40481 25251
L40462 25307
L40425 25345
L40368 25363
L40331 25363
" />
<path d="M40874 25363
L40650 25363
" />
<path d="M40762 25363
L40762 24970
L40725 25026
L40687 25063
L40650 25082
" />
<path d="M41062 25363
L41137 25363
L41174 25345
L41193 25326
L41231 25270
L41249 25195
L41249 25045
L41231 25007
L41212 24988
L41174 24970
L41099 24970
L41062 24988
L41043 25007
L41024 25045
L41024 25138
L41043 25176
L41062 25195
L41099 25213
L41174 25213
L41212 25195
L41231 25176
L41249 25138
" />
<path d="M38675 25415
L38768 25678
L38862 25415
" />
<path d="M39181 25659
L39143 25678
L39068 25678
L39031 25659
L39012 25640
L38993 25603
L38993 25490
L39012 25453
L39031 25434
L39068 25415
L39143 25415
L39181 25434
" />
<path d="M39518 25659
L39481 25678
L39406 25678
L39368 25659
L39350 25640
L39331 25603
L39331 25490
L39350 25453
L39368 25434
L39406 25415
L39481 25415
L39518 25434
" />
<path d="M39987 25528
L40287 25528
" />
<path d="M28911 21265
L28723 21396
" />
<path d="M28911 21490
L28517 21490
L28517 21340
L28536 21303
L28554 21284
L28592 21265
L28648 21265
L28686 21284
L28704 21303
L28723 21340
L28723 21490
" />
<path d="M28911 20890
L28911 21115
" />
<path d="M28911 21003
L28517 21003
L28573 21040
L28611 21078
L28629 21115
" />
<path d="M26782 21509
L27045 21509
" />
<path d="M26632 21603
L26913 21696
L26913 21453
" />
<path d="M27045 21303
L26651 21303
" />
<path d="M27045 21078
L26820 21246
" />
<path d="M26651 21078
L26876 21303
" />
<path d="M26651 20946
L26651 20684
L27045 20853
" />
<path d="M31884 21799
L32203 21799
L32240 21781
L32259 21762
L32278 21724
L32278 21649
L32259 21612
L32240 21593
L32203 21574
L31884 21574
" />
<path d="M32278 21181
L32278 21406
" />
<path d="M32278 21293
L31884 21293
L31940 21331
L31978 21368
L31996 21406
" />
<path d="M34384 22924
L34384 22699
" />
<path d="M34778 22812
L34384 22812
" />
<path d="M34778 22381
L34778 22568
L34384 22568
" />
<path d="M34740 22024
L34759 22043
L34778 22099
L34778 22137
L34759 22193
L34721 22231
L34684 22249
L34609 22268
L34553 22268
L34478 22249
L34440 22231
L34403 22193
L34384 22137
L34384 22099
L34403 22043
L34421 22024
" />
<path d="M34421 21874
L34403 21856
L34384 21818
L34384 21724
L34403 21687
L34421 21668
L34459 21649
L34496 21649
L34553 21668
L34778 21893
L34778 21649
" />
<path d="M34384 21518
L34384 21256
L34778 21425
" />
<path d="M34421 21125
L34403 21106
L34384 21068
L34384 20975
L34403 20937
L34421 20918
L34459 20900
L34496 20900
L34553 20918
L34778 21143
L34778 20900
" />
<path d="M34740 20506
L34759 20525
L34778 20581
L34778 20618
L34759 20675
L34721 20712
L34684 20731
L34609 20750
L34553 20750
L34478 20731
L34440 20712
L34403 20675
L34384 20618
L34384 20581
L34403 20525
L34421 20506
" />
<path d="M34778 20337
L34384 20337
L34384 20187
L34403 20150
L34421 20131
L34459 20112
L34515 20112
L34553 20131
L34571 20150
L34590 20187
L34590 20337
" />
<path d="M29814 23000
L29908 23000
" />
<path d="M29870 23093
L29908 23000
L29870 22906
" />
<path d="M29983 23056
L29908 23000
L29983 22943
" />
<path d="M37300 15284
L37300 15603
L37318 15640
L37337 15659
L37375 15678
L37450 15678
L37487 15659
L37506 15640
L37525 15603
L37525 15284
" />
<path d="M37693 15321
L37712 15303
L37749 15284
L37843 15284
L37881 15303
L37899 15321
L37918 15359
L37918 15396
L37899 15453
L37674 15678
L37918 15678
" />
<path d="M32003 17162
L32003 16768
L32134 17049
L32265 16768
L32265 17162
" />
<path d="M32397 16768
L32622 16768
" />
<path d="M32509 17162
L32509 16768
" />
<path d="M32753 17162
L32753 16768
L32903 16768
L32940 16787
L32959 16806
L32978 16843
L32978 16899
L32959 16937
L32940 16956
L32903 16974
L32753 16974
" />
<path d="M33353 17162
L33128 17162
" />
<path d="M33240 17162
L33240 16768
L33203 16824
L33165 16862
L33128 16881
" />
<path d="M33709 16768
L33522 16768
L33503 16956
L33522 16937
L33559 16918
L33653 16918
L33690 16937
L33709 16956
L33728 16993
L33728 17087
L33709 17124
L33690 17143
L33653 17162
L33559 17162
L33522 17143
L33503 17124
" />
<path d="M33896 17162
L33896 16768
L34121 17162
L34121 16768
" />
<path d="M34384 16768
L34421 16768
L34459 16787
L34478 16806
L34496 16843
L34515 16918
L34515 17012
L34496 17087
L34478 17124
L34459 17143
L34421 17162
L34384 17162
L34346 17143
L34328 17124
L34309 17087
L34290 17012
L34290 16918
L34309 16843
L34328 16806
L34346 16787
L34384 16768
" />
<path d="M34853 16768
L34778 16768
L34740 16787
L34721 16806
L34684 16862
L34665 16937
L34665 17087
L34684 17124
L34703 17143
L34740 17162
L34815 17162
L34853 17143
L34871 17124
L34890 17087
L34890 16993
L34871 16956
L34853 16937
L34815 16918
L34740 16918
L34703 16937
L34684 16956
L34665 16993
" />
<path d="M35059 17012
L35359 17012
" />
<path d="M35490 16768
L35715 16768
" />
<path d="M35602 17162
L35602 16768
" />
<path d="M35921 16768
L35996 16768
L36034 16787
L36071 16824
L36090 16899
L36090 17031
L36071 17106
L36034 17143
L35996 17162
L35921 17162
L35884 17143
L35846 17106
L35827 17031
L35827 16899
L35846 16824
L35884 16787
L35921 16768
" />
<path d="M36240 16806
L36259 16787
L36296 16768
L36390 16768
L36427 16787
L36446 16806
L36465 16843
L36465 16881
L36446 16937
L36221 17162
L36465 17162
" />
<path d="M36615 16806
L36634 16787
L36671 16768
L36765 16768
L36802 16787
L36821 16806
L36840 16843
L36840 16881
L36821 16937
L36596 17162
L36840 17162
" />
<path d="M37084 16768
L37121 16768
L37159 16787
L37177 16806
L37196 16843
L37215 16918
L37215 17012
L37196 17087
L37177 17124
L37159 17143
L37121 17162
L37084 17162
L37046 17143
L37027 17124
L37009 17087
L36990 17012
L36990 16918
L37009 16843
L37027 16806
L37046 16787
L37084 16768
" />
<g >
</g>
</g> 
</svg>
